ISO-10303-21;
HEADER;
FILE_DESCRIPTION (( 'STEP AP203' ),
    '1' );
FILE_NAME ('Part.STEP',
    '2026-09-12T14:22:09',
    ( '' ),
    ( '' ),
    'SwSTEP 2.0',
    'SolidWorks 2026',
    '' );
FILE_SCHEMA (( 'CONFIG_CONTROL_DESIGN' ));
ENDSEC;

DATA;
#1 = ORIENTED_EDGE ( 'NONE', *, *, #106, .T. ) ;
#2 = VECTOR ( 'NONE', #209, 1000.000000000000000 ) ;
#3 = AXIS2_PLACEMENT_3D ( 'NONE', #29, #421, #798 ) ;
#4 = ORIENTED_EDGE ( 'NONE', *, *, #129, .T. ) ;
#5 = EDGE_CURVE ( 'NONE', #516, #1180, #1046, .T. ) ;
#6 = AXIS2_PLACEMENT_3D ( 'NONE', #181, #715, #999 ) ;
#7 = DIRECTION ( 'NONE',  ( 0.000000000000000000, 0.000000000000000000, 1.000000000000000000 ) ) ;
#8 = CARTESIAN_POINT ( 'NONE',  ( -57.00000000000000000, 60.00000000000000000, -2.999999999999995559 ) ) ;
#9 = ORIENTED_EDGE ( 'NONE', *, *, #334, .T. ) ;
#10 = VERTEX_POINT ( 'NONE', #1193 ) ;
#11 = DIRECTION ( 'NONE',  ( 0.000000000000000000, 1.000000000000000000, 0.000000000000000000 ) ) ;
#12 = DIRECTION ( 'NONE',  ( -1.000000000000000000, 0.000000000000000000, 0.000000000000000000 ) ) ;
#13 = ORIENTED_EDGE ( 'NONE', *, *, #975, .T. ) ;
#14 = ORIENTED_EDGE ( 'NONE', *, *, #752, .F. ) ;
#15 = DIRECTION ( 'NONE',  ( 0.000000000000000000, 0.000000000000000000, 1.000000000000000000 ) ) ;
#16 = APPLICATION_PROTOCOL_DEFINITION ( 'international standard', 'config_control_design', 1994, #392 ) ;
#17 = PLANE ( 'NONE',  #1145 ) ;
#18 = EDGE_CURVE ( 'NONE', #10, #1040, #1003, .T. ) ;
#19 = ORIENTED_EDGE ( 'NONE', *, *, #1055, .T. ) ;
#20 = ORIENTED_EDGE ( 'NONE', *, *, #1185, .F. ) ;
#21 = CIRCLE ( 'NONE', #690, 25.00000000000000000 ) ;
#22 = CARTESIAN_POINT ( 'NONE',  ( -14.69693845669906906, 0.000000000000000000, 3.000000000000000000 ) ) ;
#23 = CIRCLE ( 'NONE', #711, 25.00000000000000000 ) ;
#24 = PERSON_AND_ORGANIZATION ( #207, #1066 ) ;
#25 = DIRECTION ( 'NONE',  ( -0.000000000000000000, 1.000000000000000000, -0.000000000000000000 ) ) ;
#26 = VERTEX_POINT ( 'NONE', #554 ) ;
#27 = ORIENTED_EDGE ( 'NONE', *, *, #667, .T. ) ;
#28 = PRODUCT ( 'Part', 'Part', '', ( #371 ) ) ;
#29 = CARTESIAN_POINT ( 'NONE',  ( -37.00000000000000000, 60.00000000000000000, -13.00000000000000000 ) ) ;
#30 = APPROVAL_STATUS ( 'not_yet_approved' ) ;
#31 = FACE_OUTER_BOUND ( 'NONE', #1158, .T. ) ;
#32 = ORIENTED_EDGE ( 'NONE', *, *, #519, .F. ) ;
#33 = ORIENTED_EDGE ( 'NONE', *, *, #446, .F. ) ;
#34 = ADVANCED_FACE ( 'NONE', ( #1017 ), #82, .F. ) ;
#35 = CARTESIAN_POINT ( 'NONE',  ( 0.000000000000000000, 80.00000000000000000, 15.00000000000000178 ) ) ;
#36 = CARTESIAN_POINT ( 'NONE',  ( 0.000000000000000000, 0.000000000000000000, 15.00000000000000178 ) ) ;
#37 = ORIENTED_EDGE ( 'NONE', *, *, #893, .F. ) ;
#38 = ORIENTED_EDGE ( 'NONE', *, *, #1095, .F. ) ;
#39 = VECTOR ( 'NONE', #364, 1000.000000000000000 ) ;
#40 = CC_DESIGN_PERSON_AND_ORGANIZATION_ASSIGNMENT ( #972, #1124, ( #28 ) ) ;
#41 = DIRECTION ( 'NONE',  ( 1.845316948019291341E-16, 0.000000000000000000, 1.000000000000000000 ) ) ;
#42 = CIRCLE ( 'NONE', #864, 19.99999999999990763 ) ;
#43 = EDGE_CURVE ( 'NONE', #304, #703, #358, .T. ) ;
#44 = CARTESIAN_POINT ( 'NONE',  ( 57.00000000000000000, 40.00000000000000000, -10.00000000000000000 ) ) ;
#45 = AXIS2_PLACEMENT_3D ( 'NONE', #101, #1147, #12 ) ;
#46 = VERTEX_POINT ( 'NONE', #180 ) ;
#47 = ORIENTED_EDGE ( 'NONE', *, *, #958, .F. ) ;
#48 = CARTESIAN_POINT ( 'NONE',  ( -57.00000000000000000, 60.00000000000000000, -13.00000000000000000 ) ) ;
#49 = LINE ( 'NONE', #422, #223 ) ;
#50 = EDGE_CURVE ( 'NONE', #65, #1190, #166, .T. ) ;
#51 = ORIENTED_EDGE ( 'NONE', *, *, #981, .T. ) ;
#52 = ORIENTED_EDGE ( 'NONE', *, *, #538, .T. ) ;
#53 = CARTESIAN_POINT ( 'NONE',  ( 57.00000000000000000, 20.00000000000000000, 10.00000000000000000 ) ) ;
#54 = CARTESIAN_POINT ( 'NONE',  ( -37.00000000000000000, 80.00000000000000000, 13.00000000000000000 ) ) ;
#55 = EDGE_CURVE ( 'NONE', #1180, #661, #345, .T. ) ;
#56 = DIRECTION ( 'NONE',  ( -0.000000000000000000, -0.000000000000000000, -1.000000000000000000 ) ) ;
#57 = EDGE_LOOP ( 'NONE', ( #815, #420, #739, #158, #389 ) ) ;
#58 = DIRECTION ( 'NONE',  ( 1.845316948019291341E-16, 0.000000000000000000, 1.000000000000000000 ) ) ;
#59 = CARTESIAN_POINT ( 'NONE',  ( -26.99999999999999645, 60.00000000000000000, 13.00000000000000000 ) ) ;
#60 = AXIS2_PLACEMENT_3D ( 'NONE', #608, #308, #689 ) ;
#61 = CARTESIAN_POINT ( 'NONE',  ( -37.00000000000000000, 80.00000000000000000, -13.00000000000000000 ) ) ;
#62 = VECTOR ( 'NONE', #225, 1000.000000000000000 ) ;
#63 = CARTESIAN_POINT ( 'NONE',  ( -37.00000000000000000, 60.00000000000000000, 13.00000000000000000 ) ) ;
#64 = AXIS2_PLACEMENT_3D ( 'NONE', #63, #154, #1099 ) ;
#65 = VERTEX_POINT ( 'NONE', #904 ) ;
#66 = DIRECTION ( 'NONE',  ( -0.000000000000000000, -0.000000000000000000, -1.000000000000000000 ) ) ;
#67 = SHAPE_DEFINITION_REPRESENTATION ( #577, #732 ) ;
#68 = PLANE ( 'NONE',  #1026 ) ;
#69 = CARTESIAN_POINT ( 'NONE',  ( -37.00000000000000000, 60.00000000000000000, 13.00000000000000000 ) ) ;
#70 = CARTESIAN_POINT ( 'NONE',  ( 22.91287847477920181, 0.000000000000000000, 10.00000000000000000 ) ) ;
#71 = EDGE_LOOP ( 'NONE', ( #98, #438, #32, #901, #988, #1133, #406, #27, #751, #666, #955, #1137 ) ) ;
#72 = LINE ( 'NONE', #1001, #124 ) ;
#73 = EDGE_CURVE ( 'NONE', #1176, #657, #934, .T. ) ;
#74 = FACE_OUTER_BOUND ( 'NONE', #985, .T. ) ;
#75 = DIRECTION ( 'NONE',  ( 1.000000000000000000, 0.000000000000000000, 0.000000000000000000 ) ) ;
#76 = FACE_BOUND ( 'NONE', #1038, .T. ) ;
#77 = VERTEX_POINT ( 'NONE', #61 ) ;
#78 = DIRECTION ( 'NONE',  ( -0.000000000000000000, -0.000000000000000000, 1.000000000000000000 ) ) ;
#79 = CARTESIAN_POINT ( 'NONE',  ( 44.50000000000000711, 20.00000000000001421, -20.00000000000000000 ) ) ;
#80 = ADVANCED_FACE ( 'NONE', ( #436 ), #643, .F. ) ;
#81 = CLOSED_SHELL ( 'NONE', ( #835, #349, #292, #581, #923, #1155, #241, #176, #765, #198, #916, #264, #137, #80, #439, #966, #417, #615, #255, #1162, #1211, #366, #639, #779, #1113, #990, #386, #184, #817, #464, #842, #34, #604, #1034 ) ) ;
#82 = PLANE ( 'NONE',  #1126 ) ;
#83 = VECTOR ( 'NONE', #1022, 1000.000000000000000 ) ;
#84 = CARTESIAN_POINT ( 'NONE',  ( -57.00000000000000000, 60.00000000000000000, 13.00000000000000000 ) ) ;
#85 = ORIENTED_EDGE ( 'NONE', *, *, #854, .T. ) ;
#86 = CIRCLE ( 'NONE', #770, 15.00000000000000178 ) ;
#87 = CIRCLE ( 'NONE', #594, 25.00000000000000000 ) ;
#88 = VECTOR ( 'NONE', #637, 1000.000000000000000 ) ;
#89 = DIRECTION ( 'NONE',  ( 0.000000000000000000, 1.000000000000000000, 0.000000000000000000 ) ) ;
#90 = CARTESIAN_POINT ( 'NONE',  ( -37.00000000000000000, 60.00000000000000000, 13.00000000000000000 ) ) ;
#91 = CARTESIAN_POINT ( 'NONE',  ( 57.00000000000000711, 20.00000000000001421, -20.00000000000000000 ) ) ;
#92 = APPLICATION_PROTOCOL_DEFINITION ( 'international standard', 'config_control_design', 1994, #880 ) ;
#93 = ORIENTED_EDGE ( 'NONE', *, *, #752, .T. ) ;
#94 = DIRECTION ( 'NONE',  ( -0.000000000000000000, -1.000000000000000000, -0.000000000000000000 ) ) ;
#95 = CARTESIAN_POINT ( 'NONE',  ( 57.00000000000000711, 0.000000000000000000, -9.999999999999998224 ) ) ;
#96 = CYLINDRICAL_SURFACE ( 'NONE', #45, 20.00000000000000355 ) ;
#97 = EDGE_CURVE ( 'NONE', #1215, #967, #448, .T. ) ;
#98 = ORIENTED_EDGE ( 'NONE', *, *, #476, .F. ) ;
#99 = EDGE_CURVE ( 'NONE', #1107, #361, #720, .T. ) ;
#100 = CARTESIAN_POINT ( 'NONE',  ( 57.00000000000000711, 20.00000000000001421, -20.00000000000000000 ) ) ;
#101 = CARTESIAN_POINT ( 'NONE',  ( -37.00000000000000000, 60.00000000000000000, 13.00000000000000000 ) ) ;
#102 = ORIENTED_EDGE ( 'NONE', *, *, #606, .T. ) ;
#103 = AXIS2_PLACEMENT_3D ( 'NONE', #53, #1186, #445 ) ;
#104 = ORIENTED_EDGE ( 'NONE', *, *, #446, .T. ) ;
#105 = CIRCLE ( 'NONE', #911, 25.00000000000000000 ) ;
#106 = EDGE_CURVE ( 'NONE', #347, #186, #1117, .T. ) ;
#107 = CARTESIAN_POINT ( 'NONE',  ( 0.000000000000000000, 80.00000000000000000, 0.000000000000000000 ) ) ;
#108 = CARTESIAN_POINT ( 'NONE',  ( 0.000000000000000000, 80.00000000000000000, -25.00000000000000000 ) ) ;
#109 = VERTEX_POINT ( 'NONE', #547 ) ;
#110 = MANIFOLD_SOLID_BREP ( 'Nervio1', #81 ) ;
#111 = ORIENTED_EDGE ( 'NONE', *, *, #343, .T. ) ;
#112 = EDGE_CURVE ( 'NONE', #317, #925, #256, .T. ) ;
#113 = CARTESIAN_POINT ( 'NONE',  ( 37.00000000000009948, 20.00000000000000000, 20.00000000000000000 ) ) ;
#114 = UNCERTAINTY_MEASURE_WITH_UNIT (LENGTH_MEASURE( 1.000000000000000082E-05 ), #410, 'distance_accuracy_value', 'NONE');
#115 = CARTESIAN_POINT ( 'NONE',  ( 0.000000000000000000, 80.00000000000000000, 0.000000000000000000 ) ) ;
#116 = ORIENTED_EDGE ( 'NONE', *, *, #981, .F. ) ;
#117 = DIRECTION ( 'NONE',  ( -9.226584740096456705E-17, -0.000000000000000000, -1.000000000000000000 ) ) ;
#118 = COORDINATED_UNIVERSAL_TIME_OFFSET ( 1, 0, .AHEAD. ) ;
#119 = DIRECTION ( 'NONE',  ( 0.000000000000000000, 0.000000000000000000, -1.000000000000000000 ) ) ;
#120 = ORIENTED_EDGE ( 'NONE', *, *, #231, .F. ) ;
#121 = VERTEX_POINT ( 'NONE', #535 ) ;
#122 = AXIS2_PLACEMENT_3D ( 'NONE', #636, #276, #1102 ) ;
#123 = DIRECTION ( 'NONE',  ( -0.000000000000000000, -0.000000000000000000, 1.000000000000000000 ) ) ;
#124 = VECTOR ( 'NONE', #995, 1000.000000000000000 ) ;
#125 = AXIS2_PLACEMENT_3D ( 'NONE', #747, #741, #1120 ) ;
#126 = CALENDAR_DATE ( 2026, 12, 9 ) ;
#127 = DIRECTION ( 'NONE',  ( -0.000000000000000000, 1.000000000000000000, -0.000000000000000000 ) ) ;
#128 = EDGE_LOOP ( 'NONE', ( #20, #1053, #4, #498, #141 ) ) ;
#129 = EDGE_CURVE ( 'NONE', #860, #847, #147, .T. ) ;
#130 = VERTEX_POINT ( 'NONE', #173 ) ;
#131 = CARTESIAN_POINT ( 'NONE',  ( 0.000000000000000000, 0.000000000000000000, 0.000000000000000000 ) ) ;
#132 = PERSON_AND_ORGANIZATION ( #207, #1066 ) ;
#133 = CARTESIAN_POINT ( 'NONE',  ( -37.00000000000000000, 80.00000000000000000, 13.00000000000000000 ) ) ;
#134 = ORIENTED_EDGE ( 'NONE', *, *, #214, .T. ) ;
#135 = EDGE_CURVE ( 'NONE', #703, #728, #1208, .T. ) ;
#136 = VERTEX_POINT ( 'NONE', #541 ) ;
#137 = ADVANCED_FACE ( 'NONE', ( #743 ), #919, .T. ) ;
#138 = CARTESIAN_POINT ( 'NONE',  ( -37.00000000000000000, 80.00000000000000000, 13.00000000000000000 ) ) ;
#139 = LINE ( 'NONE', #133, #336 ) ;
#140 = ORIENTED_EDGE ( 'NONE', *, *, #129, .F. ) ;
#141 = ORIENTED_EDGE ( 'NONE', *, *, #50, .T. ) ;
#142 = CARTESIAN_POINT ( 'NONE',  ( -47.00000000000000000, 60.00000000000000000, -2.999999999999996447 ) ) ;
#143 = VECTOR ( 'NONE', #127, 1000.000000000000000 ) ;
#144 = AXIS2_PLACEMENT_3D ( 'NONE', #131, #586, #780 ) ;
#145 = FACE_OUTER_BOUND ( 'NONE', #579, .T. ) ;
#146 =( GEOMETRIC_REPRESENTATION_CONTEXT ( 3 ) GLOBAL_UNCERTAINTY_ASSIGNED_CONTEXT ( ( #114 ) ) GLOBAL_UNIT_ASSIGNED_CONTEXT ( ( #410, #1051, #841 ) ) REPRESENTATION_CONTEXT ( 'NONE', 'WORKASPACE' ) );
#147 = CIRCLE ( 'NONE', #806, 20.00000000000000355 ) ;
#148 = ORIENTED_EDGE ( 'NONE', *, *, #204, .F. ) ;
#149 = EDGE_LOOP ( 'NONE', ( #1059, #463, #617, #341, #691, #598, #1019 ) ) ;
#150 = CYLINDRICAL_SURFACE ( 'NONE', #1128, 25.00000000000000000 ) ;
#151 = EDGE_CURVE ( 'NONE', #121, #783, #359, .T. ) ;
#152 = DIRECTION ( 'NONE',  ( 0.000000000000000000, 0.000000000000000000, -1.000000000000000000 ) ) ;
#153 = ORIENTED_EDGE ( 'NONE', *, *, #314, .F. ) ;
#154 = DIRECTION ( 'NONE',  ( -0.000000000000000000, -0.000000000000000000, -1.000000000000000000 ) ) ;
#155 = ORIENTED_EDGE ( 'NONE', *, *, #469, .T. ) ;
#156 = DIRECTION ( 'NONE',  ( 1.000000000000000000, 0.000000000000000000, 0.000000000000000000 ) ) ;
#157 = DIRECTION ( 'NONE',  ( 1.000000000000000000, -0.000000000000000000, -1.845316948019291094E-16 ) ) ;
#158 = ORIENTED_EDGE ( 'NONE', *, *, #697, .F. ) ;
#159 = EDGE_CURVE ( 'NONE', #317, #668, #846, .T. ) ;
#160 = CARTESIAN_POINT ( 'NONE',  ( -37.00000000000000000, 60.00000000000000000, 13.00000000000000000 ) ) ;
#161 = ORIENTED_EDGE ( 'NONE', *, *, #135, .T. ) ;
#162 = DIRECTION ( 'NONE',  ( 0.000000000000000000, 1.000000000000000000, 0.000000000000000000 ) ) ;
#163 = DIRECTION ( 'NONE',  ( 1.845316948019291341E-16, 0.000000000000000000, 1.000000000000000000 ) ) ;
#164 = AXIS2_PLACEMENT_3D ( 'NONE', #951, #1134, #558 ) ;
#165 = CIRCLE ( 'NONE', #415, 19.99999999999990763 ) ;
#166 = LINE ( 'NONE', #339, #768 ) ;
#167 = VECTOR ( 'NONE', #1189, 1000.000000000000000 ) ;
#168 = LINE ( 'NONE', #536, #758 ) ;
#169 = EDGE_CURVE ( 'NONE', #222, #605, #928, .T. ) ;
#170 = ORIENTED_EDGE ( 'NONE', *, *, #884, .T. ) ;
#171 = CARTESIAN_POINT ( 'NONE',  ( -47.00000000000000000, 60.00000000000000000, -13.00000000000000000 ) ) ;
#172 = CARTESIAN_POINT ( 'NONE',  ( 57.00000000000000711, 20.00000000000001421, 20.00000000000000000 ) ) ;
#173 = CARTESIAN_POINT ( 'NONE',  ( -37.00000000000000000, 80.00000000000000000, -2.999999999999997335 ) ) ;
#174 = CARTESIAN_POINT ( 'NONE',  ( -37.00000000000000000, 60.00000000000000000, 13.00000000000000000 ) ) ;
#175 = EDGE_LOOP ( 'NONE', ( #1069, #673, #610, #954 ) ) ;
#176 = ADVANCED_FACE ( 'NONE', ( #382 ), #478, .T. ) ;
#177 = DIRECTION ( 'NONE',  ( 0.000000000000000000, 0.000000000000000000, -1.000000000000000000 ) ) ;
#178 = CC_DESIGN_PERSON_AND_ORGANIZATION_ASSIGNMENT ( #682, #1146, ( #388 ) ) ;
#179 = DIRECTION ( 'NONE',  ( -0.000000000000000000, -0.000000000000000000, 1.000000000000000000 ) ) ;
#180 = CARTESIAN_POINT ( 'NONE',  ( -24.81934729198171397, 39.99999999999999289, -2.999999999999997780 ) ) ;
#181 = CARTESIAN_POINT ( 'NONE',  ( -37.00000000000000000, 60.00000000000000000, -2.999999999999997335 ) ) ;
#182 = ORIENTED_EDGE ( 'NONE', *, *, #305, .F. ) ;
#183 = DIRECTION ( 'NONE',  ( 1.000000000000000000, 0.000000000000000000, -1.845316948019291587E-16 ) ) ;
#184 = ADVANCED_FACE ( 'NONE', ( #200 ), #197, .F. ) ;
#185 = LINE ( 'NONE', #477, #1179 ) ;
#186 = VERTEX_POINT ( 'NONE', #467 ) ;
#187 = VECTOR ( 'NONE', #767, 1000.000000000000000 ) ;
#188 = ORIENTED_EDGE ( 'NONE', *, *, #504, .T. ) ;
#189 = VECTOR ( 'NONE', #56, 1000.000000000000000 ) ;
#190 = CARTESIAN_POINT ( 'NONE',  ( -37.00000000000000000, 39.99999999999999289, 3.000000000000004441 ) ) ;
#191 = CARTESIAN_POINT ( 'NONE',  ( 0.000000000000000000, 0.000000000000000000, 0.000000000000000000 ) ) ;
#192 = EDGE_CURVE ( 'NONE', #867, #967, #938, .T. ) ;
#193 = CARTESIAN_POINT ( 'NONE',  ( 0.000000000000000000, 80.00000000000000000, 0.000000000000000000 ) ) ;
#194 = COORDINATED_UNIVERSAL_TIME_OFFSET ( 1, 0, .AHEAD. ) ;
#195 = ORIENTED_EDGE ( 'NONE', *, *, #1089, .T. ) ;
#196 = FACE_OUTER_BOUND ( 'NONE', #979, .T. ) ;
#197 = PLANE ( 'NONE',  #589 ) ;
#198 = ADVANCED_FACE ( 'NONE', ( #1033 ), #96, .T. ) ;
#199 = FACE_OUTER_BOUND ( 'NONE', #1140, .T. ) ;
#200 = FACE_OUTER_BOUND ( 'NONE', #709, .T. ) ;
#201 = AXIS2_PLACEMENT_3D ( 'NONE', #351, #813, #271 ) ;
#202 = EDGE_LOOP ( 'NONE', ( #522, #543, #994 ) ) ;
#203 = VECTOR ( 'NONE', #983, 1000.000000000000000 ) ;
#204 = EDGE_CURVE ( 'NONE', #109, #827, #563, .T. ) ;
#205 = CIRCLE ( 'NONE', #756, 10.00000000000000178 ) ;
#206 = ORIENTED_EDGE ( 'NONE', *, *, #280, .T. ) ;
#207 = PERSON ( 'UNSPECIFIED', 'UNSPECIFIED', 'UNSPECIFIED', ('UNSPECIFIED'), ('UNSPECIFIED'), ('UNSPECIFIED') ) ;
#208 = VECTOR ( 'NONE', #1098, 1000.000000000000000 ) ;
#209 = DIRECTION ( 'NONE',  ( 0.000000000000000000, 1.000000000000000000, 0.000000000000000000 ) ) ;
#210 = DIRECTION ( 'NONE',  ( 0.000000000000000000, 1.000000000000000000, 0.000000000000000000 ) ) ;
#211 = ORIENTED_EDGE ( 'NONE', *, *, #519, .T. ) ;
#212 = VERTEX_POINT ( 'NONE', #8 ) ;
#213 = DIRECTION ( 'NONE',  ( 1.000000000000000000, 0.000000000000000000, -0.000000000000000000 ) ) ;
#214 = EDGE_CURVE ( 'NONE', #668, #520, #1199, .T. ) ;
#215 = DIRECTION ( 'NONE',  ( -0.000000000000000000, -1.000000000000000000, -0.000000000000000000 ) ) ;
#216 = ORIENTED_EDGE ( 'NONE', *, *, #1175, .T. ) ;
#217 = DIRECTION ( 'NONE',  ( 1.000000000000000000, 0.000000000000000000, 0.000000000000000000 ) ) ;
#218 = PERSON_AND_ORGANIZATION ( #207, #1066 ) ;
#219 = EDGE_CURVE ( 'NONE', #992, #970, #1136, .T. ) ;
#220 = DIRECTION ( 'NONE',  ( 0.000000000000000000, -0.000000000000000000, 1.000000000000000000 ) ) ;
#221 = ORIENTED_EDGE ( 'NONE', *, *, #497, .T. ) ;
#222 = VERTEX_POINT ( 'NONE', #859 ) ;
#223 = VECTOR ( 'NONE', #1173, 1000.000000000000000 ) ;
#224 = AXIS2_PLACEMENT_3D ( 'NONE', #1191, #523, #269 ) ;
#225 = DIRECTION ( 'NONE',  ( -1.000000000000000000, -0.000000000000000000, -0.000000000000000000 ) ) ;
#226 = CIRCLE ( 'NONE', #555, 19.99999999999990763 ) ;
#227 = CALENDAR_DATE ( 2026, 12, 9 ) ;
#228 = CARTESIAN_POINT ( 'NONE',  ( 22.91287847477920181, 80.00000000000000000, 10.00000000000000000 ) ) ;
#229 = EDGE_CURVE ( 'NONE', #1180, #516, #890, .T. ) ;
#230 = ORIENTED_EDGE ( 'NONE', *, *, #1185, .T. ) ;
#231 = EDGE_CURVE ( 'NONE', #603, #771, #832, .T. ) ;
#232 = VERTEX_POINT ( 'NONE', #959 ) ;
#233 = LINE ( 'NONE', #330, #62 ) ;
#234 = DIRECTION ( 'NONE',  ( -0.000000000000000000, -0.000000000000000000, -1.000000000000000000 ) ) ;
#235 = ORIENTED_EDGE ( 'NONE', *, *, #43, .T. ) ;
#236 = ORIENTED_EDGE ( 'NONE', *, *, #424, .T. ) ;
#237 = CARTESIAN_POINT ( 'NONE',  ( -37.00000000000000000, 60.00000000000000000, -13.00000000000000000 ) ) ;
#238 = CARTESIAN_POINT ( 'NONE',  ( 3.061616997868383043E-15, 0.000000000000000000, 25.00000000000000000 ) ) ;
#239 = ORIENTED_EDGE ( 'NONE', *, *, #1055, .F. ) ;
#240 = EDGE_LOOP ( 'NONE', ( #567, #13, #425, #1119 ) ) ;
#241 = ADVANCED_FACE ( 'NONE', ( #370 ), #1052, .T. ) ;
#242 = VECTOR ( 'NONE', #1091, 1000.000000000000000 ) ;
#243 = FACE_OUTER_BOUND ( 'NONE', #650, .T. ) ;
#244 = AXIS2_PLACEMENT_3D ( 'NONE', #1206, #78, #1094 ) ;
#245 = FACE_OUTER_BOUND ( 'NONE', #390, .T. ) ;
#246 = AXIS2_PLACEMENT_3D ( 'NONE', #721, #738, #814 ) ;
#247 = DIRECTION ( 'NONE',  ( -0.000000000000000000, -0.000000000000000000, -1.000000000000000000 ) ) ;
#248 = ORIENTED_EDGE ( 'NONE', *, *, #43, .F. ) ;
#249 = CARTESIAN_POINT ( 'NONE',  ( -21.35415650406262600, 39.99999999999999289, -12.99999999999999645 ) ) ;
#250 = DIRECTION ( 'NONE',  ( -1.000000000000000000, -0.000000000000000000, -0.000000000000000000 ) ) ;
#251 = DIRECTION ( 'NONE',  ( 1.000000000000000000, 0.000000000000000000, 0.000000000000000000 ) ) ;
#252 = ORIENTED_EDGE ( 'NONE', *, *, #746, .T. ) ;
#253 = CARTESIAN_POINT ( 'NONE',  ( 3.061616997868383043E-15, 80.00000000000000000, 25.00000000000000000 ) ) ;
#254 = LINE ( 'NONE', #713, #530 ) ;
#255 = ADVANCED_FACE ( 'NONE', ( #1132, #288 ), #17, .T. ) ;
#256 = LINE ( 'NONE', #628, #863 ) ;
#257 = CARTESIAN_POINT ( 'NONE',  ( -37.00000000000000000, 60.00000000000000000, -13.00000000000000000 ) ) ;
#258 = ORIENTED_EDGE ( 'NONE', *, *, #1148, .T. ) ;
#259 = CARTESIAN_POINT ( 'NONE',  ( 57.00000000000000711, 20.00000000000001421, 20.00000000000000000 ) ) ;
#260 = PLANE ( 'NONE',  #122 ) ;
#261 = AXIS2_PLACEMENT_3D ( 'NONE', #315, #865, #1065 ) ;
#262 = AXIS2_PLACEMENT_3D ( 'NONE', #712, #633, #1015 ) ;
#263 = CARTESIAN_POINT ( 'NONE',  ( -47.00000000000000000, 60.00000000000000000, 13.00000000000000000 ) ) ;
#264 = ADVANCED_FACE ( 'NONE', ( #1047 ), #578, .F. ) ;
#265 = CC_DESIGN_SECURITY_CLASSIFICATION ( #772, ( #987 ) ) ;
#266 = DIRECTION ( 'NONE',  ( -1.000000000000000000, 0.000000000000000000, 9.226584740096457937E-17 ) ) ;
#267 = ORIENTED_EDGE ( 'NONE', *, *, #97, .T. ) ;
#268 = EDGE_CURVE ( 'NONE', #1000, #759, #591, .T. ) ;
#269 = DIRECTION ( 'NONE',  ( 0.000000000000000000, 0.000000000000000000, 1.000000000000000000 ) ) ;
#270 = CARTESIAN_POINT ( 'NONE',  ( 44.99999999999998579, 40.00000000000000000, 10.00000000000000000 ) ) ;
#271 = DIRECTION ( 'NONE',  ( 0.000000000000000000, -0.000000000000000000, 1.000000000000000000 ) ) ;
#272 = CARTESIAN_POINT ( 'NONE',  ( -37.00000000000000000, 39.99999999999999289, 13.00000000000000000 ) ) ;
#273 = EDGE_LOOP ( 'NONE', ( #1174, #37, #760, #1100 ) ) ;
#274 = EDGE_CURVE ( 'NONE', #367, #925, #782, .T. ) ;
#275 = DIRECTION ( 'NONE',  ( 0.000000000000000000, 0.000000000000000000, 1.000000000000000000 ) ) ;
#276 = DIRECTION ( 'NONE',  ( 0.000000000000000000, 1.000000000000000000, 0.000000000000000000 ) ) ;
#277 = ORIENTED_EDGE ( 'NONE', *, *, #18, .F. ) ;
#278 = EDGE_LOOP ( 'NONE', ( #915, #221, #104, #707 ) ) ;
#279 = DIRECTION ( 'NONE',  ( 1.000000000000000000, 0.000000000000000000, 0.000000000000000000 ) ) ;
#280 = EDGE_CURVE ( 'NONE', #136, #783, #1168, .T. ) ;
#281 = DIRECTION ( 'NONE',  ( 0.000000000000000000, 1.000000000000000000, 0.000000000000000000 ) ) ;
#282 = DIRECTION ( 'NONE',  ( 1.000000000000000000, 0.000000000000000000, 0.000000000000000000 ) ) ;
#283 = CIRCLE ( 'NONE', #1084, 20.00000000000000355 ) ;
#284 = DATE_TIME_ROLE ( 'creation_date' ) ;
#285 = VERTEX_POINT ( 'NONE', #973 ) ;
#286 = AXIS2_PLACEMENT_3D ( 'NONE', #836, #744, #906 ) ;
#287 = CARTESIAN_POINT ( 'NONE',  ( 25.17066629700540403, 74.70133398024056248, -1.689422172934054611 ) ) ;
#288 = FACE_OUTER_BOUND ( 'NONE', #128, .T. ) ;
#289 = ORIENTED_EDGE ( 'NONE', *, *, #268, .T. ) ;
#290 = DIRECTION ( 'NONE',  ( 1.000000000000000000, 0.000000000000000000, 0.000000000000000000 ) ) ;
#291 = DIRECTION ( 'NONE',  ( 0.000000000000000000, 0.000000000000000000, 1.000000000000000000 ) ) ;
#292 = ADVANCED_FACE ( 'NONE', ( #245 ), #683, .F. ) ;
#293 = DIRECTION ( 'NONE',  ( 0.000000000000000000, 1.000000000000000000, 0.000000000000000000 ) ) ;
#294 = DIRECTION ( 'NONE',  ( -0.000000000000000000, -1.000000000000000000, -0.000000000000000000 ) ) ;
#295 = ORIENTED_EDGE ( 'NONE', *, *, #135, .F. ) ;
#296 = AXIS2_PLACEMENT_3D ( 'NONE', #736, #1110, #546 ) ;
#297 = ORIENTED_EDGE ( 'NONE', *, *, #943, .T. ) ;
#298 = APPROVAL_PERSON_ORGANIZATION ( #583, #969, #777 ) ;
#299 = AXIS2_PLACEMENT_3D ( 'NONE', #762, #291, #483 ) ;
#300 = CARTESIAN_POINT ( 'NONE',  ( -37.00000000000000000, 60.00000000000000000, -13.00000000000000000 ) ) ;
#301 = CARTESIAN_POINT ( 'NONE',  ( 0.000000000000000000, 0.000000000000000000, 0.000000000000000000 ) ) ;
#302 = DIRECTION ( 'NONE',  ( 1.000000000000000000, 0.000000000000000000, -0.000000000000000000 ) ) ;
#303 = EDGE_LOOP ( 'NONE', ( #310, #891, #327, #575, #856, #998 ) ) ;
#304 = VERTEX_POINT ( 'NONE', #602 ) ;
#305 = EDGE_CURVE ( 'NONE', #361, #668, #978, .T. ) ;
#306 = FACE_OUTER_BOUND ( 'NONE', #278, .T. ) ;
#307 = DATE_AND_TIME ( #1063, #1183 ) ;
#308 = DIRECTION ( 'NONE',  ( 0.000000000000000000, 0.000000000000000000, 1.000000000000000000 ) ) ;
#309 = EDGE_LOOP ( 'NONE', ( #515, #528, #206, #211 ) ) ;
#310 = ORIENTED_EDGE ( 'NONE', *, *, #566, .F. ) ;
#311 = EDGE_CURVE ( 'NONE', #976, #367, #495, .T. ) ;
#312 = DIRECTION ( 'NONE',  ( -0.000000000000000000, 1.000000000000000000, -0.000000000000000000 ) ) ;
#313 = DATE_AND_TIME ( #878, #1085 ) ;
#314 = EDGE_CURVE ( 'NONE', #479, #992, #411, .T. ) ;
#315 = CARTESIAN_POINT ( 'NONE',  ( 57.00000000000000000, 20.00000000000000000, 10.00000000000000000 ) ) ;
#316 = EDGE_LOOP ( 'NONE', ( #384, #33 ) ) ;
#317 = VERTEX_POINT ( 'NONE', #331 ) ;
#318 = CIRCLE ( 'NONE', #1105, 20.00000000000000355 ) ;
#319 = CIRCLE ( 'NONE', #144, 25.00000000000000000 ) ;
#320 = FACE_OUTER_BOUND ( 'NONE', #1152, .T. ) ;
#321 = APPROVAL_PERSON_ORGANIZATION ( #132, #1170, #500 ) ;
#322 = DIRECTION ( 'NONE',  ( -0.000000000000000000, -0.000000000000000000, -1.000000000000000000 ) ) ;
#323 = ORIENTED_EDGE ( 'NONE', *, *, #907, .F. ) ;
#324 = ORIENTED_EDGE ( 'NONE', *, *, #380, .T. ) ;
#325 = DIRECTION ( 'NONE',  ( 0.000000000000000000, 0.000000000000000000, 1.000000000000000000 ) ) ;
#326 = DIRECTION ( 'NONE',  ( -9.226584740096456705E-17, -0.000000000000000000, -1.000000000000000000 ) ) ;
#327 = ORIENTED_EDGE ( 'NONE', *, *, #774, .T. ) ;
#328 = EDGE_CURVE ( 'NONE', #1107, #468, #778, .T. ) ;
#329 = ORIENTED_EDGE ( 'NONE', *, *, #50, .F. ) ;
#330 = CARTESIAN_POINT ( 'NONE',  ( -37.00000000000000000, 80.00000000000000000, -13.00000000000000000 ) ) ;
#331 = CARTESIAN_POINT ( 'NONE',  ( 22.91287847477920181, 0.000000000000000000, -10.00000000000000000 ) ) ;
#332 = VERTEX_POINT ( 'NONE', #238 ) ;
#333 = ORIENTED_EDGE ( 'NONE', *, *, #274, .F. ) ;
#334 = EDGE_CURVE ( 'NONE', #130, #77, #139, .T. ) ;
#335 = DIRECTION ( 'NONE',  ( -0.000000000000000000, -1.000000000000000000, -0.000000000000000000 ) ) ;
#336 = VECTOR ( 'NONE', #1151, 1000.000000000000000 ) ;
#337 = AXIS2_PLACEMENT_3D ( 'NONE', #705, #66, #612 ) ;
#338 = LINE ( 'NONE', #518, #945 ) ;
#339 = CARTESIAN_POINT ( 'NONE',  ( -37.00000000000000000, 39.99999999999999289, 13.00000000000000000 ) ) ;
#340 = FACE_OUTER_BOUND ( 'NONE', #57, .T. ) ;
#341 = ORIENTED_EDGE ( 'NONE', *, *, #646, .F. ) ;
#342 = CARTESIAN_POINT ( 'NONE',  ( 24.49489742783178414, 80.00000000000000000, 5.000000000000000000 ) ) ;
#343 = EDGE_CURVE ( 'NONE', #353, #908, #1005, .T. ) ;
#344 = CARTESIAN_POINT ( 'NONE',  ( 22.91287847477920181, 40.00000000000000000, 10.00000000000000000 ) ) ;
#345 = LINE ( 'NONE', #525, #88 ) ;
#346 = PLANE ( 'NONE',  #932 ) ;
#347 = VERTEX_POINT ( 'NONE', #501 ) ;
#348 = FACE_OUTER_BOUND ( 'NONE', #273, .T. ) ;
#349 = ADVANCED_FACE ( 'NONE', ( #145 ), #506, .T. ) ;
#350 = LINE ( 'NONE', #270, #887 ) ;
#351 = CARTESIAN_POINT ( 'NONE',  ( -37.00000000000000000, 39.99999999999999289, 13.00000000000000000 ) ) ;
#352 = CARTESIAN_POINT ( 'NONE',  ( -21.35415650406262245, 80.00000000000000000, 13.00000000000000000 ) ) ;
#353 = VERTEX_POINT ( 'NONE', #788 ) ;
#354 = DIRECTION ( 'NONE',  ( -0.000000000000000000, 1.000000000000000000, -0.000000000000000000 ) ) ;
#355 = DIRECTION ( 'NONE',  ( -1.000000000000000000, 0.000000000000000000, 0.000000000000000000 ) ) ;
#356 = AXIS2_PLACEMENT_3D ( 'NONE', #679, #326, #1080 ) ;
#357 = AXIS2_PLACEMENT_3D ( 'NONE', #1056, #123, #403 ) ;
#358 = LINE ( 'NONE', #1103, #886 ) ;
#359 = CIRCLE ( 'NONE', #1025, 15.00000000000000178 ) ;
#360 = CARTESIAN_POINT ( 'NONE',  ( -37.00000000000000000, 39.99999999999999289, -13.00000000000000000 ) ) ;
#361 = VERTEX_POINT ( 'NONE', #1163 ) ;
#362 = LINE ( 'NONE', #936, #1144 ) ;
#363 = CARTESIAN_POINT ( 'NONE',  ( -14.69693845669906906, 80.00000000000000000, 3.000000000000000000 ) ) ;
#364 = DIRECTION ( 'NONE',  ( -1.000000000000000000, 0.000000000000000000, 0.000000000000000000 ) ) ;
#365 = CYLINDRICAL_SURFACE ( 'NONE', #1068, 20.00000000000000355 ) ;
#366 = ADVANCED_FACE ( 'NONE', ( #706 ), #696, .F. ) ;
#367 = VERTEX_POINT ( 'NONE', #44 ) ;
#368 = DIRECTION ( 'NONE',  ( 0.000000000000000000, 0.000000000000000000, 1.000000000000000000 ) ) ;
#369 = CARTESIAN_POINT ( 'NONE',  ( -37.00000000000000000, 60.00000000000000000, -2.999999999999997335 ) ) ;
#370 = FACE_OUTER_BOUND ( 'NONE', #561, .T. ) ;
#371 = MECHANICAL_CONTEXT ( 'NONE', #880, 'mechanical' ) ;
#372 = EDGE_LOOP ( 'NONE', ( #480, #267, #590, #216 ) ) ;
#373 = CYLINDRICAL_SURFACE ( 'NONE', #964, 10.00000000000000178 ) ;
#374 = VECTOR ( 'NONE', #1178, 1000.000000000000000 ) ;
#375 = CARTESIAN_POINT ( 'NONE',  ( 0.000000000000000000, 80.00000000000000000, 0.000000000000000000 ) ) ;
#376 = ORIENTED_EDGE ( 'NONE', *, *, #73, .T. ) ;
#377 = VECTOR ( 'NONE', #1018, 1000.000000000000000 ) ;
#378 = CIRCLE ( 'NONE', #286, 10.00000000000000178 ) ;
#379 = ORIENTED_EDGE ( 'NONE', *, *, #469, .F. ) ;
#380 = EDGE_CURVE ( 'NONE', #925, #992, #1161, .T. ) ;
#381 = FACE_OUTER_BOUND ( 'NONE', #309, .T. ) ;
#382 = FACE_OUTER_BOUND ( 'NONE', #303, .T. ) ;
#383 = VERTEX_POINT ( 'NONE', #872 ) ;
#384 = ORIENTED_EDGE ( 'NONE', *, *, #1049, .F. ) ;
#385 = DIRECTION ( 'NONE',  ( 0.000000000000000000, 0.000000000000000000, 1.000000000000000000 ) ) ;
#386 = ADVANCED_FACE ( 'NONE', ( #31 ), #405, .T. ) ;
#387 = DIRECTION ( 'NONE',  ( 0.000000000000000000, 0.000000000000000000, 1.000000000000000000 ) ) ;
#388 = PRODUCT_DEFINITION ( 'UNKNOWN', '', #987, #664 ) ;
#389 = ORIENTED_EDGE ( 'NONE', *, *, #606, .F. ) ;
#390 = EDGE_LOOP ( 'NONE', ( #837, #376, #170, #1067 ) ) ;
#391 = CARTESIAN_POINT ( 'NONE',  ( -14.69693845669906906, 0.000000000000000000, -2.999999999999999556 ) ) ;
#392 = APPLICATION_CONTEXT ( 'configuration controlled 3d designs of mechanical parts and assemblies' ) ;
#393 = APPROVAL_STATUS ( 'not_yet_approved' ) ;
#394 = DIRECTION ( 'NONE',  ( 0.000000000000000000, 0.000000000000000000, 1.000000000000000000 ) ) ;
#395 = VECTOR ( 'NONE', #851, 1000.000000000000000 ) ;
#396 = CIRCLE ( 'NONE', #1201, 19.99999999999990763 ) ;
#397 = EDGE_LOOP ( 'NONE', ( #1210, #235, #379, #1054 ) ) ;
#398 = FACE_BOUND ( 'NONE', #805, .T. ) ;
#399 = CARTESIAN_POINT ( 'NONE',  ( 21.23779144359532012, 40.00000000000000000, -4.999999999999999112 ) ) ;
#400 = EDGE_LOOP ( 'NONE', ( #503, #861, #9, #102 ) ) ;
#401 = EDGE_CURVE ( 'NONE', #759, #908, #597, .T. ) ;
#402 = ORIENTED_EDGE ( 'NONE', *, *, #545, .T. ) ;
#403 = DIRECTION ( 'NONE',  ( 1.000000000000000000, 0.000000000000000000, 0.000000000000000000 ) ) ;
#404 = COORDINATED_UNIVERSAL_TIME_OFFSET ( 1, 0, .AHEAD. ) ;
#405 = CYLINDRICAL_SURFACE ( 'NONE', #261, 19.99999999999999645 ) ;
#406 = ORIENTED_EDGE ( 'NONE', *, *, #801, .F. ) ;
#407 = ORIENTED_EDGE ( 'NONE', *, *, #823, .F. ) ;
#408 = DIRECTION ( 'NONE',  ( 0.000000000000000000, 0.000000000000000000, 1.000000000000000000 ) ) ;
#409 = EDGE_CURVE ( 'NONE', #1165, #1215, #49, .T. ) ;
#410 =( LENGTH_UNIT ( ) NAMED_UNIT ( * ) SI_UNIT ( .MILLI., .METRE. ) );
#411 = LINE ( 'NONE', #399, #471 ) ;
#412 = ORIENTED_EDGE ( 'NONE', *, *, #874, .T. ) ;
#413 = ORIENTED_EDGE ( 'NONE', *, *, #545, .F. ) ;
#414 = CIRCLE ( 'NONE', #984, 25.00000000000000000 ) ;
#415 = AXIS2_PLACEMENT_3D ( 'NONE', #857, #466, #845 ) ;
#416 = FACE_BOUND ( 'NONE', #1184, .T. ) ;
#417 = ADVANCED_FACE ( 'NONE', ( #1011 ), #260, .T. ) ;
#418 = DIRECTION ( 'NONE',  ( 0.000000000000000000, 0.000000000000000000, 1.000000000000000000 ) ) ;
#419 = ORIENTED_EDGE ( 'NONE', *, *, #526, .T. ) ;
#420 = ORIENTED_EDGE ( 'NONE', *, *, #192, .T. ) ;
#421 = DIRECTION ( 'NONE',  ( 0.000000000000000000, 0.000000000000000000, 1.000000000000000000 ) ) ;
#422 = CARTESIAN_POINT ( 'NONE',  ( -37.00000000000000000, 39.99999999999999289, 13.00000000000000000 ) ) ;
#423 = ORIENTED_EDGE ( 'NONE', *, *, #1073, .F. ) ;
#424 = EDGE_CURVE ( 'NONE', #361, #232, #396, .T. ) ;
#425 = ORIENTED_EDGE ( 'NONE', *, *, #697, .T. ) ;
#426 = FACE_OUTER_BOUND ( 'NONE', #766, .T. ) ;
#427 = CARTESIAN_POINT ( 'NONE',  ( 0.000000000000000000, 80.00000000000000000, 0.000000000000000000 ) ) ;
#428 = ORIENTED_EDGE ( 'NONE', *, *, #1021, .F. ) ;
#429 = FACE_BOUND ( 'NONE', #507, .T. ) ;
#430 = EDGE_CURVE ( 'NONE', #520, #603, #1192, .T. ) ;
#431 = ORIENTED_EDGE ( 'NONE', *, *, #430, .T. ) ;
#432 = DIRECTION ( 'NONE',  ( 1.000000000000000000, 0.000000000000000000, -1.951563910473907735E-16 ) ) ;
#433 = AXIS2_PLACEMENT_3D ( 'NONE', #1075, #408, #892 ) ;
#434 = DIRECTION ( 'NONE',  ( 0.000000000000000000, -1.000000000000000000, 0.000000000000000000 ) ) ;
#435 = CIRCLE ( 'NONE', #613, 25.00000000000000000 ) ;
#436 = FACE_OUTER_BOUND ( 'NONE', #980, .T. ) ;
#437 = DIRECTION ( 'NONE',  ( 1.000000000000000000, -8.673617379884075901E-16, 0.000000000000000000 ) ) ;
#438 = ORIENTED_EDGE ( 'NONE', *, *, #884, .F. ) ;
#439 = ADVANCED_FACE ( 'NONE', ( #74 ), #452, .F. ) ;
#440 = CYLINDRICAL_SURFACE ( 'NONE', #244, 12.49999999999999645 ) ;
#441 = DIRECTION ( 'NONE',  ( 0.000000000000000000, 0.000000000000000000, 1.000000000000000000 ) ) ;
#442 = DIRECTION ( 'NONE',  ( 0.000000000000000000, 0.000000000000000000, 1.000000000000000000 ) ) ;
#443 = CARTESIAN_POINT ( 'NONE',  ( 69.50000000000000000, 20.00000000000001421, -20.00000000000000000 ) ) ;
#444 = ORIENTED_EDGE ( 'NONE', *, *, #169, .T. ) ;
#445 = DIRECTION ( 'NONE',  ( 1.000000000000000000, 0.000000000000000000, -0.000000000000000000 ) ) ;
#446 = EDGE_CURVE ( 'NONE', #1203, #661, #670, .T. ) ;
#447 = DIRECTION ( 'NONE',  ( 1.000000000000000000, 8.673617379884075901E-16, 0.000000000000000000 ) ) ;
#448 = LINE ( 'NONE', #623, #508 ) ;
#449 = PLANE ( 'NONE',  #246 ) ;
#450 = ORIENTED_EDGE ( 'NONE', *, *, #311, .F. ) ;
#451 = CARTESIAN_POINT ( 'NONE',  ( 0.000000000000000000, 0.000000000000000000, 0.000000000000000000 ) ) ;
#452 = CYLINDRICAL_SURFACE ( 'NONE', #1141, 10.00000000000000178 ) ;
#453 = AXIS2_PLACEMENT_3D ( 'NONE', #991, #322, #1058 ) ;
#454 = EDGE_CURVE ( 'NONE', #222, #771, #719, .T. ) ;
#455 = DIRECTION ( 'NONE',  ( 0.4961389383568334255, -0.8682431421244594105, 0.000000000000000000 ) ) ;
#456 = APPROVAL_PERSON_ORGANIZATION ( #1156, #785, #957 ) ;
#457 = AXIS2_PLACEMENT_3D ( 'NONE', #825, #1036, #1029 ) ;
#458 = CYLINDRICAL_SURFACE ( 'NONE', #64, 20.00000000000000355 ) ;
#459 = ORIENTED_EDGE ( 'NONE', *, *, #231, .T. ) ;
#460 = DIRECTION ( 'NONE',  ( 0.000000000000000000, 1.000000000000000000, 0.000000000000000000 ) ) ;
#461 = DIRECTION ( 'NONE',  ( -0.000000000000000000, -0.000000000000000000, -1.000000000000000000 ) ) ;
#462 = DIRECTION ( 'NONE',  ( -0.000000000000000000, -0.000000000000000000, -1.000000000000000000 ) ) ;
#463 = ORIENTED_EDGE ( 'NONE', *, *, #710, .T. ) ;
#464 = ADVANCED_FACE ( 'NONE', ( #996, #833 ), #68, .T. ) ;
#465 = CARTESIAN_POINT ( 'NONE',  ( -47.00000000000000000, 60.00000000000000000, 3.000000000000006217 ) ) ;
#466 = DIRECTION ( 'NONE',  ( -0.000000000000000000, -0.000000000000000000, -1.000000000000000000 ) ) ;
#467 = CARTESIAN_POINT ( 'NONE',  ( -24.81934729198171397, 0.000000000000000000, 3.000000000000001776 ) ) ;
#468 = VERTEX_POINT ( 'NONE', #344 ) ;
#469 = EDGE_CURVE ( 'NONE', #479, #703, #350, .T. ) ;
#470 = DIRECTION ( 'NONE',  ( 1.000000000000000000, 0.000000000000000000, 0.000000000000000000 ) ) ;
#471 = VECTOR ( 'NONE', #1157, 1000.000000000000000 ) ;
#472 = DIRECTION ( 'NONE',  ( 0.000000000000000000, 0.000000000000000000, 1.000000000000000000 ) ) ;
#473 = CIRCLE ( 'NONE', #224, 15.00000000000000178 ) ;
#474 = ORIENTED_EDGE ( 'NONE', *, *, #599, .T. ) ;
#475 = AXIS2_PLACEMENT_3D ( 'NONE', #301, #781, #687 ) ;
#476 = EDGE_CURVE ( 'NONE', #580, #130, #627, .T. ) ;
#477 = CARTESIAN_POINT ( 'NONE',  ( -14.69693845669906906, 0.000000000000000000, 3.000000000000000000 ) ) ;
#478 = CYLINDRICAL_SURFACE ( 'NONE', #1041, 25.00000000000000000 ) ;
#479 = VERTEX_POINT ( 'NONE', #1090 ) ;
#480 = ORIENTED_EDGE ( 'NONE', *, *, #409, .T. ) ;
#481 = CARTESIAN_POINT ( 'NONE',  ( 69.50000000000000000, 20.00000000000001421, 20.00000000000000000 ) ) ;
#482 = SECURITY_CLASSIFICATION_LEVEL ( 'unclassified' ) ;
#483 = DIRECTION ( 'NONE',  ( 1.000000000000000000, 0.000000000000000000, 0.000000000000000000 ) ) ;
#484 = ORIENTED_EDGE ( 'NONE', *, *, #1095, .T. ) ;
#485 = FACE_OUTER_BOUND ( 'NONE', #808, .T. ) ;
#486 = APPROVAL_DATE_TIME ( #858, #785 ) ;
#487 = DIRECTION ( 'NONE',  ( 0.000000000000000000, -0.000000000000000000, -1.000000000000000000 ) ) ;
#488 = EDGE_CURVE ( 'NONE', #1040, #631, #1082, .T. ) ;
#489 = VERTEX_POINT ( 'NONE', #918 ) ;
#490 = CIRCLE ( 'NONE', #296, 15.00000000000000178 ) ;
#491 = AXIS2_PLACEMENT_3D ( 'NONE', #191, #11, #385 ) ;
#492 = ORIENTED_EDGE ( 'NONE', *, *, #18, .T. ) ;
#493 = CARTESIAN_POINT ( 'NONE',  ( 76.99999999999991473, 20.00000000000000355, -20.00000000000000000 ) ) ;
#494 = DATE_AND_TIME ( #126, #792 ) ;
#495 = LINE ( 'NONE', #616, #203 ) ;
#496 = ORIENTED_EDGE ( 'NONE', *, *, #529, .T. ) ;
#497 = EDGE_CURVE ( 'NONE', #516, #1203, #338, .T. ) ;
#498 = ORIENTED_EDGE ( 'NONE', *, *, #787, .T. ) ;
#499 = FACE_OUTER_BOUND ( 'NONE', #625, .T. ) ;
#500 = APPROVAL_ROLE ( '' ) ;
#501 = CARTESIAN_POINT ( 'NONE',  ( -24.81934729198171397, 39.99999999999999289, 3.000000000000001332 ) ) ;
#502 = VERTEX_POINT ( 'NONE', #59 ) ;
#503 = ORIENTED_EDGE ( 'NONE', *, *, #975, .F. ) ;
#504 = EDGE_CURVE ( 'NONE', #1176, #285, #490, .T. ) ;
#505 = CARTESIAN_POINT ( 'NONE',  ( 0.000000000000000000, 0.000000000000000000, 0.000000000000000000 ) ) ;
#506 = CYLINDRICAL_SURFACE ( 'NONE', #453, 19.99999999999999645 ) ;
#507 = EDGE_LOOP ( 'NONE', ( #252, #289 ) ) ;
#508 = VECTOR ( 'NONE', #834, 1000.000000000000000 ) ;
#509 = ORIENTED_EDGE ( 'NONE', *, *, #488, .T. ) ;
#510 = AXIS2_PLACEMENT_3D ( 'NONE', #588, #795, #152 ) ;
#511 = VECTOR ( 'NONE', #312, 1000.000000000000000 ) ;
#512 = DIRECTION ( 'NONE',  ( -1.000000000000000000, 0.000000000000000000, 8.673617379884034239E-17 ) ) ;
#513 = VECTOR ( 'NONE', #282, 1000.000000000000000 ) ;
#514 = CARTESIAN_POINT ( 'NONE',  ( -47.00000000000000000, 60.00000000000000000, 13.00000000000000000 ) ) ;
#515 = ORIENTED_EDGE ( 'NONE', *, *, #73, .F. ) ;
#516 = VERTEX_POINT ( 'NONE', #79 ) ;
#517 = CARTESIAN_POINT ( 'NONE',  ( -37.00000000000000000, 80.00000000000000000, 13.00000000000000000 ) ) ;
#518 = CARTESIAN_POINT ( 'NONE',  ( 44.50000000000000711, 20.00000000000001421, -24.99999999999999645 ) ) ;
#519 = EDGE_CURVE ( 'NONE', #783, #657, #809, .T. ) ;
#520 = VERTEX_POINT ( 'NONE', #898 ) ;
#521 = DIRECTION ( 'NONE',  ( 0.000000000000000000, 1.000000000000000000, 0.000000000000000000 ) ) ;
#522 = ORIENTED_EDGE ( 'NONE', *, *, #314, .T. ) ;
#523 = DIRECTION ( 'NONE',  ( 0.000000000000000000, 1.000000000000000000, 0.000000000000000000 ) ) ;
#524 = CARTESIAN_POINT ( 'NONE',  ( -14.69693845669906906, 80.00000000000000000, -2.999999999999999556 ) ) ;
#525 = CARTESIAN_POINT ( 'NONE',  ( 69.50000000000000000, 20.00000000000001421, -24.99999999999999645 ) ) ;
#526 = EDGE_CURVE ( 'NONE', #860, #26, #804, .T. ) ;
#527 = DIRECTION ( 'NONE',  ( 1.000000000000000000, 0.000000000000000000, 0.000000000000000000 ) ) ;
#528 = ORIENTED_EDGE ( 'NONE', *, *, #659, .F. ) ;
#529 = EDGE_CURVE ( 'NONE', #976, #468, #254, .T. ) ;
#530 = VECTOR ( 'NONE', #250, 1000.000000000000000 ) ;
#531 = FACE_OUTER_BOUND ( 'NONE', #175, .T. ) ;
#532 = AXIS2_PLACEMENT_3D ( 'NONE', #22, #41, #582 ) ;
#533 = CC_DESIGN_APPROVAL ( #785, ( #987 ) ) ;
#534 = DIRECTION ( 'NONE',  ( 1.000000000000000000, 0.000000000000000000, -0.000000000000000000 ) ) ;
#535 = CARTESIAN_POINT ( 'NONE',  ( -14.69693845669906906, 80.00000000000000000, 3.000000000000000000 ) ) ;
#536 = CARTESIAN_POINT ( 'NONE',  ( -37.00000000000000000, 39.99999999999999289, -2.999999999999997335 ) ) ;
#537 = ORIENTED_EDGE ( 'NONE', *, *, #564, .T. ) ;
#538 = EDGE_CURVE ( 'NONE', #26, #121, #1207, .T. ) ;
#539 = CARTESIAN_POINT ( 'NONE',  ( 0.000000000000000000, 0.000000000000000000, 0.000000000000000000 ) ) ;
#540 = DIRECTION ( 'NONE',  ( 1.000000000000000000, 0.000000000000000000, -1.734723475976806848E-16 ) ) ;
#541 = CARTESIAN_POINT ( 'NONE',  ( 0.000000000000000000, 0.000000000000000000, 15.00000000000000178 ) ) ;
#542 = DIRECTION ( 'NONE',  ( -1.000000000000000000, 0.000000000000000000, 0.000000000000000000 ) ) ;
#543 = ORIENTED_EDGE ( 'NONE', *, *, #219, .T. ) ;
#544 = CARTESIAN_POINT ( 'NONE',  ( 0.000000000000000000, 39.99999999999999289, 0.000000000000000000 ) ) ;
#545 = EDGE_CURVE ( 'NONE', #728, #468, #414, .T. ) ;
#546 = DIRECTION ( 'NONE',  ( 0.000000000000000000, 0.000000000000000000, 1.000000000000000000 ) ) ;
#547 = CARTESIAN_POINT ( 'NONE',  ( 0.000000000000000000, 80.00000000000000000, -25.00000000000000000 ) ) ;
#548 = DIRECTION ( 'NONE',  ( 1.000000000000000000, 0.000000000000000000, -0.000000000000000000 ) ) ;
#549 = ORIENTED_EDGE ( 'NONE', *, *, #1104, .F. ) ;
#550 = CARTESIAN_POINT ( 'NONE',  ( 0.000000000000000000, 80.00000000000000000, 0.000000000000000000 ) ) ;
#551 = PLANE ( 'NONE',  #569 ) ;
#552 = VECTOR ( 'NONE', #157, 1000.000000000000000 ) ;
#553 = AXIS2_PLACEMENT_3D ( 'NONE', #1218, #1131, #1154 ) ;
#554 = CARTESIAN_POINT ( 'NONE',  ( -37.00000000000000000, 80.00000000000000000, 3.000000000000003997 ) ) ;
#555 = AXIS2_PLACEMENT_3D ( 'NONE', #838, #618, #437 ) ;
#556 = ORIENTED_EDGE ( 'NONE', *, *, #343, .F. ) ;
#557 = CARTESIAN_POINT ( 'NONE',  ( -14.69693845669906906, 0.000000000000000000, 3.000000000000000000 ) ) ;
#558 = DIRECTION ( 'NONE',  ( 1.000000000000000000, 0.000000000000000000, -0.000000000000000000 ) ) ;
#559 = DIRECTION ( 'NONE',  ( 0.000000000000000000, 0.000000000000000000, 1.000000000000000000 ) ) ;
#560 = EDGE_CURVE ( 'NONE', #1093, #46, #946, .T. ) ;
#561 = EDGE_LOOP ( 'NONE', ( #423, #944, #85, #609, #413, #1166, #537, #790, #619, #1074, #1169, #148 ) ) ;
#562 = FACE_OUTER_BOUND ( 'NONE', #960, .T. ) ;
#563 = LINE ( 'NONE', #108, #1081 ) ;
#564 = EDGE_CURVE ( 'NONE', #304, #970, #869, .T. ) ;
#565 = ORIENTED_EDGE ( 'NONE', *, *, #688, .F. ) ;
#566 = EDGE_CURVE ( 'NONE', #109, #867, #21, .T. ) ;
#567 = ORIENTED_EDGE ( 'NONE', *, *, #1121, .T. ) ;
#568 = DIRECTION ( 'NONE',  ( -1.000000000000000000, 0.000000000000000000, 0.000000000000000000 ) ) ;
#569 = AXIS2_PLACEMENT_3D ( 'NONE', #839, #281, #677 ) ;
#570 = CARTESIAN_POINT ( 'NONE',  ( -37.00000000000000000, 60.00000000000000000, 13.00000000000000000 ) ) ;
#571 = AXIS2_PLACEMENT_3D ( 'NONE', #816, #58, #432 ) ;
#572 = ORIENTED_EDGE ( 'NONE', *, *, #169, .F. ) ;
#573 = AXIS2_PLACEMENT_3D ( 'NONE', #544, #460, #930 ) ;
#574 = AXIS2_PLACEMENT_3D ( 'NONE', #648, #941, #749 ) ;
#575 = ORIENTED_EDGE ( 'NONE', *, *, #560, .T. ) ;
#576 = LINE ( 'NONE', #391, #187 ) ;
#577 = PRODUCT_DEFINITION_SHAPE ( 'NONE', 'NONE',  #388 ) ;
#578 = PLANE ( 'NONE',  #773 ) ;
#579 = EDGE_LOOP ( 'NONE', ( #572, #974, #961, #745, #195, #450, #797, #14 ) ) ;
#580 = VERTEX_POINT ( 'NONE', #753 ) ;
#581 = ADVANCED_FACE ( 'NONE', ( #381 ), #1028, .F. ) ;
#582 = DIRECTION ( 'NONE',  ( 1.000000000000000000, 0.000000000000000000, -1.845316948019291341E-16 ) ) ;
#583 = PERSON_AND_ORGANIZATION ( #207, #1066 ) ;
#584 = CARTESIAN_POINT ( 'NONE',  ( 21.23779144359532012, 0.000000000000000000, -10.00000000000000000 ) ) ;
#585 = ORIENTED_EDGE ( 'NONE', *, *, #328, .F. ) ;
#586 = DIRECTION ( 'NONE',  ( 0.000000000000000000, 1.000000000000000000, 0.000000000000000000 ) ) ;
#587 = PERSON_AND_ORGANIZATION ( #207, #1066 ) ;
#588 = CARTESIAN_POINT ( 'NONE',  ( 0.000000000000000000, 40.00000000000000000, 0.000000000000000000 ) ) ;
#589 = AXIS2_PLACEMENT_3D ( 'NONE', #665, #654, #487 ) ;
#590 = ORIENTED_EDGE ( 'NONE', *, *, #997, .T. ) ;
#591 = CIRCLE ( 'NONE', #356, 10.00000000000000178 ) ;
#592 = CIRCLE ( 'NONE', #1181, 10.00000000000000178 ) ;
#593 = EDGE_LOOP ( 'NONE', ( #698, #873 ) ) ;
#594 = AXIS2_PLACEMENT_3D ( 'NONE', #1112, #1182, #624 ) ;
#595 = CARTESIAN_POINT ( 'NONE',  ( 24.49489742783178414, 40.00000000000000000, 5.000000000000000000 ) ) ;
#596 = APPROVAL_DATE_TIME ( #313, #1170 ) ;
#597 = LINE ( 'NONE', #514, #905 ) ;
#598 = ORIENTED_EDGE ( 'NONE', *, *, #1175, .F. ) ;
#599 = EDGE_CURVE ( 'NONE', #285, #1093, #576, .T. ) ;
#600 = ORIENTED_EDGE ( 'NONE', *, *, #1104, .T. ) ;
#601 = CARTESIAN_POINT ( 'NONE',  ( 37.00000000000000711, 20.00000000000000000, 10.00000000000000000 ) ) ;
#602 = CARTESIAN_POINT ( 'NONE',  ( 24.49489742783178414, 75.88392950129437509, 5.000000000000000000 ) ) ;
#603 = VERTEX_POINT ( 'NONE', #1142 ) ;
#604 = ADVANCED_FACE ( 'NONE', ( #562 ), #1032, .T. ) ;
#605 = VERTEX_POINT ( 'NONE', #113 ) ;
#606 = EDGE_CURVE ( 'NONE', #77, #793, #318, .T. ) ;
#607 = DIRECTION ( 'NONE',  ( 0.000000000000000000, 0.000000000000000000, 1.000000000000000000 ) ) ;
#608 = CARTESIAN_POINT ( 'NONE',  ( -37.00000000000000000, 60.00000000000000000, -13.00000000000000000 ) ) ;
#609 = ORIENTED_EDGE ( 'NONE', *, *, #328, .T. ) ;
#610 = ORIENTED_EDGE ( 'NONE', *, *, #55, .T. ) ;
#611 = VECTOR ( 'NONE', #1016, 1000.000000000000000 ) ;
#612 = DIRECTION ( 'NONE',  ( -1.000000000000000000, 0.000000000000000000, 0.000000000000000000 ) ) ;
#613 = AXIS2_PLACEMENT_3D ( 'NONE', #550, #89, #368 ) ;
#614 = AXIS2_PLACEMENT_3D ( 'NONE', #375, #215, #757 ) ;
#615 = ADVANCED_FACE ( 'NONE', ( #196 ), #551, .F. ) ;
#616 = CARTESIAN_POINT ( 'NONE',  ( 57.00000000000000000, 40.00000000000000000, 10.00000000000000000 ) ) ;
#617 = ORIENTED_EDGE ( 'NONE', *, *, #476, .T. ) ;
#618 = DIRECTION ( 'NONE',  ( -0.000000000000000000, -0.000000000000000000, -1.000000000000000000 ) ) ;
#619 = ORIENTED_EDGE ( 'NONE', *, *, #380, .F. ) ;
#620 = CARTESIAN_POINT ( 'NONE',  ( 24.49489742783178414, 75.88392950129437509, -5.000000000000000000 ) ) ;
#621 = EDGE_CURVE ( 'NONE', #771, #603, #42, .T. ) ;
#622 = DIRECTION ( 'NONE',  ( -0.000000000000000000, -0.000000000000000000, -1.000000000000000000 ) ) ;
#623 = CARTESIAN_POINT ( 'NONE',  ( -37.00000000000000000, 39.99999999999999289, -13.00000000000000000 ) ) ;
#624 = DIRECTION ( 'NONE',  ( 0.000000000000000000, 0.000000000000000000, 1.000000000000000000 ) ) ;
#625 = EDGE_LOOP ( 'NONE', ( #239, #1125, #116, #52, #950, #680, #685 ) ) ;
#626 = CARTESIAN_POINT ( 'NONE',  ( 22.91287847477920181, 40.00000000000000000, -10.00000000000000000 ) ) ;
#627 = LINE ( 'NONE', #524, #611 ) ;
#628 = CARTESIAN_POINT ( 'NONE',  ( 22.91287847477920181, 80.00000000000000000, -10.00000000000000000 ) ) ;
#629 = EDGE_CURVE ( 'NONE', #186, #704, #185, .T. ) ;
#630 = DIRECTION ( 'NONE',  ( 0.000000000000000000, 0.000000000000000000, 1.000000000000000000 ) ) ;
#631 = VERTEX_POINT ( 'NONE', #849 ) ;
#632 = AXIS2_PLACEMENT_3D ( 'NONE', #799, #1071, #220 ) ;
#633 = DIRECTION ( 'NONE',  ( 1.845316948019291341E-16, 0.000000000000000000, 1.000000000000000000 ) ) ;
#634 = CIRCLE ( 'NONE', #672, 25.00000000000000000 ) ;
#635 = CC_DESIGN_APPROVAL ( #1170, ( #772 ) ) ;
#636 = CARTESIAN_POINT ( 'NONE',  ( 0.000000000000000000, 80.00000000000000000, 0.000000000000000000 ) ) ;
#637 = DIRECTION ( 'NONE',  ( -0.000000000000000000, -0.000000000000000000, 1.000000000000000000 ) ) ;
#638 = CARTESIAN_POINT ( 'NONE',  ( 44.50000000000000711, 20.00000000000001421, 20.00000000000000000 ) ) ;
#639 = ADVANCED_FACE ( 'NONE', ( #199 ), #373, .F. ) ;
#640 = ORIENTED_EDGE ( 'NONE', *, *, #629, .T. ) ;
#641 = LINE ( 'NONE', #342, #931 ) ;
#642 = DIRECTION ( 'NONE',  ( 1.000000000000000000, 0.000000000000000000, 0.000000000000000000 ) ) ;
#643 = PLANE ( 'NONE',  #201 ) ;
#644 = ORIENTED_EDGE ( 'NONE', *, *, #5, .T. ) ;
#645 = LINE ( 'NONE', #1020, #1045 ) ;
#646 = EDGE_CURVE ( 'NONE', #212, #130, #283, .T. ) ;
#647 = DIRECTION ( 'NONE',  ( -0.000000000000000000, -0.000000000000000000, -1.000000000000000000 ) ) ;
#648 = CARTESIAN_POINT ( 'NONE',  ( 57.00000000000000711, 20.00000000000001421, -9.999999999999998224 ) ) ;
#649 = CALENDAR_DATE ( 2026, 12, 9 ) ;
#650 = EDGE_LOOP ( 'NONE', ( #1031, #236, #1048, #496, #585 ) ) ;
#651 = LINE ( 'NONE', #557, #968 ) ;
#652 = CARTESIAN_POINT ( 'NONE',  ( -24.81934729198171397, 80.00000000000000000, -2.999999999999998668 ) ) ;
#653 = VECTOR ( 'NONE', #695, 1000.000000000000000 ) ;
#654 = DIRECTION ( 'NONE',  ( 0.000000000000000000, -1.000000000000000000, 0.000000000000000000 ) ) ;
#655 = AXIS2_PLACEMENT_3D ( 'NONE', #822, #354, #731 ) ;
#656 = PERSON_AND_ORGANIZATION_ROLE ( 'creator' ) ;
#657 = VERTEX_POINT ( 'NONE', #761 ) ;
#658 = DIRECTION ( 'NONE',  ( 0.000000000000000000, 0.000000000000000000, 1.000000000000000000 ) ) ;
#659 = EDGE_CURVE ( 'NONE', #136, #1176, #1143, .T. ) ;
#660 = DIRECTION ( 'NONE',  ( 1.000000000000000000, 0.000000000000000000, 0.000000000000000000 ) ) ;
#661 = VERTEX_POINT ( 'NONE', #481 ) ;
#662 = ORIENTED_EDGE ( 'NONE', *, *, #268, .F. ) ;
#663 = CARTESIAN_POINT ( 'NONE',  ( 0.000000000000000000, 0.000000000000000000, 0.000000000000000000 ) ) ;
#664 = DESIGN_CONTEXT ( 'detailed design', #392, 'design' ) ;
#665 = CARTESIAN_POINT ( 'NONE',  ( 21.23779144359532012, 40.00000000000000000, 10.00000000000000000 ) ) ;
#666 = ORIENTED_EDGE ( 'NONE', *, *, #566, .T. ) ;
#667 = EDGE_CURVE ( 'NONE', #383, #895, #634, .T. ) ;
#668 = VERTEX_POINT ( 'NONE', #95 ) ;
#669 = CARTESIAN_POINT ( 'NONE',  ( 24.49489742783178414, 75.88392950129437509, 5.000000000000000000 ) ) ;
#670 = CIRCLE ( 'NONE', #730, 12.49999999999999645 ) ;
#671 = DIRECTION ( 'NONE',  ( 1.000000000000000000, 0.000000000000000000, -0.000000000000000000 ) ) ;
#672 = AXIS2_PLACEMENT_3D ( 'NONE', #937, #763, #15 ) ;
#673 = ORIENTED_EDGE ( 'NONE', *, *, #229, .F. ) ;
#674 = AXIS2_PLACEMENT_3D ( 'NONE', #1214, #769, #1139 ) ;
#675 = EDGE_CURVE ( 'NONE', #232, #976, #165, .T. ) ;
#676 = EDGE_LOOP ( 'NONE', ( #428, #716, #230, #549, #1, #868 ) ) ;
#677 = DIRECTION ( 'NONE',  ( 0.000000000000000000, -0.000000000000000000, 1.000000000000000000 ) ) ;
#678 = DATE_AND_TIME ( #649, #1164 ) ;
#679 = CARTESIAN_POINT ( 'NONE',  ( -37.00000000000000000, 60.00000000000000000, -2.999999999999997335 ) ) ;
#680 = ORIENTED_EDGE ( 'NONE', *, *, #629, .F. ) ;
#681 = CYLINDRICAL_SURFACE ( 'NONE', #357, 12.49999999999999645 ) ;
#682 = PERSON_AND_ORGANIZATION ( #207, #1066 ) ;
#683 = CYLINDRICAL_SURFACE ( 'NONE', #789, 15.00000000000000178 ) ;
#684 = ORIENTED_EDGE ( 'NONE', *, *, #1216, .F. ) ;
#685 = ORIENTED_EDGE ( 'NONE', *, *, #106, .F. ) ;
#686 = LINE ( 'NONE', #956, #511 ) ;
#687 = DIRECTION ( 'NONE',  ( 1.000000000000000000, 0.000000000000000000, 0.000000000000000000 ) ) ;
#688 = EDGE_CURVE ( 'NONE', #631, #1040, #1064, .T. ) ;
#689 = DIRECTION ( 'NONE',  ( 1.000000000000000000, 0.000000000000000000, 0.000000000000000000 ) ) ;
#690 = AXIS2_PLACEMENT_3D ( 'NONE', #107, #293, #658 ) ;
#691 = ORIENTED_EDGE ( 'NONE', *, *, #1121, .F. ) ;
#692 = AXIS2_PLACEMENT_3D ( 'NONE', #862, #870, #977 ) ;
#693 = VECTOR ( 'NONE', #727, 1000.000000000000000 ) ;
#694 = ORIENTED_EDGE ( 'NONE', *, *, #893, .T. ) ;
#695 = DIRECTION ( 'NONE',  ( -0.000000000000000000, -0.000000000000000000, -1.000000000000000000 ) ) ;
#696 = PLANE ( 'NONE',  #632 ) ;
#697 = EDGE_CURVE ( 'NONE', #793, #1215, #810, .T. ) ;
#698 = ORIENTED_EDGE ( 'NONE', *, *, #1135, .F. ) ;
#699 = CC_DESIGN_PERSON_AND_ORGANIZATION_ASSIGNMENT ( #587, #1030, ( #987 ) ) ;
#700 = ORIENTED_EDGE ( 'NONE', *, *, #688, .T. ) ;
#701 = DIRECTION ( 'NONE',  ( 0.4961389383568334255, -0.8682431421244594105, 0.000000000000000000 ) ) ;
#702 = CARTESIAN_POINT ( 'NONE',  ( 0.000000000000000000, 0.000000000000000000, 0.000000000000000000 ) ) ;
#703 = VERTEX_POINT ( 'NONE', #982 ) ;
#704 = VERTEX_POINT ( 'NONE', #1172 ) ;
#705 = CARTESIAN_POINT ( 'NONE',  ( -37.00000000000000000, 60.00000000000000000, 13.00000000000000000 ) ) ;
#706 = FACE_OUTER_BOUND ( 'NONE', #372, .T. ) ;
#707 = ORIENTED_EDGE ( 'NONE', *, *, #55, .F. ) ;
#708 = VECTOR ( 'NONE', #75, 1000.000000000000000 ) ;
#709 = EDGE_LOOP ( 'NONE', ( #155, #161, #402, #784, #800, #1077, #324, #153 ) ) ;
#710 = EDGE_CURVE ( 'NONE', #285, #580, #686, .T. ) ;
#711 = AXIS2_PLACEMENT_3D ( 'NONE', #539, #1010, #922 ) ;
#712 = CARTESIAN_POINT ( 'NONE',  ( -37.00000000000000000, 60.00000000000000000, 3.000000000000004441 ) ) ;
#713 = CARTESIAN_POINT ( 'NONE',  ( 21.23779144359532012, 40.00000000000000000, 10.00000000000000000 ) ) ;
#714 = DIRECTION ( 'NONE',  ( 0.4961389383568334255, -0.8682431421244594105, 0.000000000000000000 ) ) ;
#715 = DIRECTION ( 'NONE',  ( -9.226584740096456705E-17, -0.000000000000000000, -1.000000000000000000 ) ) ;
#716 = ORIENTED_EDGE ( 'NONE', *, *, #667, .F. ) ;
#717 = CYLINDRICAL_SURFACE ( 'NONE', #337, 10.00000000000000178 ) ;
#718 = EDGE_CURVE ( 'NONE', #186, #332, #909, .T. ) ;
#719 = LINE ( 'NONE', #742, #1062 ) ;
#720 = LINE ( 'NONE', #913, #708 ) ;
#721 = CARTESIAN_POINT ( 'NONE',  ( -14.69693845669906906, 0.000000000000000000, -2.999999999999999556 ) ) ;
#722 = ORIENTED_EDGE ( 'NONE', *, *, #659, .T. ) ;
#723 = CARTESIAN_POINT ( 'NONE',  ( -57.00000000000000000, 60.00000000000000000, 13.00000000000000000 ) ) ;
#724 = CARTESIAN_POINT ( 'NONE',  ( -37.00000000000000000, 60.00000000000000000, 3.000000000000004441 ) ) ;
#725 = EDGE_CURVE ( 'NONE', #970, #479, #1150, .T. ) ;
#726 = DIRECTION ( 'NONE',  ( 1.000000000000000000, 0.000000000000000000, 0.000000000000000000 ) ) ;
#727 = DIRECTION ( 'NONE',  ( -0.000000000000000000, -1.000000000000000000, -0.000000000000000000 ) ) ;
#728 = VERTEX_POINT ( 'NONE', #595 ) ;
#729 = VECTOR ( 'NONE', #462, 1000.000000000000000 ) ;
#730 = AXIS2_PLACEMENT_3D ( 'NONE', #1187, #441, #642 ) ;
#731 = DIRECTION ( 'NONE',  ( 0.000000000000000000, 0.000000000000000000, 1.000000000000000000 ) ) ;
#732 = ADVANCED_BREP_SHAPE_REPRESENTATION ( 'Part', ( #110, #475 ), #146 ) ;
#733 = CIRCLE ( 'NONE', #573, 25.00000000000000000 ) ;
#734 = CC_DESIGN_APPROVAL ( #969, ( #388 ) ) ;
#735 = VECTOR ( 'NONE', #1219, 1000.000000000000000 ) ;
#736 = CARTESIAN_POINT ( 'NONE',  ( 0.000000000000000000, 0.000000000000000000, 0.000000000000000000 ) ) ;
#737 = DIRECTION ( 'NONE',  ( 0.000000000000000000, 1.000000000000000000, 0.000000000000000000 ) ) ;
#738 = DIRECTION ( 'NONE',  ( -9.226584740096456705E-17, 0.000000000000000000, -1.000000000000000000 ) ) ;
#739 = ORIENTED_EDGE ( 'NONE', *, *, #97, .F. ) ;
#740 = EDGE_CURVE ( 'NONE', #867, #77, #233, .T. ) ;
#741 = DIRECTION ( 'NONE',  ( 0.000000000000000000, 0.000000000000000000, 1.000000000000000000 ) ) ;
#742 = CARTESIAN_POINT ( 'NONE',  ( 77.00000000000000000, 20.00000000000000355, 10.00000000000000000 ) ) ;
#743 = FACE_OUTER_BOUND ( 'NONE', #1171, .T. ) ;
#744 = DIRECTION ( 'NONE',  ( 0.000000000000000000, 0.000000000000000000, 1.000000000000000000 ) ) ;
#745 = ORIENTED_EDGE ( 'NONE', *, *, #430, .F. ) ;
#746 = EDGE_CURVE ( 'NONE', #759, #1000, #592, .T. ) ;
#747 = CARTESIAN_POINT ( 'NONE',  ( 9.999999999999957367, 40.00000000000000000, -5.000000000000000000 ) ) ;
#748 = DIRECTION ( 'NONE',  ( -9.226584740096456705E-17, -0.000000000000000000, -1.000000000000000000 ) ) ;
#749 = DIRECTION ( 'NONE',  ( 1.000000000000000000, 8.673617379884075901E-16, 0.000000000000000000 ) ) ;
#750 = APPROVAL_DATE_TIME ( #307, #969 ) ;
#751 = ORIENTED_EDGE ( 'NONE', *, *, #1073, .T. ) ;
#752 = EDGE_CURVE ( 'NONE', #605, #232, #1050, .T. ) ;
#753 = CARTESIAN_POINT ( 'NONE',  ( -14.69693845669906906, 80.00000000000000000, -2.999999999999999556 ) ) ;
#754 = VECTOR ( 'NONE', #879, 1000.000000000000000 ) ;
#755 = CC_DESIGN_PERSON_AND_ORGANIZATION_ASSIGNMENT ( #218, #656, ( #987 ) ) ;
#756 = AXIS2_PLACEMENT_3D ( 'NONE', #237, #607, #217 ) ;
#757 = DIRECTION ( 'NONE',  ( 0.000000000000000000, 0.000000000000000000, -1.000000000000000000 ) ) ;
#758 = VECTOR ( 'NONE', #266, 1000.000000000000000 ) ;
#759 = VERTEX_POINT ( 'NONE', #142 ) ;
#760 = ORIENTED_EDGE ( 'NONE', *, *, #1004, .T. ) ;
#761 = CARTESIAN_POINT ( 'NONE',  ( 1.836970198721029983E-15, 80.00000000000000000, -15.00000000000000178 ) ) ;
#762 = CARTESIAN_POINT ( 'NONE',  ( 57.00000000000000711, 20.00000000000001421, -20.00000000000000000 ) ) ;
#763 = DIRECTION ( 'NONE',  ( 0.000000000000000000, 1.000000000000000000, 0.000000000000000000 ) ) ;
#764 = CARTESIAN_POINT ( 'NONE',  ( 57.00000000000000711, 20.00000000000001421, 20.00000000000000000 ) ) ;
#765 = ADVANCED_FACE ( 'NONE', ( #485 ), #883, .F. ) ;
#766 = EDGE_LOOP ( 'NONE', ( #662, #484, #407, #852 ) ) ;
#767 = DIRECTION ( 'NONE',  ( -1.000000000000000000, 0.000000000000000000, 9.226584740096455472E-17 ) ) ;
#768 = VECTOR ( 'NONE', #251, 1000.000000000000000 ) ;
#769 = DIRECTION ( 'NONE',  ( 0.000000000000000000, 0.000000000000000000, 1.000000000000000000 ) ) ;
#770 = AXIS2_PLACEMENT_3D ( 'NONE', #451, #162, #1079 ) ;
#771 = VERTEX_POINT ( 'NONE', #493 ) ;
#772 = SECURITY_CLASSIFICATION ( '', '', #482 ) ;
#773 = AXIS2_PLACEMENT_3D ( 'NONE', #953, #394, #302 ) ;
#774 = EDGE_CURVE ( 'NONE', #827, #1093, #319, .T. ) ;
#775 = ORIENTED_EDGE ( 'NONE', *, *, #1089, .F. ) ;
#776 = CARTESIAN_POINT ( 'NONE',  ( 0.000000000000000000, 0.000000000000000000, -25.00000000000000000 ) ) ;
#777 = APPROVAL_ROLE ( '' ) ;
#778 = LINE ( 'NONE', #228, #1127 ) ;
#779 = ADVANCED_FACE ( 'NONE', ( #416, #499 ), #877, .F. ) ;
#780 = DIRECTION ( 'NONE',  ( 0.000000000000000000, 0.000000000000000000, 1.000000000000000000 ) ) ;
#781 = DIRECTION ( 'NONE',  ( 0.000000000000000000, 0.000000000000000000, 1.000000000000000000 ) ) ;
#782 = LINE ( 'NONE', #965, #754 ) ;
#783 = VERTEX_POINT ( 'NONE', #35 ) ;
#784 = ORIENTED_EDGE ( 'NONE', *, *, #529, .F. ) ;
#785 = APPROVAL ( #1057, 'UNSPECIFIED' ) ;
#786 = DIRECTION ( 'NONE',  ( -1.000000000000000000, -0.000000000000000000, -0.000000000000000000 ) ) ;
#787 = EDGE_CURVE ( 'NONE', #847, #65, #889, .T. ) ;
#788 = CARTESIAN_POINT ( 'NONE',  ( -26.99999999999999645, 60.00000000000000000, -13.00000000000000000 ) ) ;
#789 = AXIS2_PLACEMENT_3D ( 'NONE', #702, #25, #418 ) ;
#790 = ORIENTED_EDGE ( 'NONE', *, *, #219, .F. ) ;
#791 = CIRCLE ( 'NONE', #262, 20.00000000000000355 ) ;
#792 = LOCAL_TIME ( 16, 22, 9.000000000000000000, #194 ) ;
#793 = VERTEX_POINT ( 'NONE', #48 ) ;
#794 = DIRECTION ( 'NONE',  ( 0.000000000000000000, 0.000000000000000000, 1.000000000000000000 ) ) ;
#795 = DIRECTION ( 'NONE',  ( 0.000000000000000000, -1.000000000000000000, 0.000000000000000000 ) ) ;
#796 = ORIENTED_EDGE ( 'NONE', *, *, #454, .F. ) ;
#797 = ORIENTED_EDGE ( 'NONE', *, *, #675, .F. ) ;
#798 = DIRECTION ( 'NONE',  ( 1.000000000000000000, 0.000000000000000000, 0.000000000000000000 ) ) ;
#799 = CARTESIAN_POINT ( 'NONE',  ( -37.00000000000000000, 39.99999999999999289, 13.00000000000000000 ) ) ;
#800 = ORIENTED_EDGE ( 'NONE', *, *, #311, .T. ) ;
#801 = EDGE_CURVE ( 'NONE', #383, #860, #1160, .T. ) ;
#802 = EDGE_LOOP ( 'NONE', ( #412, #444 ) ) ;
#803 = CARTESIAN_POINT ( 'NONE',  ( -26.99999999999999645, 60.00000000000000000, 13.00000000000000000 ) ) ;
#804 = LINE ( 'NONE', #54, #374 ) ;
#805 = EDGE_LOOP ( 'NONE', ( #853, #644 ) ) ;
#806 = AXIS2_PLACEMENT_3D ( 'NONE', #69, #442, #726 ) ;
#807 = LINE ( 'NONE', #1092, #189 ) ;
#808 = EDGE_LOOP ( 'NONE', ( #821, #1087, #939, #277 ) ) ;
#809 = CIRCLE ( 'NONE', #828, 15.00000000000000178 ) ;
#810 = CIRCLE ( 'NONE', #3, 20.00000000000000355 ) ;
#811 = CIRCLE ( 'NONE', #850, 12.49999999999999645 ) ;
#812 = DIRECTION ( 'NONE',  ( 0.000000000000000000, 0.000000000000000000, -1.000000000000000000 ) ) ;
#813 = DIRECTION ( 'NONE',  ( 0.000000000000000000, 1.000000000000000000, 0.000000000000000000 ) ) ;
#814 = DIRECTION ( 'NONE',  ( -1.000000000000000000, 0.000000000000000000, 9.226584740096456705E-17 ) ) ;
#815 = ORIENTED_EDGE ( 'NONE', *, *, #740, .F. ) ;
#816 = CARTESIAN_POINT ( 'NONE',  ( -37.00000000000000000, 60.00000000000000000, 3.000000000000004441 ) ) ;
#817 = ADVANCED_FACE ( 'NONE', ( #398, #320 ), #1167, .F. ) ;
#818 = DIRECTION ( 'NONE',  ( 0.000000000000000000, 0.000000000000000000, 1.000000000000000000 ) ) ;
#819 = CARTESIAN_POINT ( 'NONE',  ( 25.00000000000000000, 75.00000000000000000, 0.000000000000000000 ) ) ;
#820 = LINE ( 'NONE', #352, #693 ) ;
#821 = ORIENTED_EDGE ( 'NONE', *, *, #1135, .T. ) ;
#822 = CARTESIAN_POINT ( 'NONE',  ( 0.000000000000000000, 0.000000000000000000, 0.000000000000000000 ) ) ;
#823 = EDGE_CURVE ( 'NONE', #908, #353, #205, .T. ) ;
#824 = CARTESIAN_POINT ( 'NONE',  ( -37.00000000000000000, 60.00000000000000000, 13.00000000000000000 ) ) ;
#825 = CARTESIAN_POINT ( 'NONE',  ( -37.00000000000000000, 60.00000000000000000, 13.00000000000000000 ) ) ;
#826 = CARTESIAN_POINT ( 'NONE',  ( 0.000000000000000000, 0.000000000000000000, 0.000000000000000000 ) ) ;
#827 = VERTEX_POINT ( 'NONE', #776 ) ;
#828 = AXIS2_PLACEMENT_3D ( 'NONE', #427, #1116, #924 ) ;
#829 = DIRECTION ( 'NONE',  ( 0.000000000000000000, 1.000000000000000000, 0.000000000000000000 ) ) ;
#830 = AXIS2_PLACEMENT_3D ( 'NONE', #505, #1070, #794 ) ;
#831 = CIRCLE ( 'NONE', #6, 20.00000000000000355 ) ;
#832 = CIRCLE ( 'NONE', #299, 19.99999999999990763 ) ;
#833 = FACE_OUTER_BOUND ( 'NONE', #802, .T. ) ;
#834 = DIRECTION ( 'NONE',  ( 1.000000000000000000, 0.000000000000000000, 0.000000000000000000 ) ) ;
#835 = ADVANCED_FACE ( 'NONE', ( #306 ), #681, .F. ) ;
#836 = CARTESIAN_POINT ( 'NONE',  ( -37.00000000000000000, 60.00000000000000000, 13.00000000000000000 ) ) ;
#837 = ORIENTED_EDGE ( 'NONE', *, *, #504, .F. ) ;
#838 = CARTESIAN_POINT ( 'NONE',  ( 57.00000000000000711, 20.00000000000001421, -9.999999999999998224 ) ) ;
#839 = CARTESIAN_POINT ( 'NONE',  ( 0.000000000000000000, 0.000000000000000000, 0.000000000000000000 ) ) ;
#840 = DIRECTION ( 'NONE',  ( -0.8682431421244594105, -0.4961389383568334255, 0.000000000000000000 ) ) ;
#841 =( NAMED_UNIT ( * ) SI_UNIT ( $, .STERADIAN. ) SOLID_ANGLE_UNIT ( ) );
#842 = ADVANCED_FACE ( 'NONE', ( #531 ), #440, .F. ) ;
#843 = ORIENTED_EDGE ( 'NONE', *, *, #874, .F. ) ;
#844 = CARTESIAN_POINT ( 'NONE',  ( 57.00000000000000711, 20.00000000000001421, 20.00000000000000000 ) ) ;
#845 = DIRECTION ( 'NONE',  ( 1.000000000000000000, 0.000000000000000000, 0.000000000000000000 ) ) ;
#846 = LINE ( 'NONE', #584, #513 ) ;
#847 = VERTEX_POINT ( 'NONE', #723 ) ;
#848 = AXIS2_PLACEMENT_3D ( 'NONE', #663, #1043, #1035 ) ;
#849 = CARTESIAN_POINT ( 'NONE',  ( -26.99999999999999645, 60.00000000000000000, 3.000000000000002665 ) ) ;
#850 = AXIS2_PLACEMENT_3D ( 'NONE', #844, #275, #279 ) ;
#851 = DIRECTION ( 'NONE',  ( -0.000000000000000000, -1.000000000000000000, -0.000000000000000000 ) ) ;
#852 = ORIENTED_EDGE ( 'NONE', *, *, #401, .F. ) ;
#853 = ORIENTED_EDGE ( 'NONE', *, *, #229, .T. ) ;
#854 = EDGE_CURVE ( 'NONE', #332, #1107, #23, .T. ) ;
#855 = DIRECTION ( 'NONE',  ( -0.000000000000000000, -1.000000000000000000, -0.000000000000000000 ) ) ;
#856 = ORIENTED_EDGE ( 'NONE', *, *, #997, .F. ) ;
#857 = CARTESIAN_POINT ( 'NONE',  ( 57.00000000000000711, 20.00000000000001421, 10.00000000000000000 ) ) ;
#858 = DATE_AND_TIME ( #227, #948 ) ;
#859 = CARTESIAN_POINT ( 'NONE',  ( 76.99999999999991473, 20.00000000000000355, 20.00000000000000000 ) ) ;
#860 = VERTEX_POINT ( 'NONE', #517 ) ;
#861 = ORIENTED_EDGE ( 'NONE', *, *, #646, .T. ) ;
#862 = CARTESIAN_POINT ( 'NONE',  ( -37.00000000000000000, 60.00000000000000000, 13.00000000000000000 ) ) ;
#863 = VECTOR ( 'NONE', #737, 1000.000000000000000 ) ;
#864 = AXIS2_PLACEMENT_3D ( 'NONE', #100, #7, #470 ) ;
#865 = DIRECTION ( 'NONE',  ( -0.000000000000000000, -0.000000000000000000, -1.000000000000000000 ) ) ;
#866 = CIRCLE ( 'NONE', #1008, 19.99999999999990763 ) ;
#867 = VERTEX_POINT ( 'NONE', #1101 ) ;
#868 = ORIENTED_EDGE ( 'NONE', *, *, #718, .T. ) ;
#869 =( BOUNDED_CURVE ( )  B_SPLINE_CURVE ( 3, ( #669, #1213, #287, #1138 ),
 .UNSPECIFIED., .F., .T. ) 
 B_SPLINE_CURVE_WITH_KNOTS ( ( 4, 4 ),
 ( 6.081827386389255352, 6.484543227969917112 ),
 .UNSPECIFIED. ) 
 CURVE ( )  GEOMETRIC_REPRESENTATION_ITEM ( )  RATIONAL_B_SPLINE_CURVE ( ( 1.000000000000000000, 0.9865305980755141313, 0.9865305980755141313, 1.000000000000000000 ) ) 
 REPRESENTATION_ITEM ( '' )  );
#870 = DIRECTION ( 'NONE',  ( -0.000000000000000000, -0.000000000000000000, -1.000000000000000000 ) ) ;
#871 = DATE_TIME_ROLE ( 'classification_date' ) ;
#872 = CARTESIAN_POINT ( 'NONE',  ( -21.35415650406262245, 80.00000000000000000, 13.00000000000000000 ) ) ;
#873 = ORIENTED_EDGE ( 'NONE', *, *, #1148, .F. ) ;
#874 = EDGE_CURVE ( 'NONE', #605, #222, #866, .T. ) ;
#875 = ORIENTED_EDGE ( 'NONE', *, *, #746, .F. ) ;
#876 = PRODUCT_RELATED_PRODUCT_CATEGORY ( 'detail', '', ( #28 ) ) ;
#877 = PLANE ( 'NONE',  #532 ) ;
#878 = CALENDAR_DATE ( 2026, 12, 9 ) ;
#879 = DIRECTION ( 'NONE',  ( -1.000000000000000000, -0.000000000000000000, -0.000000000000000000 ) ) ;
#880 = APPLICATION_CONTEXT ( 'configuration controlled 3d designs of mechanical parts and assemblies' ) ;
#881 = ORIENTED_EDGE ( 'NONE', *, *, #621, .F. ) ;
#882 = ORIENTED_EDGE ( 'NONE', *, *, #787, .F. ) ;
#883 = CYLINDRICAL_SURFACE ( 'NONE', #692, 10.00000000000000178 ) ;
#884 = EDGE_CURVE ( 'NONE', #657, #580, #473, .T. ) ;
#885 = DIRECTION ( 'NONE',  ( 0.000000000000000000, 1.000000000000000000, 0.000000000000000000 ) ) ;
#886 = VECTOR ( 'NONE', #714, 1000.000000000000114 ) ;
#887 = VECTOR ( 'NONE', #1096, 1000.000000000000000 ) ;
#888 = ORIENTED_EDGE ( 'NONE', *, *, #159, .T. ) ;
#889 = CIRCLE ( 'NONE', #433, 20.00000000000000355 ) ;
#890 = CIRCLE ( 'NONE', #674, 12.49999999999999645 ) ;
#891 = ORIENTED_EDGE ( 'NONE', *, *, #204, .T. ) ;
#892 = DIRECTION ( 'NONE',  ( 1.000000000000000000, 0.000000000000000000, 0.000000000000000000 ) ) ;
#893 = EDGE_CURVE ( 'NONE', #704, #136, #86, .T. ) ;
#894 = DIRECTION ( 'NONE',  ( -0.000000000000000000, -0.000000000000000000, -1.000000000000000000 ) ) ;
#895 = VERTEX_POINT ( 'NONE', #253 ) ;
#896 = ORIENTED_EDGE ( 'NONE', *, *, #99, .F. ) ;
#897 = DIRECTION ( 'NONE',  ( 0.000000000000000000, 0.000000000000000000, 1.000000000000000000 ) ) ;
#898 = CARTESIAN_POINT ( 'NONE',  ( 37.00000000000009948, 20.00000000000000000, -9.999999999999998224 ) ) ;
#899 = ORIENTED_EDGE ( 'NONE', *, *, #1216, .T. ) ;
#900 = LINE ( 'NONE', #272, #377 ) ;
#901 = ORIENTED_EDGE ( 'NONE', *, *, #151, .F. ) ;
#902 = CARTESIAN_POINT ( 'NONE',  ( 57.00000000000000711, 39.99999999999996447, 10.00000000000000000 ) ) ;
#903 = CARTESIAN_POINT ( 'NONE',  ( 0.000000000000000000, 40.00000000000000000, 0.000000000000000000 ) ) ;
#904 = CARTESIAN_POINT ( 'NONE',  ( -37.00000000000000000, 39.99999999999999289, 13.00000000000000000 ) ) ;
#905 = VECTOR ( 'NONE', #894, 1000.000000000000000 ) ;
#906 = DIRECTION ( 'NONE',  ( 1.000000000000000000, 0.000000000000000000, 0.000000000000000000 ) ) ;
#907 = EDGE_CURVE ( 'NONE', #728, #304, #641, .T. ) ;
#908 = VERTEX_POINT ( 'NONE', #171 ) ;
#909 = CIRCLE ( 'NONE', #830, 25.00000000000000000 ) ;
#910 = CYLINDRICAL_SURFACE ( 'NONE', #655, 15.00000000000000178 ) ;
#911 = AXIS2_PLACEMENT_3D ( 'NONE', #826, #521, #1106 ) ;
#912 = DIRECTION ( 'NONE',  ( -0.000000000000000000, -0.000000000000000000, -1.000000000000000000 ) ) ;
#913 = CARTESIAN_POINT ( 'NONE',  ( 21.23779144359532012, 0.000000000000000000, 10.00000000000000000 ) ) ;
#914 = CARTESIAN_POINT ( 'NONE',  ( 1.836970198721029983E-15, 0.000000000000000000, -15.00000000000000178 ) ) ;
#915 = ORIENTED_EDGE ( 'NONE', *, *, #5, .F. ) ;
#916 = ADVANCED_FACE ( 'NONE', ( #243 ), #1196, .T. ) ;
#917 = FACE_OUTER_BOUND ( 'NONE', #676, .T. ) ;
#918 = CARTESIAN_POINT ( 'NONE',  ( -57.00000000000000000, 60.00000000000000000, 3.000000000000008438 ) ) ;
#919 = CYLINDRICAL_SURFACE ( 'NONE', #457, 20.00000000000000355 ) ;
#920 = FACE_OUTER_BOUND ( 'NONE', #240, .T. ) ;
#921 = ORIENTED_EDGE ( 'NONE', *, *, #1198, .F. ) ;
#922 = DIRECTION ( 'NONE',  ( 0.000000000000000000, 0.000000000000000000, 1.000000000000000000 ) ) ;
#923 = ADVANCED_FACE ( 'NONE', ( #426 ), #717, .F. ) ;
#924 = DIRECTION ( 'NONE',  ( 0.000000000000000000, 0.000000000000000000, 1.000000000000000000 ) ) ;
#925 = VERTEX_POINT ( 'NONE', #626 ) ;
#926 = LINE ( 'NONE', #84, #167 ) ;
#927 = ORIENTED_EDGE ( 'NONE', *, *, #718, .F. ) ;
#928 = CIRCLE ( 'NONE', #1205, 19.99999999999990763 ) ;
#929 = AXIS2_PLACEMENT_3D ( 'NONE', #724, #163, #540 ) ;
#930 = DIRECTION ( 'NONE',  ( 0.000000000000000000, 0.000000000000000000, 1.000000000000000000 ) ) ;
#931 = VECTOR ( 'NONE', #829, 1000.000000000000000 ) ;
#932 = AXIS2_PLACEMENT_3D ( 'NONE', #257, #630, #548 ) ;
#933 = DIRECTION ( 'NONE',  ( 1.000000000000000000, -0.000000000000000000, -1.845316948019291094E-16 ) ) ;
#934 = LINE ( 'NONE', #1200, #242 ) ;
#935 = ORIENTED_EDGE ( 'NONE', *, *, #159, .F. ) ;
#936 = CARTESIAN_POINT ( 'NONE',  ( 3.061616997868383043E-15, 80.00000000000000000, 25.00000000000000000 ) ) ;
#937 = CARTESIAN_POINT ( 'NONE',  ( 0.000000000000000000, 80.00000000000000000, 0.000000000000000000 ) ) ;
#938 = LINE ( 'NONE', #949, #395 ) ;
#939 = ORIENTED_EDGE ( 'NONE', *, *, #488, .F. ) ;
#940 = DIRECTION ( 'NONE',  ( 0.000000000000000000, 0.000000000000000000, 1.000000000000000000 ) ) ;
#941 = DIRECTION ( 'NONE',  ( -0.000000000000000000, -0.000000000000000000, -1.000000000000000000 ) ) ;
#942 = ORIENTED_EDGE ( 'NONE', *, *, #305, .T. ) ;
#943 = EDGE_CURVE ( 'NONE', #489, #1007, #791, .T. ) ;
#944 = ORIENTED_EDGE ( 'NONE', *, *, #1021, .T. ) ;
#945 = VECTOR ( 'NONE', #179, 1000.000000000000000 ) ;
#946 = LINE ( 'NONE', #652, #2 ) ;
#947 = VECTOR ( 'NONE', #989, 1000.000000000000000 ) ;
#948 = LOCAL_TIME ( 16, 22, 9.000000000000000000, #118 ) ;
#949 = CARTESIAN_POINT ( 'NONE',  ( -21.35415650406262245, 80.00000000000000000, -13.00000000000000000 ) ) ;
#950 = ORIENTED_EDGE ( 'NONE', *, *, #1004, .F. ) ;
#951 = CARTESIAN_POINT ( 'NONE',  ( 9.999999999999957367, 40.00000000000000000, 5.000000000000000000 ) ) ;
#952 = COORDINATED_UNIVERSAL_TIME_OFFSET ( 1, 0, .AHEAD. ) ;
#953 = CARTESIAN_POINT ( 'NONE',  ( 57.00000000000000000, 20.00000000000000000, -10.00000000000000000 ) ) ;
#954 = ORIENTED_EDGE ( 'NONE', *, *, #1049, .T. ) ;
#955 = ORIENTED_EDGE ( 'NONE', *, *, #740, .T. ) ;
#956 = CARTESIAN_POINT ( 'NONE',  ( -14.69693845669906906, 0.000000000000000000, -2.999999999999999556 ) ) ;
#957 = APPROVAL_ROLE ( '' ) ;
#958 = EDGE_CURVE ( 'NONE', #502, #631, #1088, .T. ) ;
#959 = CARTESIAN_POINT ( 'NONE',  ( 37.00000000000009948, 20.00000000000000000, 10.00000000000000000 ) ) ;
#960 = EDGE_LOOP ( 'NONE', ( #323, #295, #248 ) ) ;
#961 = ORIENTED_EDGE ( 'NONE', *, *, #621, .T. ) ;
#962 = CARTESIAN_POINT ( 'NONE',  ( 57.00000000000000711, 20.00000000000001421, -20.00000000000000000 ) ) ;
#963 = PERSON_AND_ORGANIZATION_ROLE ( 'classification_officer' ) ;
#964 = AXIS2_PLACEMENT_3D ( 'NONE', #90, #461, #568 ) ;
#965 = CARTESIAN_POINT ( 'NONE',  ( 21.23779144359532012, 40.00000000000000000, -10.00000000000000000 ) ) ;
#966 = ADVANCED_FACE ( 'NONE', ( #917 ), #150, .T. ) ;
#967 = VERTEX_POINT ( 'NONE', #249 ) ;
#968 = VECTOR ( 'NONE', #1115, 1000.000000000000000 ) ;
#969 = APPROVAL ( #393, 'UNSPECIFIED' ) ;
#970 = VERTEX_POINT ( 'NONE', #620 ) ;
#971 = CARTESIAN_POINT ( 'NONE',  ( -37.00000000000000000, 60.00000000000000000, -2.999999999999997335 ) ) ;
#972 = PERSON_AND_ORGANIZATION ( #207, #1066 ) ;
#973 = CARTESIAN_POINT ( 'NONE',  ( -14.69693845669906906, 0.000000000000000000, -2.999999999999999556 ) ) ;
#974 = ORIENTED_EDGE ( 'NONE', *, *, #454, .T. ) ;
#975 = EDGE_CURVE ( 'NONE', #212, #793, #72, .T. ) ;
#976 = VERTEX_POINT ( 'NONE', #902 ) ;
#977 = DIRECTION ( 'NONE',  ( -1.000000000000000000, 0.000000000000000000, 0.000000000000000000 ) ) ;
#978 = LINE ( 'NONE', #1076, #1042 ) ;
#979 = EDGE_LOOP ( 'NONE', ( #896, #1114, #927, #640, #694, #722, #188, #474, #1159, #921, #888, #182 ) ) ;
#980 = EDGE_LOOP ( 'NONE', ( #899, #19, #600, #329 ) ) ;
#981 = EDGE_CURVE ( 'NONE', #26, #489, #1108, .T. ) ;
#982 = CARTESIAN_POINT ( 'NONE',  ( 44.99999999999998579, 40.00000000000000000, 5.000000000000000000 ) ) ;
#983 = DIRECTION ( 'NONE',  ( -0.000000000000000000, -0.000000000000000000, -1.000000000000000000 ) ) ;
#984 = AXIS2_PLACEMENT_3D ( 'NONE', #903, #434, #812 ) ;
#985 = EDGE_LOOP ( 'NONE', ( #47, #258, #492, #565 ) ) ;
#986 = VECTOR ( 'NONE', #786, 1000.000000000000000 ) ;
#987 = PRODUCT_DEFINITION_FORMATION_WITH_SPECIFIED_SOURCE ( 'ANY', '', #28, .NOT_KNOWN. ) ;
#988 = ORIENTED_EDGE ( 'NONE', *, *, #538, .F. ) ;
#989 = DIRECTION ( 'NONE',  ( -0.000000000000000000, -0.000000000000000000, -1.000000000000000000 ) ) ;
#990 = ADVANCED_FACE ( 'NONE', ( #348 ), #910, .F. ) ;
#991 = CARTESIAN_POINT ( 'NONE',  ( 57.00000000000000000, 20.00000000000000000, 10.00000000000000000 ) ) ;
#992 = VERTEX_POINT ( 'NONE', #1109 ) ;
#993 = DIRECTION ( 'NONE',  ( 0.000000000000000000, 0.000000000000000000, 1.000000000000000000 ) ) ;
#994 = ORIENTED_EDGE ( 'NONE', *, *, #725, .T. ) ;
#995 = DIRECTION ( 'NONE',  ( -0.000000000000000000, -0.000000000000000000, -1.000000000000000000 ) ) ;
#996 = FACE_BOUND ( 'NONE', #316, .T. ) ;
#997 = EDGE_CURVE ( 'NONE', #967, #46, #733, .T. ) ;
#998 = ORIENTED_EDGE ( 'NONE', *, *, #192, .F. ) ;
#999 = DIRECTION ( 'NONE',  ( -1.000000000000000000, 0.000000000000000000, 8.673617379884034239E-17 ) ) ;
#1000 = VERTEX_POINT ( 'NONE', #1027 ) ;
#1001 = CARTESIAN_POINT ( 'NONE',  ( -57.00000000000000000, 60.00000000000000000, 13.00000000000000000 ) ) ;
#1002 = CARTESIAN_POINT ( 'NONE',  ( 57.00000000000000711, 20.00000000000001421, 10.00000000000000000 ) ) ;
#1003 = LINE ( 'NONE', #263, #729 ) ;
#1004 = EDGE_CURVE ( 'NONE', #704, #121, #651, .T. ) ;
#1005 = CIRCLE ( 'NONE', #60, 10.00000000000000178 ) ;
#1006 = CARTESIAN_POINT ( 'NONE',  ( -37.00000000000000000, 39.99999999999999289, -2.999999999999990674 ) ) ;
#1007 = VERTEX_POINT ( 'NONE', #190 ) ;
#1008 = AXIS2_PLACEMENT_3D ( 'NONE', #259, #897, #156 ) ;
#1009 = AXIS2_PLACEMENT_3D ( 'NONE', #160, #993, #527 ) ;
#1010 = DIRECTION ( 'NONE',  ( 0.000000000000000000, 1.000000000000000000, 0.000000000000000000 ) ) ;
#1011 = FACE_OUTER_BOUND ( 'NONE', #71, .T. ) ;
#1012 = CARTESIAN_POINT ( 'NONE',  ( -24.81934729198171397, 80.00000000000000000, 3.000000000000002220 ) ) ;
#1013 = FACE_OUTER_BOUND ( 'NONE', #400, .T. ) ;
#1014 = ORIENTED_EDGE ( 'NONE', *, *, #214, .F. ) ;
#1015 = DIRECTION ( 'NONE',  ( 1.000000000000000000, 0.000000000000000000, -1.951563910473907735E-16 ) ) ;
#1016 = DIRECTION ( 'NONE',  ( -1.000000000000000000, 0.000000000000000000, 9.226584740096455472E-17 ) ) ;
#1017 = FACE_OUTER_BOUND ( 'NONE', #397, .T. ) ;
#1018 = DIRECTION ( 'NONE',  ( -0.000000000000000000, -0.000000000000000000, -1.000000000000000000 ) ) ;
#1019 = ORIENTED_EDGE ( 'NONE', *, *, #560, .F. ) ;
#1020 = CARTESIAN_POINT ( 'NONE',  ( -37.00000000000000000, 39.99999999999999289, 3.000000000000004441 ) ) ;
#1021 = EDGE_CURVE ( 'NONE', #895, #332, #362, .T. ) ;
#1022 = DIRECTION ( 'NONE',  ( -0.000000000000000000, -0.000000000000000000, -1.000000000000000000 ) ) ;
#1023 = DIRECTION ( 'NONE',  ( 0.000000000000000000, 0.000000000000000000, 1.000000000000000000 ) ) ;
#1024 = ORIENTED_EDGE ( 'NONE', *, *, #401, .T. ) ;
#1025 = AXIS2_PLACEMENT_3D ( 'NONE', #193, #210, #472 ) ;
#1026 = AXIS2_PLACEMENT_3D ( 'NONE', #172, #818, #534 ) ;
#1027 = CARTESIAN_POINT ( 'NONE',  ( -26.99999999999999645, 60.00000000000000000, -2.999999999999998224 ) ) ;
#1028 = CYLINDRICAL_SURFACE ( 'NONE', #848, 15.00000000000000178 ) ;
#1029 = DIRECTION ( 'NONE',  ( -1.000000000000000000, 0.000000000000000000, 0.000000000000000000 ) ) ;
#1030 = PERSON_AND_ORGANIZATION_ROLE ( 'design_supplier' ) ;
#1031 = ORIENTED_EDGE ( 'NONE', *, *, #99, .T. ) ;
#1032 = PLANE ( 'NONE',  #164 ) ;
#1033 = FACE_OUTER_BOUND ( 'NONE', #1078, .T. ) ;
#1034 = ADVANCED_FACE ( 'NONE', ( #1212 ), #1217, .F. ) ;
#1035 = DIRECTION ( 'NONE',  ( 0.000000000000000000, 0.000000000000000000, 1.000000000000000000 ) ) ;
#1036 = DIRECTION ( 'NONE',  ( -0.000000000000000000, -0.000000000000000000, -1.000000000000000000 ) ) ;
#1037 = CC_DESIGN_PERSON_AND_ORGANIZATION_ASSIGNMENT ( #24, #963, ( #772 ) ) ;
#1038 = EDGE_LOOP ( 'NONE', ( #1195, #111 ) ) ;
#1039 = CC_DESIGN_DATE_AND_TIME_ASSIGNMENT ( #678, #284, ( #388 ) ) ;
#1040 = VERTEX_POINT ( 'NONE', #465 ) ;
#1041 = AXIS2_PLACEMENT_3D ( 'NONE', #115, #855, #119 ) ;
#1042 = VECTOR ( 'NONE', #234, 1000.000000000000000 ) ;
#1043 = DIRECTION ( 'NONE',  ( -0.000000000000000000, 1.000000000000000000, -0.000000000000000000 ) ) ;
#1044 = AXIS2_PLACEMENT_3D ( 'NONE', #962, #325, #213 ) ;
#1045 = VECTOR ( 'NONE', #183, 1000.000000000000000 ) ;
#1046 = CIRCLE ( 'NONE', #1086, 12.49999999999999645 ) ;
#1047 = FACE_OUTER_BOUND ( 'NONE', #1072, .T. ) ;
#1048 = ORIENTED_EDGE ( 'NONE', *, *, #675, .T. ) ;
#1049 = EDGE_CURVE ( 'NONE', #661, #1203, #811, .T. ) ;
#1050 = LINE ( 'NONE', #601, #653 ) ;
#1051 =( NAMED_UNIT ( * ) PLANE_ANGLE_UNIT ( ) SI_UNIT ( $, .RADIAN. ) );
#1052 = CYLINDRICAL_SURFACE ( 'NONE', #614, 25.00000000000000000 ) ;
#1053 = ORIENTED_EDGE ( 'NONE', *, *, #801, .T. ) ;
#1054 = ORIENTED_EDGE ( 'NONE', *, *, #725, .F. ) ;
#1055 = EDGE_CURVE ( 'NONE', #1007, #347, #645, .T. ) ;
#1056 = CARTESIAN_POINT ( 'NONE',  ( 57.00000000000000711, 20.00000000000001421, -24.99999999999999645 ) ) ;
#1057 = APPROVAL_STATUS ( 'not_yet_approved' ) ;
#1058 = DIRECTION ( 'NONE',  ( -1.000000000000000000, 0.000000000000000000, 0.000000000000000000 ) ) ;
#1059 = ORIENTED_EDGE ( 'NONE', *, *, #599, .F. ) ;
#1060 = ORIENTED_EDGE ( 'NONE', *, *, #1130, .T. ) ;
#1061 = CARTESIAN_POINT ( 'NONE',  ( 25.00000000000000000, 75.00000000000000000, -5.000000000000000000 ) ) ;
#1062 = VECTOR ( 'NONE', #647, 1000.000000000000000 ) ;
#1063 = CALENDAR_DATE ( 2026, 12, 9 ) ;
#1064 = CIRCLE ( 'NONE', #553, 10.00000000000000178 ) ;
#1065 = DIRECTION ( 'NONE',  ( -1.000000000000000000, 0.000000000000000000, 0.000000000000000000 ) ) ;
#1066 = ORGANIZATION ( 'UNSPECIFIED', 'UNSPECIFIED', '' ) ;
#1067 = ORIENTED_EDGE ( 'NONE', *, *, #710, .F. ) ;
#1068 = AXIS2_PLACEMENT_3D ( 'NONE', #174, #247, #542 ) ;
#1069 = ORIENTED_EDGE ( 'NONE', *, *, #497, .F. ) ;
#1070 = DIRECTION ( 'NONE',  ( 0.000000000000000000, 1.000000000000000000, 0.000000000000000000 ) ) ;
#1071 = DIRECTION ( 'NONE',  ( 0.000000000000000000, 1.000000000000000000, 0.000000000000000000 ) ) ;
#1072 = EDGE_LOOP ( 'NONE', ( #1014, #935, #1153, #333, #775 ) ) ;
#1073 = EDGE_CURVE ( 'NONE', #895, #109, #435, .T. ) ;
#1074 = ORIENTED_EDGE ( 'NONE', *, *, #112, .F. ) ;
#1075 = CARTESIAN_POINT ( 'NONE',  ( -37.00000000000000000, 60.00000000000000000, 13.00000000000000000 ) ) ;
#1076 = CARTESIAN_POINT ( 'NONE',  ( 57.00000000000000000, 0.000000000000000000, 10.00000000000000000 ) ) ;
#1077 = ORIENTED_EDGE ( 'NONE', *, *, #274, .T. ) ;
#1078 = EDGE_LOOP ( 'NONE', ( #882, #1060, #297, #684 ) ) ;
#1079 = DIRECTION ( 'NONE',  ( 0.000000000000000000, 0.000000000000000000, 1.000000000000000000 ) ) ;
#1080 = DIRECTION ( 'NONE',  ( -1.000000000000000000, 0.000000000000000000, 8.673617379884034239E-17 ) ) ;
#1081 = VECTOR ( 'NONE', #294, 1000.000000000000000 ) ;
#1082 = CIRCLE ( 'NONE', #929, 10.00000000000000178 ) ;
#1083 = ORIENTED_EDGE ( 'NONE', *, *, #1130, .F. ) ;
#1084 = AXIS2_PLACEMENT_3D ( 'NONE', #369, #748, #1122 ) ;
#1085 = LOCAL_TIME ( 16, 22, 9.000000000000000000, #404 ) ;
#1086 = AXIS2_PLACEMENT_3D ( 'NONE', #91, #1023, #1188 ) ;
#1087 = ORIENTED_EDGE ( 'NONE', *, *, #958, .T. ) ;
#1088 = LINE ( 'NONE', #803, #947 ) ;
#1089 = EDGE_CURVE ( 'NONE', #520, #367, #226, .T. ) ;
#1090 = CARTESIAN_POINT ( 'NONE',  ( 44.99999999999997868, 40.00000000000000000, -4.999999999999999112 ) ) ;
#1091 = DIRECTION ( 'NONE',  ( -0.000000000000000000, 1.000000000000000000, -0.000000000000000000 ) ) ;
#1092 = CARTESIAN_POINT ( 'NONE',  ( -26.99999999999999645, 60.00000000000000000, 13.00000000000000000 ) ) ;
#1093 = VERTEX_POINT ( 'NONE', #1194 ) ;
#1094 = DIRECTION ( 'NONE',  ( 1.000000000000000000, 0.000000000000000000, 0.000000000000000000 ) ) ;
#1095 = EDGE_CURVE ( 'NONE', #1000, #353, #807, .T. ) ;
#1096 = DIRECTION ( 'NONE',  ( -0.000000000000000000, -0.000000000000000000, 1.000000000000000000 ) ) ;
#1097 = CC_DESIGN_DATE_AND_TIME_ASSIGNMENT ( #494, #871, ( #772 ) ) ;
#1098 = DIRECTION ( 'NONE',  ( -0.000000000000000000, -1.000000000000000000, -0.000000000000000000 ) ) ;
#1099 = DIRECTION ( 'NONE',  ( -1.000000000000000000, 0.000000000000000000, 0.000000000000000000 ) ) ;
#1100 = ORIENTED_EDGE ( 'NONE', *, *, #151, .T. ) ;
#1101 = CARTESIAN_POINT ( 'NONE',  ( -21.35415650406262955, 80.00000000000000000, -13.00000000000000000 ) ) ;
#1102 = DIRECTION ( 'NONE',  ( 0.000000000000000000, -0.000000000000000000, 1.000000000000000000 ) ) ;
#1103 = CARTESIAN_POINT ( 'NONE',  ( 25.00000000000000000, 75.00000000000000000, 5.000000000000000000 ) ) ;
#1104 = EDGE_CURVE ( 'NONE', #347, #1190, #87, .T. ) ;
#1105 = AXIS2_PLACEMENT_3D ( 'NONE', #300, #940, #290 ) ;
#1106 = DIRECTION ( 'NONE',  ( 0.000000000000000000, 0.000000000000000000, 1.000000000000000000 ) ) ;
#1107 = VERTEX_POINT ( 'NONE', #70 ) ;
#1108 = CIRCLE ( 'NONE', #571, 20.00000000000000355 ) ;
#1109 = CARTESIAN_POINT ( 'NONE',  ( 24.49489742783178414, 40.00000000000000000, -4.999999999999999112 ) ) ;
#1110 = DIRECTION ( 'NONE',  ( 0.000000000000000000, 1.000000000000000000, 0.000000000000000000 ) ) ;
#1111 = CARTESIAN_POINT ( 'NONE',  ( 21.23779144359532012, 40.00000000000000000, 5.000000000000000000 ) ) ;
#1112 = CARTESIAN_POINT ( 'NONE',  ( 0.000000000000000000, 39.99999999999999289, 0.000000000000000000 ) ) ;
#1113 = ADVANCED_FACE ( 'NONE', ( #429, #1202 ), #449, .F. ) ;
#1114 = ORIENTED_EDGE ( 'NONE', *, *, #854, .F. ) ;
#1115 = DIRECTION ( 'NONE',  ( -0.000000000000000000, 1.000000000000000000, -0.000000000000000000 ) ) ;
#1116 = DIRECTION ( 'NONE',  ( 0.000000000000000000, 1.000000000000000000, 0.000000000000000000 ) ) ;
#1117 = LINE ( 'NONE', #1012, #208 ) ;
#1118 = COORDINATED_UNIVERSAL_TIME_OFFSET ( 1, 0, .AHEAD. ) ;
#1119 = ORIENTED_EDGE ( 'NONE', *, *, #409, .F. ) ;
#1120 = DIRECTION ( 'NONE',  ( 1.000000000000000000, 0.000000000000000000, -0.000000000000000000 ) ) ;
#1121 = EDGE_CURVE ( 'NONE', #1165, #212, #831, .T. ) ;
#1122 = DIRECTION ( 'NONE',  ( -1.000000000000000000, 0.000000000000000000, 8.673617379884034239E-17 ) ) ;
#1123 = CARTESIAN_POINT ( 'NONE',  ( 24.49489742783178414, 80.00000000000000000, -5.000000000000000000 ) ) ;
#1124 = PERSON_AND_ORGANIZATION_ROLE ( 'design_owner' ) ;
#1125 = ORIENTED_EDGE ( 'NONE', *, *, #943, .F. ) ;
#1126 = AXIS2_PLACEMENT_3D ( 'NONE', #819, #840, #455 ) ;
#1127 = VECTOR ( 'NONE', #885, 1000.000000000000000 ) ;
#1128 = AXIS2_PLACEMENT_3D ( 'NONE', #1177, #335, #177 ) ;
#1129 = CIRCLE ( 'NONE', #1009, 10.00000000000000178 ) ;
#1130 = EDGE_CURVE ( 'NONE', #847, #489, #926, .T. ) ;
#1131 = DIRECTION ( 'NONE',  ( 1.845316948019291341E-16, 0.000000000000000000, 1.000000000000000000 ) ) ;
#1132 = FACE_BOUND ( 'NONE', #593, .T. ) ;
#1133 = ORIENTED_EDGE ( 'NONE', *, *, #526, .F. ) ;
#1134 = DIRECTION ( 'NONE',  ( 0.000000000000000000, 0.000000000000000000, 1.000000000000000000 ) ) ;
#1135 = EDGE_CURVE ( 'NONE', #10, #502, #378, .T. ) ;
#1136 = LINE ( 'NONE', #1123, #735 ) ;
#1137 = ORIENTED_EDGE ( 'NONE', *, *, #334, .F. ) ;
#1138 = CARTESIAN_POINT ( 'NONE',  ( 24.49489742783178414, 75.88392950129437509, -5.000000000000000000 ) ) ;
#1139 = DIRECTION ( 'NONE',  ( 1.000000000000000000, 0.000000000000000000, 0.000000000000000000 ) ) ;
#1140 = EDGE_LOOP ( 'NONE', ( #38, #875, #1024, #556 ) ) ;
#1141 = AXIS2_PLACEMENT_3D ( 'NONE', #824, #912, #355 ) ;
#1142 = CARTESIAN_POINT ( 'NONE',  ( 37.00000000000009948, 20.00000000000000000, -20.00000000000000000 ) ) ;
#1143 = CIRCLE ( 'NONE', #491, 15.00000000000000178 ) ;
#1144 = VECTOR ( 'NONE', #94, 1000.000000000000000 ) ;
#1145 = AXIS2_PLACEMENT_3D ( 'NONE', #570, #387, #671 ) ;
#1146 = PERSON_AND_ORGANIZATION_ROLE ( 'creator' ) ;
#1147 = DIRECTION ( 'NONE',  ( -0.000000000000000000, -0.000000000000000000, -1.000000000000000000 ) ) ;
#1148 = EDGE_CURVE ( 'NONE', #502, #10, #1129, .T. ) ;
#1149 = ORIENTED_EDGE ( 'NONE', *, *, #424, .F. ) ;
#1150 = LINE ( 'NONE', #1061, #1204 ) ;
#1151 = DIRECTION ( 'NONE',  ( -0.000000000000000000, -0.000000000000000000, -1.000000000000000000 ) ) ;
#1152 = EDGE_LOOP ( 'NONE', ( #120, #881 ) ) ;
#1153 = ORIENTED_EDGE ( 'NONE', *, *, #112, .T. ) ;
#1154 = DIRECTION ( 'NONE',  ( 1.000000000000000000, 0.000000000000000000, -1.734723475976806848E-16 ) ) ;
#1155 = ADVANCED_FACE ( 'NONE', ( #920 ), #458, .T. ) ;
#1156 = PERSON_AND_ORGANIZATION ( #207, #1066 ) ;
#1157 = DIRECTION ( 'NONE',  ( -1.000000000000000000, 0.000000000000000000, 0.000000000000000000 ) ) ;
#1158 = EDGE_LOOP ( 'NONE', ( #796, #843, #93, #1149, #942, #134, #431, #459 ) ) ;
#1159 = ORIENTED_EDGE ( 'NONE', *, *, #774, .F. ) ;
#1160 = LINE ( 'NONE', #138, #986 ) ;
#1161 = CIRCLE ( 'NONE', #510, 25.00000000000000000 ) ;
#1162 = ADVANCED_FACE ( 'NONE', ( #76, #340 ), #346, .F. ) ;
#1163 = CARTESIAN_POINT ( 'NONE',  ( 57.00000000000000000, 0.000000000000000000, 10.00000000000000000 ) ) ;
#1164 = LOCAL_TIME ( 16, 22, 9.000000000000000000, #1118 ) ;
#1165 = VERTEX_POINT ( 'NONE', #1006 ) ;
#1166 = ORIENTED_EDGE ( 'NONE', *, *, #907, .T. ) ;
#1167 = PLANE ( 'NONE',  #1044 ) ;
#1168 = LINE ( 'NONE', #36, #143 ) ;
#1169 = ORIENTED_EDGE ( 'NONE', *, *, #1198, .T. ) ;
#1170 = APPROVAL ( #30, 'UNSPECIFIED' ) ;
#1171 = EDGE_LOOP ( 'NONE', ( #1083, #140, #419, #51 ) ) ;
#1172 = CARTESIAN_POINT ( 'NONE',  ( -14.69693845669906906, 0.000000000000000000, 3.000000000000000000 ) ) ;
#1173 = DIRECTION ( 'NONE',  ( -0.000000000000000000, -0.000000000000000000, -1.000000000000000000 ) ) ;
#1174 = ORIENTED_EDGE ( 'NONE', *, *, #280, .F. ) ;
#1175 = EDGE_CURVE ( 'NONE', #46, #1165, #168, .T. ) ;
#1176 = VERTEX_POINT ( 'NONE', #914 ) ;
#1177 = CARTESIAN_POINT ( 'NONE',  ( 0.000000000000000000, 80.00000000000000000, 0.000000000000000000 ) ) ;
#1178 = DIRECTION ( 'NONE',  ( -0.000000000000000000, -0.000000000000000000, -1.000000000000000000 ) ) ;
#1179 = VECTOR ( 'NONE', #933, 1000.000000000000000 ) ;
#1180 = VERTEX_POINT ( 'NONE', #443 ) ;
#1181 = AXIS2_PLACEMENT_3D ( 'NONE', #971, #117, #512 ) ;
#1182 = DIRECTION ( 'NONE',  ( 0.000000000000000000, 1.000000000000000000, 0.000000000000000000 ) ) ;
#1183 = LOCAL_TIME ( 16, 22, 9.000000000000000000, #952 ) ;
#1184 = EDGE_LOOP ( 'NONE', ( #509, #700 ) ) ;
#1185 = EDGE_CURVE ( 'NONE', #383, #1190, #820, .T. ) ;
#1186 = DIRECTION ( 'NONE',  ( 0.000000000000000000, 0.000000000000000000, 1.000000000000000000 ) ) ;
#1187 = CARTESIAN_POINT ( 'NONE',  ( 57.00000000000000711, 20.00000000000001421, 20.00000000000000000 ) ) ;
#1188 = DIRECTION ( 'NONE',  ( 1.000000000000000000, 0.000000000000000000, 0.000000000000000000 ) ) ;
#1189 = DIRECTION ( 'NONE',  ( -0.000000000000000000, -0.000000000000000000, -1.000000000000000000 ) ) ;
#1190 = VERTEX_POINT ( 'NONE', #1209 ) ;
#1191 = CARTESIAN_POINT ( 'NONE',  ( 0.000000000000000000, 80.00000000000000000, 0.000000000000000000 ) ) ;
#1192 = LINE ( 'NONE', #1197, #83 ) ;
#1193 = CARTESIAN_POINT ( 'NONE',  ( -47.00000000000000000, 60.00000000000000000, 13.00000000000000000 ) ) ;
#1194 = CARTESIAN_POINT ( 'NONE',  ( -24.81934729198171397, 0.000000000000000000, -2.999999999999998668 ) ) ;
#1195 = ORIENTED_EDGE ( 'NONE', *, *, #823, .T. ) ;
#1196 = PLANE ( 'NONE',  #103 ) ;
#1197 = CARTESIAN_POINT ( 'NONE',  ( 37.00000000000000711, 20.00000000000000000, 10.00000000000000000 ) ) ;
#1198 = EDGE_CURVE ( 'NONE', #317, #827, #105, .T. ) ;
#1199 = CIRCLE ( 'NONE', #574, 19.99999999999990763 ) ;
#1200 = CARTESIAN_POINT ( 'NONE',  ( 1.836970198721029983E-15, 0.000000000000000000, -15.00000000000000178 ) ) ;
#1201 = AXIS2_PLACEMENT_3D ( 'NONE', #1002, #622, #447 ) ;
#1202 = FACE_OUTER_BOUND ( 'NONE', #149, .T. ) ;
#1203 = VERTEX_POINT ( 'NONE', #638 ) ;
#1204 = VECTOR ( 'NONE', #701, 1000.000000000000114 ) ;
#1205 = AXIS2_PLACEMENT_3D ( 'NONE', #764, #559, #660 ) ;
#1206 = CARTESIAN_POINT ( 'NONE',  ( 57.00000000000000711, 20.00000000000001421, -24.99999999999999645 ) ) ;
#1207 = LINE ( 'NONE', #363, #552 ) ;
#1208 = LINE ( 'NONE', #1111, #39 ) ;
#1209 = CARTESIAN_POINT ( 'NONE',  ( -21.35415650406262600, 39.99999999999999289, 12.99999999999999645 ) ) ;
#1210 = ORIENTED_EDGE ( 'NONE', *, *, #564, .F. ) ;
#1211 = ADVANCED_FACE ( 'NONE', ( #1013 ), #365, .T. ) ;
#1212 = FACE_OUTER_BOUND ( 'NONE', #202, .T. ) ;
#1213 = CARTESIAN_POINT ( 'NONE',  ( 25.17066629700540403, 74.70133398024054827, 1.689422172934059718 ) ) ;
#1214 = CARTESIAN_POINT ( 'NONE',  ( 57.00000000000000711, 20.00000000000001421, -20.00000000000000000 ) ) ;
#1215 = VERTEX_POINT ( 'NONE', #360 ) ;
#1216 = EDGE_CURVE ( 'NONE', #65, #1007, #900, .T. ) ;
#1217 = PLANE ( 'NONE',  #125 ) ;
#1218 = CARTESIAN_POINT ( 'NONE',  ( -37.00000000000000000, 60.00000000000000000, 3.000000000000004441 ) ) ;
#1219 = DIRECTION ( 'NONE',  ( 0.000000000000000000, 1.000000000000000000, 0.000000000000000000 ) ) ;
ENDSEC;
END-ISO-10303-21;
