ISO-10303-21;
HEADER;
FILE_DESCRIPTION (( 'STEP AP214' ),
    '1' );
FILE_NAME ('plate with a pocket.STEP',
    '2026-06-25T21:28:15',
    ( '' ),
    ( '' ),
    'SwSTEP 2.0',
    'SolidWorks 2022',
    '' );
FILE_SCHEMA (( 'AUTOMOTIVE_DESIGN' ));
ENDSEC;

DATA;
#1 = EDGE_CURVE ( 'NONE', #182, #40, #796, .T. ) ;
#2 = FACE_BOUND ( 'NONE', #37, .T. ) ;
#3 = ORIENTED_EDGE ( 'NONE', *, *, #509, .T. ) ;
#4 = DIRECTION ( 'NONE',  ( -0.000000000000000000, -0.000000000000000000, 1.000000000000000000 ) ) ;
#5 = EDGE_CURVE ( 'NONE', #497, #792, #546, .T. ) ;
#6 = DIRECTION ( 'NONE',  ( 0.000000000000000000, 0.000000000000000000, -1.000000000000000000 ) ) ;
#7 = ORIENTED_EDGE ( 'NONE', *, *, #346, .T. ) ;
#8 = CARTESIAN_POINT ( 'NONE',  ( 50.00000000000000711, -40.00000000000000000, 15.00000000000000000 ) ) ;
#9 = ORIENTED_EDGE ( 'NONE', *, *, #455, .F. ) ;
#10 = VERTEX_POINT ( 'NONE', #595 ) ;
#11 = COLOUR_RGB ( '',0.7764705882352941346, 0.7568627450980391913, 0.7372549019607843590 ) ;
#12 = FACE_OUTER_BOUND ( 'NONE', #779, .T. ) ;
#13 = CARTESIAN_POINT ( 'NONE',  ( -49.99999999999997158, 29.99999999999999289, 0.000000000000000000 ) ) ;
#14 = AXIS2_PLACEMENT_3D ( 'NONE', #727, #465, #391 ) ;
#15 = VECTOR ( 'NONE', #41, 1000.000000000000000 ) ;
#16 = EDGE_CURVE ( 'NONE', #173, #792, #20, .T. ) ;
#17 = VECTOR ( 'NONE', #276, 1000.000000000000000 ) ;
#18 =( NAMED_UNIT ( * ) SI_UNIT ( $, .STERADIAN. ) SOLID_ANGLE_UNIT ( ) );
#19 = FILL_AREA_STYLE ('',( #592 ) ) ;
#20 = LINE ( 'NONE', #403, #802 ) ;
#21 = DIRECTION ( 'NONE',  ( 0.000000000000000000, 0.000000000000000000, 1.000000000000000000 ) ) ;
#22 = FILL_AREA_STYLE ('',( #205 ) ) ;
#23 = CARTESIAN_POINT ( 'NONE',  ( 0.000000000000000000, 0.000000000000000000, 0.000000000000000000 ) ) ;
#24 = CARTESIAN_POINT ( 'NONE',  ( 46.60000000000000142, -29.99999999999999645, 15.00000000000000000 ) ) ;
#25 = EDGE_CURVE ( 'NONE', #174, #183, #401, .T. ) ;
#26 = LINE ( 'NONE', #154, #400 ) ;
#27 = DIRECTION ( 'NONE',  ( 1.000000000000000000, 0.000000000000000000, 0.000000000000000000 ) ) ;
#28 = PLANE ( 'NONE',  #98 ) ;
#29 = EDGE_CURVE ( 'NONE', #184, #182, #681, .T. ) ;
#30 = PRESENTATION_STYLE_ASSIGNMENT (( #755 ) ) ;
#31 = UNCERTAINTY_MEASURE_WITH_UNIT (LENGTH_MEASURE( 1.000000000000000082E-05 ), #261, 'distance_accuracy_value', 'NONE');
#32 = DIRECTION ( 'NONE',  ( 0.000000000000000000, -0.000000000000000000, 1.000000000000000000 ) ) ;
#33 = STYLED_ITEM ( 'NONE', ( #582 ), #690 ) ;
#34 = SURFACE_SIDE_STYLE ('',( #748 ) ) ;
#35 = AXIS2_PLACEMENT_3D ( 'NONE', #324, #664, #740 ) ;
#36 =( LENGTH_UNIT ( ) NAMED_UNIT ( * ) SI_UNIT ( .MILLI., .METRE. ) );
#37 = EDGE_LOOP ( 'NONE', ( #362, #522 ) ) ;
#38 = ORIENTED_EDGE ( 'NONE', *, *, #711, .T. ) ;
#39 = DIRECTION ( 'NONE',  ( 0.000000000000000000, 0.000000000000000000, 1.000000000000000000 ) ) ;
#40 = VERTEX_POINT ( 'NONE', #73 ) ;
#41 = DIRECTION ( 'NONE',  ( -0.000000000000000000, -0.000000000000000000, 1.000000000000000000 ) ) ;
#42 = EDGE_CURVE ( 'NONE', #355, #184, #334, .T. ) ;
#43 = DIRECTION ( 'NONE',  ( -0.000000000000000000, -0.000000000000000000, 1.000000000000000000 ) ) ;
#44 = AXIS2_PLACEMENT_3D ( 'NONE', #643, #121, #372 ) ;
#45 = CIRCLE ( 'NONE', #716, 10.00000000000000178 ) ;
#46 = CYLINDRICAL_SURFACE ( 'NONE', #620, 3.399999999999993250 ) ;
#47 = CARTESIAN_POINT ( 'NONE',  ( -49.99999999999997158, 39.99999999999998579, 15.00000000000000000 ) ) ;
#48 = ORIENTED_EDGE ( 'NONE', *, *, #132, .F. ) ;
#49 = CARTESIAN_POINT ( 'NONE',  ( 49.99999999999999289, -29.99999999999999645, 15.00000000000000178 ) ) ;
#50 = LINE ( 'NONE', #120, #339 ) ;
#51 = DIRECTION ( 'NONE',  ( 1.000000000000000000, 0.000000000000000000, 0.000000000000000000 ) ) ;
#52 = ORIENTED_EDGE ( 'NONE', *, *, #812, .F. ) ;
#53 = ORIENTED_EDGE ( 'NONE', *, *, #101, .F. ) ;
#54 = ADVANCED_FACE ( 'NONE', ( #528 ), #597, .F. ) ;
#55 =( LENGTH_UNIT ( ) NAMED_UNIT ( * ) SI_UNIT ( .MILLI., .METRE. ) );
#56 = DIRECTION ( 'NONE',  ( -0.000000000000000000, -0.000000000000000000, 1.000000000000000000 ) ) ;
#57 = FACE_BOUND ( 'NONE', #429, .T. ) ;
#58 = ORIENTED_EDGE ( 'NONE', *, *, #583, .F. ) ;
#59 = VERTEX_POINT ( 'NONE', #331 ) ;
#60 =( LENGTH_UNIT ( ) NAMED_UNIT ( * ) SI_UNIT ( .MILLI., .METRE. ) );
#61 = SURFACE_STYLE_FILL_AREA ( #515 ) ;
#62 = ORIENTED_EDGE ( 'NONE', *, *, #441, .F. ) ;
#63 = LINE ( 'NONE', #235, #448 ) ;
#64 = CARTESIAN_POINT ( 'NONE',  ( 60.00000000000001421, 40.00000000000000000, 15.00000000000000000 ) ) ;
#65 = ORIENTED_EDGE ( 'NONE', *, *, #402, .T. ) ;
#66 = LINE ( 'NONE', #8, #651 ) ;
#67 = ORIENTED_EDGE ( 'NONE', *, *, #477, .T. ) ;
#68 = FACE_OUTER_BOUND ( 'NONE', #253, .T. ) ;
#69 = ADVANCED_FACE ( 'NONE', ( #657 ), #454, .F. ) ;
#70 = ORIENTED_EDGE ( 'NONE', *, *, #524, .T. ) ;
#71 =( GEOMETRIC_REPRESENTATION_CONTEXT ( 3 ) GLOBAL_UNCERTAINTY_ASSIGNED_CONTEXT ( ( #765 ) ) GLOBAL_UNIT_ASSIGNED_CONTEXT ( ( #579, #458, #144 ) ) REPRESENTATION_CONTEXT ( 'NONE', 'WORKASPACE' ) );
#72 = DIRECTION ( 'NONE',  ( -0.000000000000000000, -0.000000000000000000, 1.000000000000000000 ) ) ;
#73 = CARTESIAN_POINT ( 'NONE',  ( -49.99999999999995026, -40.00000000000001421, 0.000000000000000000 ) ) ;
#74 = AXIS2_PLACEMENT_3D ( 'NONE', #348, #610, #320 ) ;
#75 = CARTESIAN_POINT ( 'NONE',  ( -25.00000000000000000, 3.061616997868383043E-15, 6.999999999999999112 ) ) ;
#76 = CLOSED_SHELL ( 'NONE', ( #767, #340, #226, #783, #805, #270, #54, #733, #217, #537, #566, #408, #752, #69, #532, #756, #826, #393, #301, #551, #376 ) ) ;
#77 = DIRECTION ( 'NONE',  ( 1.000000000000000000, 0.000000000000000000, 0.000000000000000000 ) ) ;
#78 = EDGE_LOOP ( 'NONE', ( #644, #771 ) ) ;
#79 = CARTESIAN_POINT ( 'NONE',  ( 50.00000000000000711, -30.00000000000000711, 15.00000000000000000 ) ) ;
#80 = FACE_OUTER_BOUND ( 'NONE', #321, .T. ) ;
#81 = PRODUCT_RELATED_PRODUCT_CATEGORY ( 'part', '', ( #754 ) ) ;
#82 = DIRECTION ( 'NONE',  ( 1.000000000000000000, 0.000000000000000000, 0.000000000000000000 ) ) ;
#83 = AXIS2_PLACEMENT_3D ( 'NONE', #142, #462, #82 ) ;
#84 = DIRECTION ( 'NONE',  ( 1.000000000000000000, 0.000000000000000000, 0.000000000000000000 ) ) ;
#85 = CIRCLE ( 'NONE', #194, 10.00000000000000178 ) ;
#86 = SURFACE_SIDE_STYLE ('',( #406 ) ) ;
#87 = DIRECTION ( 'NONE',  ( 1.000000000000000000, 0.000000000000000000, 0.000000000000000000 ) ) ;
#88 =( LENGTH_UNIT ( ) NAMED_UNIT ( * ) SI_UNIT ( .MILLI., .METRE. ) );
#89 = CARTESIAN_POINT ( 'NONE',  ( 46.60000000000000142, 29.99999999999999645, 0.000000000000000000 ) ) ;
#90 = EDGE_CURVE ( 'NONE', #523, #174, #129, .T. ) ;
#91 = UNCERTAINTY_MEASURE_WITH_UNIT (LENGTH_MEASURE( 1.000000000000000082E-05 ), #309, 'distance_accuracy_value', 'NONE');
#92 = STYLED_ITEM ( 'NONE', ( #124 ), #431 ) ;
#93 = DIRECTION ( 'NONE',  ( 1.000000000000000000, 0.000000000000000000, -0.000000000000000000 ) ) ;
#94 = VECTOR ( 'NONE', #189, 1000.000000000000000 ) ;
#95 = ORIENTED_EDGE ( 'NONE', *, *, #204, .T. ) ;
#96 = VERTEX_POINT ( 'NONE', #89 ) ;
#97 = CARTESIAN_POINT ( 'NONE',  ( 46.60000000000000142, -29.99999999999999645, 0.000000000000000000 ) ) ;
#98 = AXIS2_PLACEMENT_3D ( 'NONE', #476, #606, #485 ) ;
#99 = VERTEX_POINT ( 'NONE', #283 ) ;
#100 = CARTESIAN_POINT ( 'NONE',  ( 60.00000000000001421, 30.00000000000000711, 15.00000000000000000 ) ) ;
#101 = EDGE_CURVE ( 'NONE', #247, #380, #825, .T. ) ;
#102 = CARTESIAN_POINT ( 'NONE',  ( 49.99999999999999289, 29.99999999999999645, 15.00000000000000178 ) ) ;
#103 = ORIENTED_EDGE ( 'NONE', *, *, #180, .T. ) ;
#104 = LINE ( 'NONE', #821, #670 ) ;
#105 = MECHANICAL_DESIGN_GEOMETRIC_PRESENTATION_REPRESENTATION (  '', ( #92 ), #71 ) ;
#106 = CARTESIAN_POINT ( 'NONE',  ( -50.00000000000000711, 29.99999999999998934, 0.000000000000000000 ) ) ;
#107 = VERTEX_POINT ( 'NONE', #540 ) ;
#108 = ORIENTED_EDGE ( 'NONE', *, *, #244, .F. ) ;
#109 = CYLINDRICAL_SURFACE ( 'NONE', #822, 10.00000000000000178 ) ;
#110 = VECTOR ( 'NONE', #357, 1000.000000000000000 ) ;
#111 = CARTESIAN_POINT ( 'NONE',  ( -53.39999999999999858, -30.00000000000001066, 15.00000000000000178 ) ) ;
#112 = EDGE_CURVE ( 'NONE', #445, #184, #349, .T. ) ;
#113 = ORIENTED_EDGE ( 'NONE', *, *, #170, .F. ) ;
#114 = VERTEX_POINT ( 'NONE', #743 ) ;
#115 = FACE_OUTER_BOUND ( 'NONE', #423, .T. ) ;
#116 = CARTESIAN_POINT ( 'NONE',  ( -59.99999999999997158, -40.00000000000001421, 0.000000000000000000 ) ) ;
#117 = CARTESIAN_POINT ( 'NONE',  ( -50.00000000000000711, 29.99999999999998934, 0.000000000000000000 ) ) ;
#118 = EDGE_LOOP ( 'NONE', ( #735, #564, #692, #390 ) ) ;
#119 = ORIENTED_EDGE ( 'NONE', *, *, #193, .F. ) ;
#120 = CARTESIAN_POINT ( 'NONE',  ( 25.00000000000000000, 0.000000000000000000, 6.999999999999999112 ) ) ;
#121 = DIRECTION ( 'NONE',  ( 0.000000000000000000, 0.000000000000000000, 1.000000000000000000 ) ) ;
#122 = PRESENTATION_LAYER_ASSIGNMENT (  '', '', ( #92 ) ) ;
#123 = ORIENTED_EDGE ( 'NONE', *, *, #697, .T. ) ;
#124 = PRESENTATION_STYLE_ASSIGNMENT (( #443 ) ) ;
#125 = MECHANICAL_DESIGN_GEOMETRIC_PRESENTATION_REPRESENTATION (  '', ( #33 ), #820 ) ;
#126 = COLOUR_RGB ( '',0.7764705882352941346, 0.7568627450980391913, 0.7372549019607843590 ) ;
#127 = CARTESIAN_POINT ( 'NONE',  ( -53.40000000000000568, 29.99999999999998934, 15.00000000000000000 ) ) ;
#128 = DIRECTION ( 'NONE',  ( -0.000000000000000000, -0.000000000000000000, 1.000000000000000000 ) ) ;
#129 = CIRCLE ( 'NONE', #719, 3.399999999999993250 ) ;
#130 = ORIENTED_EDGE ( 'NONE', *, *, #795, .F. ) ;
#131 = VERTEX_POINT ( 'NONE', #470 ) ;
#132 = EDGE_CURVE ( 'NONE', #183, #10, #350, .T. ) ;
#133 = CARTESIAN_POINT ( 'NONE',  ( 25.00000000000000000, 0.000000000000000000, 6.999999999999999112 ) ) ;
#134 = EDGE_LOOP ( 'NONE', ( #53, #58 ) ) ;
#135 = EDGE_LOOP ( 'NONE', ( #585, #373, #327, #175 ) ) ;
#136 = ORIENTED_EDGE ( 'NONE', *, *, #346, .F. ) ;
#137 = CIRCLE ( 'NONE', #147, 3.399999999999993250 ) ;
#138 = SURFACE_STYLE_FILL_AREA ( #19 ) ;
#139 = EDGE_CURVE ( 'NONE', #639, #435, #383, .T. ) ;
#140 = AXIS2_PLACEMENT_3D ( 'NONE', #472, #602, #160 ) ;
#141 = VERTEX_POINT ( 'NONE', #818 ) ;
#142 = CARTESIAN_POINT ( 'NONE',  ( 49.99999999999999289, -29.99999999999999645, 15.00000000000000000 ) ) ;
#143 = ORIENTED_EDGE ( 'NONE', *, *, #112, .F. ) ;
#144 =( NAMED_UNIT ( * ) SI_UNIT ( $, .STERADIAN. ) SOLID_ANGLE_UNIT ( ) );
#145 = VECTOR ( 'NONE', #832, 1000.000000000000000 ) ;
#146 = DIRECTION ( 'NONE',  ( 1.000000000000000000, 0.000000000000000000, 0.000000000000000000 ) ) ;
#147 = AXIS2_PLACEMENT_3D ( 'NONE', #378, #128, #715 ) ;
#148 = CIRCLE ( 'NONE', #361, 3.399999999999986144 ) ;
#149 =( NAMED_UNIT ( * ) SI_UNIT ( $, .STERADIAN. ) SOLID_ANGLE_UNIT ( ) );
#150 = DIRECTION ( 'NONE',  ( 1.000000000000000000, -1.040834085586084059E-15, 0.000000000000000000 ) ) ;
#151 = EDGE_CURVE ( 'NONE', #114, #633, #451, .T. ) ;
#152 = DIRECTION ( 'NONE',  ( 1.000000000000000000, 0.000000000000000000, 0.000000000000000000 ) ) ;
#153 = CARTESIAN_POINT ( 'NONE',  ( -50.00000000000000711, -30.00000000000001066, 15.00000000000000178 ) ) ;
#154 = CARTESIAN_POINT ( 'NONE',  ( 53.39999999999999147, -29.99999999999999645, 15.00000000000000000 ) ) ;
#155 = UNCERTAINTY_MEASURE_WITH_UNIT (LENGTH_MEASURE( 1.000000000000000082E-05 ), #36, 'distance_accuracy_value', 'NONE');
#156 = COLOUR_RGB ( '',0.7921568627450980005, 0.8196078431372548767, 0.9333333333333333481 ) ;
#157 = FACE_BOUND ( 'NONE', #770, .T. ) ;
#158 = AXIS2_PLACEMENT_3D ( 'NONE', #117, #782, #562 ) ;
#159 = PRODUCT_DEFINITION ( 'UNKNOWN', '', #275, #559 ) ;
#160 = DIRECTION ( 'NONE',  ( 1.000000000000000000, 0.000000000000000000, 0.000000000000000000 ) ) ;
#161 = CIRCLE ( 'NONE', #659, 10.00000000000000178 ) ;
#162 = DIRECTION ( 'NONE',  ( 1.000000000000000000, 0.000000000000000000, 0.000000000000000000 ) ) ;
#163 = DIRECTION ( 'NONE',  ( -0.000000000000000000, -0.000000000000000000, 1.000000000000000000 ) ) ;
#164 = FACE_OUTER_BOUND ( 'NONE', #430, .T. ) ;
#165 = FACE_OUTER_BOUND ( 'NONE', #835, .T. ) ;
#166 = ORIENTED_EDGE ( 'NONE', *, *, #16, .F. ) ;
#167 = ORIENTED_EDGE ( 'NONE', *, *, #231, .F. ) ;
#168 = DIRECTION ( 'NONE',  ( 1.000000000000000000, 0.000000000000000000, 0.000000000000000000 ) ) ;
#169 = FILL_AREA_STYLE ('',( #298 ) ) ;
#170 = EDGE_CURVE ( 'NONE', #173, #648, #161, .T. ) ;
#171 = AXIS2_PLACEMENT_3D ( 'NONE', #438, #72, #387 ) ;
#172 = DIRECTION ( 'NONE',  ( 1.000000000000000000, 0.000000000000000000, 0.000000000000000000 ) ) ;
#173 = VERTEX_POINT ( 'NONE', #280 ) ;
#174 = VERTEX_POINT ( 'NONE', #97 ) ;
#175 = ORIENTED_EDGE ( 'NONE', *, *, #655, .F. ) ;
#176 = AXIS2_PLACEMENT_3D ( 'NONE', #49, #766, #168 ) ;
#177 =( NAMED_UNIT ( * ) SI_UNIT ( $, .STERADIAN. ) SOLID_ANGLE_UNIT ( ) );
#178 = CARTESIAN_POINT ( 'NONE',  ( 50.00000000000000711, 30.00000000000000355, 15.00000000000000000 ) ) ;
#179 = VECTOR ( 'NONE', #398, 1000.000000000000000 ) ;
#180 = EDGE_CURVE ( 'NONE', #523, #10, #26, .T. ) ;
#181 = DIRECTION ( 'NONE',  ( -0.000000000000000000, -0.000000000000000000, 1.000000000000000000 ) ) ;
#182 = VERTEX_POINT ( 'NONE', #671 ) ;
#183 = VERTEX_POINT ( 'NONE', #758 ) ;
#184 = VERTEX_POINT ( 'NONE', #548 ) ;
#185 = APPLICATION_PROTOCOL_DEFINITION ( 'draft international standard', 'automotive_design', 1998, #713 ) ;
#186 = FACE_OUTER_BOUND ( 'NONE', #118, .T. ) ;
#187 = LINE ( 'NONE', #388, #638 ) ;
#188 = EDGE_LOOP ( 'NONE', ( #686, #717 ) ) ;
#189 = DIRECTION ( 'NONE',  ( 1.000000000000000000, 1.156482317317871725E-16, -0.000000000000000000 ) ) ;
#190 = PRESENTATION_LAYER_ASSIGNMENT (  '', '', ( #553 ) ) ;
#191 = VERTEX_POINT ( 'NONE', #407 ) ;
#192 = ORIENTED_EDGE ( 'NONE', *, *, #244, .T. ) ;
#193 = EDGE_CURVE ( 'NONE', #784, #114, #539, .T. ) ;
#194 = AXIS2_PLACEMENT_3D ( 'NONE', #707, #531, #269 ) ;
#195 = FILL_AREA_STYLE ('',( #530 ) ) ;
#196 = DIRECTION ( 'NONE',  ( 1.000000000000000000, 0.000000000000000000, -0.000000000000000000 ) ) ;
#197 = ORIENTED_EDGE ( 'NONE', *, *, #697, .F. ) ;
#198 = ORIENTED_EDGE ( 'NONE', *, *, #193, .T. ) ;
#199 =( NAMED_UNIT ( * ) PLANE_ANGLE_UNIT ( ) SI_UNIT ( $, .RADIAN. ) );
#200 = DIRECTION ( 'NONE',  ( -1.000000000000000000, -1.156482317317871725E-16, 0.000000000000000000 ) ) ;
#201 = CARTESIAN_POINT ( 'NONE',  ( 60.00000000000001421, -40.00000000000000000, 15.00000000000000000 ) ) ;
#202 =( LENGTH_UNIT ( ) NAMED_UNIT ( * ) SI_UNIT ( .MILLI., .METRE. ) );
#203 = DIRECTION ( 'NONE',  ( -1.000000000000000000, 0.000000000000000000, 0.000000000000000000 ) ) ;
#204 = EDGE_CURVE ( 'NONE', #114, #648, #228, .T. ) ;
#205 = FILL_AREA_STYLE_COLOUR ( '', #229 ) ;
#206 = PRESENTATION_STYLE_ASSIGNMENT (( #722 ) ) ;
#207 = COLOUR_RGB ( '',0.7921568627450980005, 0.8196078431372548767, 0.9333333333333333481 ) ;
#208 = EDGE_LOOP ( 'NONE', ( #724, #627, #575, #449 ) ) ;
#209 = DIRECTION ( 'NONE',  ( 1.000000000000000000, 0.000000000000000000, 0.000000000000000000 ) ) ;
#210 = AXIS2_PLACEMENT_3D ( 'NONE', #13, #650, #77 ) ;
#211 = STYLED_ITEM ( 'NONE', ( #30 ), #226 ) ;
#212 = SHAPE_DEFINITION_REPRESENTATION ( #688, #431 ) ;
#213 = ORIENTED_EDGE ( 'NONE', *, *, #402, .F. ) ;
#214 =( NAMED_UNIT ( * ) PLANE_ANGLE_UNIT ( ) SI_UNIT ( $, .RADIAN. ) );
#215 = CARTESIAN_POINT ( 'NONE',  ( 0.000000000000000000, 0.000000000000000000, 15.00000000000000000 ) ) ;
#216 = CARTESIAN_POINT ( 'NONE',  ( 60.00000000000001421, -30.00000000000000711, 15.00000000000000000 ) ) ;
#217 = ADVANCED_FACE ( 'NONE', ( #806 ), #28, .F. ) ;
#218 = DIRECTION ( 'NONE',  ( 0.000000000000000000, 1.000000000000000000, 0.000000000000000000 ) ) ;
#219 = PRESENTATION_LAYER_ASSIGNMENT (  '', '', ( #473 ) ) ;
#220 = VECTOR ( 'NONE', #691, 1000.000000000000000 ) ;
#221 = SURFACE_SIDE_STYLE ('',( #237 ) ) ;
#222 = DIRECTION ( 'NONE',  ( 1.000000000000000000, 0.000000000000000000, 0.000000000000000000 ) ) ;
#223 = CARTESIAN_POINT ( 'NONE',  ( 49.99999999999999289, 29.99999999999999645, 15.00000000000000000 ) ) ;
#224 = FACE_OUTER_BOUND ( 'NONE', #272, .T. ) ;
#225 = ORIENTED_EDGE ( 'NONE', *, *, #273, .F. ) ;
#226 = ADVANCED_FACE ( 'NONE', ( #224 ), #415, .F. ) ;
#227 = DIRECTION ( 'NONE',  ( 1.000000000000000000, 0.000000000000000000, 0.000000000000000000 ) ) ;
#228 = LINE ( 'NONE', #343, #507 ) ;
#229 = COLOUR_RGB ( '',0.7921568627450980005, 0.8196078431372548767, 0.9333333333333333481 ) ;
#230 = DIRECTION ( 'NONE',  ( 1.000000000000000000, 0.000000000000000000, 0.000000000000000000 ) ) ;
#231 = EDGE_CURVE ( 'NONE', #107, #584, #236, .T. ) ;
#232 = AXIS2_PLACEMENT_3D ( 'NONE', #726, #233, #303 ) ;
#233 = DIRECTION ( 'NONE',  ( -0.000000000000000000, -0.000000000000000000, 1.000000000000000000 ) ) ;
#234 = AXIS2_PLACEMENT_3D ( 'NONE', #459, #730, #338 ) ;
#235 = CARTESIAN_POINT ( 'NONE',  ( -46.60000000000001563, -30.00000000000001066, 15.00000000000000000 ) ) ;
#236 = CIRCLE ( 'NONE', #737, 3.399999999999986144 ) ;
#237 = SURFACE_STYLE_FILL_AREA ( #291 ) ;
#238 = DIRECTION ( 'NONE',  ( 1.000000000000000000, 0.000000000000000000, 0.000000000000000000 ) ) ;
#239 = FACE_OUTER_BOUND ( 'NONE', #135, .T. ) ;
#240 = DIRECTION ( 'NONE',  ( -0.000000000000000000, -0.000000000000000000, 1.000000000000000000 ) ) ;
#241 = ORIENTED_EDGE ( 'NONE', *, *, #655, .T. ) ;
#242 = EDGE_LOOP ( 'NONE', ( #225, #48 ) ) ;
#243 = CYLINDRICAL_SURFACE ( 'NONE', #171, 25.00000000000000000 ) ;
#244 = EDGE_CURVE ( 'NONE', #191, #131, #590, .T. ) ;
#245 = CYLINDRICAL_SURFACE ( 'NONE', #545, 10.00000000000000178 ) ;
#246 = CARTESIAN_POINT ( 'NONE',  ( 50.00000000000001421, -40.00000000000000000, 0.000000000000000000 ) ) ;
#247 = VERTEX_POINT ( 'NONE', #687 ) ;
#248 = DIRECTION ( 'NONE',  ( -0.000000000000000000, -0.000000000000000000, 1.000000000000000000 ) ) ;
#249 = LINE ( 'NONE', #127, #286 ) ;
#250 = STYLED_ITEM ( 'NONE', ( #206 ), #69 ) ;
#251 =( GEOMETRIC_REPRESENTATION_CONTEXT ( 3 ) GLOBAL_UNCERTAINTY_ASSIGNED_CONTEXT ( ( #480 ) ) GLOBAL_UNIT_ASSIGNED_CONTEXT ( ( #811, #675, #565 ) ) REPRESENTATION_CONTEXT ( 'NONE', 'WORKASPACE' ) );
#252 = FACE_BOUND ( 'NONE', #188, .T. ) ;
#253 = EDGE_LOOP ( 'NONE', ( #166, #699, #679, #829, #698, #123, #830, #516 ) ) ;
#254 = ORIENTED_EDGE ( 'NONE', *, *, #333, .T. ) ;
#255 = SURFACE_STYLE_FILL_AREA ( #785 ) ;
#256 = DIRECTION ( 'NONE',  ( 0.000000000000000000, 0.000000000000000000, -1.000000000000000000 ) ) ;
#257 = DIRECTION ( 'NONE',  ( -1.000000000000000000, -1.156482317317871725E-16, 0.000000000000000000 ) ) ;
#258 = EDGE_CURVE ( 'NONE', #96, #817, #526, .T. ) ;
#259 = EDGE_LOOP ( 'NONE', ( #108, #483, #3, #666 ) ) ;
#260 = EDGE_LOOP ( 'NONE', ( #422, #143, #197, #640 ) ) ;
#261 =( LENGTH_UNIT ( ) NAMED_UNIT ( * ) SI_UNIT ( .MILLI., .METRE. ) );
#262 =( GEOMETRIC_REPRESENTATION_CONTEXT ( 3 ) GLOBAL_UNCERTAINTY_ASSIGNED_CONTEXT ( ( #609 ) ) GLOBAL_UNIT_ASSIGNED_CONTEXT ( ( #55, #628, #177 ) ) REPRESENTATION_CONTEXT ( 'NONE', 'WORKASPACE' ) );
#263 = EDGE_LOOP ( 'NONE', ( #342, #7 ) ) ;
#264 = ORIENTED_EDGE ( 'NONE', *, *, #662, .F. ) ;
#265 = CIRCLE ( 'NONE', #745, 10.00000000000000178 ) ;
#266 = STYLED_ITEM ( 'NONE', ( #377 ), #340 ) ;
#267 = EDGE_LOOP ( 'NONE', ( #95, #437, #709, #198 ) ) ;
#268 = AXIS2_PLACEMENT_3D ( 'NONE', #424, #163, #238 ) ;
#269 = DIRECTION ( 'NONE',  ( 1.000000000000000000, 0.000000000000000000, 0.000000000000000000 ) ) ;
#270 = ADVANCED_FACE ( 'NONE', ( #353 ), #493, .F. ) ;
#271 = SURFACE_SIDE_STYLE ('',( #138 ) ) ;
#272 = EDGE_LOOP ( 'NONE', ( #518, #705, #788, #130 ) ) ;
#273 = EDGE_CURVE ( 'NONE', #10, #183, #739, .T. ) ;
#274 = DIRECTION ( 'NONE',  ( -0.000000000000000000, -0.000000000000000000, 1.000000000000000000 ) ) ;
#275 = PRODUCT_DEFINITION_FORMATION_WITH_SPECIFIED_SOURCE ( 'ANY', '', #754, .NOT_KNOWN. ) ;
#276 = DIRECTION ( 'NONE',  ( -0.000000000000000000, -1.000000000000000000, -0.000000000000000000 ) ) ;
#277 = AXIS2_PLACEMENT_3D ( 'NONE', #440, #240, #172 ) ;
#278 = SURFACE_STYLE_USAGE ( .BOTH. , #86 ) ;
#279 = COLOUR_RGB ( '',0.7921568627450980005, 0.8196078431372548767, 0.9333333333333333481 ) ;
#280 = CARTESIAN_POINT ( 'NONE',  ( 50.00000000000001421, 40.00000000000000000, 0.000000000000000000 ) ) ;
#281 =( LENGTH_UNIT ( ) NAMED_UNIT ( * ) SI_UNIT ( .MILLI., .METRE. ) );
#282 = EDGE_CURVE ( 'NONE', #784, #498, #104, .T. ) ;
#283 = CARTESIAN_POINT ( 'NONE',  ( -49.99999999999995026, 39.99999999999998579, 15.00000000000000000 ) ) ;
#284 = DIRECTION ( 'NONE',  ( -0.000000000000000000, -0.000000000000000000, 1.000000000000000000 ) ) ;
#285 = AXIS2_PLACEMENT_3D ( 'NONE', #367, #496, #51 ) ;
#286 = VECTOR ( 'NONE', #56, 1000.000000000000000 ) ;
#287 =( NAMED_UNIT ( * ) SI_UNIT ( $, .STERADIAN. ) SOLID_ANGLE_UNIT ( ) );
#288 = DIRECTION ( 'NONE',  ( -0.000000000000000000, -0.000000000000000000, 1.000000000000000000 ) ) ;
#289 = UNCERTAINTY_MEASURE_WITH_UNIT (LENGTH_MEASURE( 1.000000000000000082E-05 ), #281, 'distance_accuracy_value', 'NONE');
#290 = EDGE_CURVE ( 'NONE', #648, #498, #616, .T. ) ;
#291 = FILL_AREA_STYLE ('',( #410 ) ) ;
#292 = CARTESIAN_POINT ( 'NONE',  ( 50.00000000000000711, 30.00000000000000355, 0.000000000000000000 ) ) ;
#293 = DIRECTION ( 'NONE',  ( 1.000000000000000000, 0.000000000000000000, 0.000000000000000000 ) ) ;
#294 =( GEOMETRIC_REPRESENTATION_CONTEXT ( 3 ) GLOBAL_UNCERTAINTY_ASSIGNED_CONTEXT ( ( #674 ) ) GLOBAL_UNIT_ASSIGNED_CONTEXT ( ( #653, #336, #538 ) ) REPRESENTATION_CONTEXT ( 'NONE', 'WORKASPACE' ) );
#295 = FACE_BOUND ( 'NONE', #481, .T. ) ;
#296 = AXIS2_PLACEMENT_3D ( 'NONE', #106, #753, #230 ) ;
#297 = CARTESIAN_POINT ( 'NONE',  ( 49.99999999999999289, 29.99999999999999645, 15.00000000000000000 ) ) ;
#298 = FILL_AREA_STYLE_COLOUR ( '', #810 ) ;
#299 = FACE_BOUND ( 'NONE', #527, .T. ) ;
#300 = ORIENTED_EDGE ( 'NONE', *, *, #728, .F. ) ;
#301 = ADVANCED_FACE ( 'NONE', ( #489 ), #109, .T. ) ;
#302 = ORIENTED_EDGE ( 'NONE', *, *, #662, .T. ) ;
#303 = DIRECTION ( 'NONE',  ( 1.000000000000000000, 0.000000000000000000, 0.000000000000000000 ) ) ;
#304 = CARTESIAN_POINT ( 'NONE',  ( -59.99999999999997158, 29.99999999999999289, 15.00000000000000000 ) ) ;
#305 = DIRECTION ( 'NONE',  ( 0.000000000000000000, 0.000000000000000000, -1.000000000000000000 ) ) ;
#306 = ORIENTED_EDGE ( 'NONE', *, *, #614, .F. ) ;
#307 = ORIENTED_EDGE ( 'NONE', *, *, #501, .F. ) ;
#308 = ORIENTED_EDGE ( 'NONE', *, *, #583, .T. ) ;
#309 =( LENGTH_UNIT ( ) NAMED_UNIT ( * ) SI_UNIT ( .MILLI., .METRE. ) );
#310 = CYLINDRICAL_SURFACE ( 'NONE', #504, 25.00000000000000000 ) ;
#311 = CARTESIAN_POINT ( 'NONE',  ( -59.99999999999997158, 29.99999999999999289, 15.00000000000000000 ) ) ;
#312 = VECTOR ( 'NONE', #181, 1000.000000000000000 ) ;
#313 = ORIENTED_EDGE ( 'NONE', *, *, #468, .F. ) ;
#314 = FILL_AREA_STYLE_COLOUR ( '', #11 ) ;
#315 = EDGE_CURVE ( 'NONE', #497, #445, #491, .T. ) ;
#316 = CARTESIAN_POINT ( 'NONE',  ( 60.00000000000001421, 30.00000000000000711, 0.000000000000000000 ) ) ;
#317 = ORIENTED_EDGE ( 'NONE', *, *, #419, .F. ) ;
#318 = EDGE_LOOP ( 'NONE', ( #322, #67, #368, #646 ) ) ;
#319 = CARTESIAN_POINT ( 'NONE',  ( -59.99999999999997158, -40.00000000000001421, 15.00000000000000000 ) ) ;
#320 = DIRECTION ( 'NONE',  ( 1.000000000000000000, 0.000000000000000000, 0.000000000000000000 ) ) ;
#321 = EDGE_LOOP ( 'NONE', ( #307, #65, #780, #317 ) ) ;
#322 = ORIENTED_EDGE ( 'NONE', *, *, #678, .F. ) ;
#323 = CARTESIAN_POINT ( 'NONE',  ( 53.39999999999999147, 29.99999999999999645, 0.000000000000000000 ) ) ;
#324 = CARTESIAN_POINT ( 'NONE',  ( -49.99999999999997158, -30.00000000000001776, 15.00000000000000000 ) ) ;
#325 = LINE ( 'NONE', #75, #773 ) ;
#326 = AXIS2_PLACEMENT_3D ( 'NONE', #370, #248, #634 ) ;
#327 = ORIENTED_EDGE ( 'NONE', *, *, #5, .F. ) ;
#328 = CARTESIAN_POINT ( 'NONE',  ( 53.39999999999999147, 29.99999999999999645, 15.00000000000000000 ) ) ;
#329 = MECHANICAL_DESIGN_GEOMETRIC_PRESENTATION_REPRESENTATION (  '', ( #473 ), #809 ) ;
#330 = VECTOR ( 'NONE', #827, 1000.000000000000000 ) ;
#331 = CARTESIAN_POINT ( 'NONE',  ( -53.40000000000000568, 29.99999999999998934, 0.000000000000000000 ) ) ;
#332 = CYLINDRICAL_SURFACE ( 'NONE', #83, 3.399999999999993250 ) ;
#333 = EDGE_CURVE ( 'NONE', #131, #107, #63, .T. ) ;
#334 = LINE ( 'NONE', #319, #17 ) ;
#335 =( NAMED_UNIT ( * ) SI_UNIT ( $, .STERADIAN. ) SOLID_ANGLE_UNIT ( ) );
#336 =( NAMED_UNIT ( * ) PLANE_ANGLE_UNIT ( ) SI_UNIT ( $, .RADIAN. ) );
#337 = DIRECTION ( 'NONE',  ( 0.000000000000000000, 0.000000000000000000, -1.000000000000000000 ) ) ;
#338 = DIRECTION ( 'NONE',  ( 1.000000000000000000, 0.000000000000000000, 0.000000000000000000 ) ) ;
#339 = VECTOR ( 'NONE', #701, 1000.000000000000000 ) ;
#340 = ADVANCED_FACE ( 'NONE', ( #625 ), #46, .F. ) ;
#341 = DIRECTION ( 'NONE',  ( -0.000000000000000000, 0.000000000000000000, -1.000000000000000000 ) ) ;
#342 = ORIENTED_EDGE ( 'NONE', *, *, #139, .T. ) ;
#343 = CARTESIAN_POINT ( 'NONE',  ( 60.00000000000001421, -40.00000000000000000, 0.000000000000000000 ) ) ;
#344 = UNCERTAINTY_MEASURE_WITH_UNIT (LENGTH_MEASURE( 1.000000000000000082E-05 ), #88, 'distance_accuracy_value', 'NONE');
#345 = CYLINDRICAL_SURFACE ( 'NONE', #347, 3.399999999999993250 ) ;
#346 = EDGE_CURVE ( 'NONE', #435, #639, #557, .T. ) ;
#347 = AXIS2_PLACEMENT_3D ( 'NONE', #223, #482, #227 ) ;
#348 = CARTESIAN_POINT ( 'NONE',  ( -49.99999999999997158, 29.99999999999999289, 15.00000000000000000 ) ) ;
#349 = LINE ( 'NONE', #751, #778 ) ;
#350 = CIRCLE ( 'NONE', #140, 3.399999999999986144 ) ;
#351 = APPLICATION_CONTEXT ( 'automotive_design' ) ;
#352 = CARTESIAN_POINT ( 'NONE',  ( 46.60000000000000853, 29.99999999999999645, 15.00000000000000178 ) ) ;
#353 = FACE_OUTER_BOUND ( 'NONE', #578, .T. ) ;
#354 = LINE ( 'NONE', #47, #220 ) ;
#355 = VERTEX_POINT ( 'NONE', #304 ) ;
#356 = DIRECTION ( 'NONE',  ( 1.000000000000000000, 0.000000000000000000, 0.000000000000000000 ) ) ;
#357 = DIRECTION ( 'NONE',  ( 1.000000000000000000, 1.156482317317871725E-16, -0.000000000000000000 ) ) ;
#358 = EDGE_CURVE ( 'NONE', #639, #247, #50, .T. ) ;
#359 = PLANE ( 'NONE',  #574 ) ;
#360 = MECHANICAL_DESIGN_GEOMETRIC_PRESENTATION_REPRESENTATION (  '', ( #555 ), #486 ) ;
#361 = AXIS2_PLACEMENT_3D ( 'NONE', #478, #819, #749 ) ;
#362 = ORIENTED_EDGE ( 'NONE', *, *, #672, .T. ) ;
#363 = ORIENTED_EDGE ( 'NONE', *, *, #812, .T. ) ;
#364 = CARTESIAN_POINT ( 'NONE',  ( 50.00000000000000711, -30.00000000000000711, 15.00000000000000000 ) ) ;
#365 = VECTOR ( 'NONE', #337, 1000.000000000000000 ) ;
#366 = DIRECTION ( 'NONE',  ( 1.000000000000000000, 0.000000000000000000, 0.000000000000000000 ) ) ;
#367 = CARTESIAN_POINT ( 'NONE',  ( 49.99999999999999289, -29.99999999999999645, 0.000000000000000000 ) ) ;
#368 = ORIENTED_EDGE ( 'NONE', *, *, #16, .T. ) ;
#369 = ORIENTED_EDGE ( 'NONE', *, *, #315, .T. ) ;
#370 = CARTESIAN_POINT ( 'NONE',  ( -50.00000000000000711, 29.99999999999998934, 15.00000000000000000 ) ) ;
#371 = DIRECTION ( 'NONE',  ( 0.000000000000000000, 0.000000000000000000, -1.000000000000000000 ) ) ;
#372 = DIRECTION ( 'NONE',  ( 1.000000000000000000, 0.000000000000000000, 0.000000000000000000 ) ) ;
#373 = ORIENTED_EDGE ( 'NONE', *, *, #488, .F. ) ;
#374 = ORIENTED_EDGE ( 'NONE', *, *, #282, .T. ) ;
#375 = EDGE_LOOP ( 'NONE', ( #569, #506, #103, #385 ) ) ;
#376 = ADVANCED_FACE ( 'NONE', ( #239 ), #567, .T. ) ;
#377 = PRESENTATION_STYLE_ASSIGNMENT (( #494 ) ) ;
#378 = CARTESIAN_POINT ( 'NONE',  ( 49.99999999999999289, 29.99999999999999645, 0.000000000000000000 ) ) ;
#379 = VECTOR ( 'NONE', #257, 1000.000000000000000 ) ;
#380 = VERTEX_POINT ( 'NONE', #774 ) ;
#381 = DIRECTION ( 'NONE',  ( -1.000000000000000000, 0.000000000000000000, 0.000000000000000000 ) ) ;
#382 =( GEOMETRIC_REPRESENTATION_CONTEXT ( 3 ) GLOBAL_UNCERTAINTY_ASSIGNED_CONTEXT ( ( #816 ) ) GLOBAL_UNIT_ASSIGNED_CONTEXT ( ( #202, #801, #18 ) ) REPRESENTATION_CONTEXT ( 'NONE', 'WORKASPACE' ) );
#383 = CIRCLE ( 'NONE', #490, 25.00000000000000000 ) ;
#384 = LINE ( 'NONE', #64, #379 ) ;
#385 = ORIENTED_EDGE ( 'NONE', *, *, #273, .T. ) ;
#386 = VERTEX_POINT ( 'NONE', #714 ) ;
#387 = DIRECTION ( 'NONE',  ( 1.000000000000000000, 0.000000000000000000, 0.000000000000000000 ) ) ;
#388 = CARTESIAN_POINT ( 'NONE',  ( -53.40000000000000568, -30.00000000000001066, 15.00000000000000000 ) ) ;
#389 = ORIENTED_EDGE ( 'NONE', *, *, #742, .T. ) ;
#390 = ORIENTED_EDGE ( 'NONE', *, *, #101, .T. ) ;
#391 = DIRECTION ( 'NONE',  ( 1.000000000000000000, 0.000000000000000000, -0.000000000000000000 ) ) ;
#392 = STYLED_ITEM ( 'NONE', ( #394 ), #767 ) ;
#393 = ADVANCED_FACE ( 'NONE', ( #164 ), #245, .T. ) ;
#394 = PRESENTATION_STYLE_ASSIGNMENT (( #278 ) ) ;
#395 = DIRECTION ( 'NONE',  ( 1.000000000000000000, 0.000000000000000000, 0.000000000000000000 ) ) ;
#396 = COLOUR_RGB ( '',0.7921568627450980005, 0.8196078431372548767, 0.9333333333333333481 ) ;
#397 = MECHANICAL_DESIGN_GEOMETRIC_PRESENTATION_REPRESENTATION (  '', ( #266 ), #747 ) ;
#398 = DIRECTION ( 'NONE',  ( -0.000000000000000000, -0.000000000000000000, 1.000000000000000000 ) ) ;
#399 = FACE_OUTER_BOUND ( 'NONE', #267, .T. ) ;
#400 = VECTOR ( 'NONE', #412, 1000.000000000000000 ) ;
#401 = LINE ( 'NONE', #24, #179 ) ;
#402 = EDGE_CURVE ( 'NONE', #59, #631, #249, .T. ) ;
#403 = CARTESIAN_POINT ( 'NONE',  ( 60.00000000000001421, 40.00000000000000000, 0.000000000000000000 ) ) ;
#404 = CARTESIAN_POINT ( 'NONE',  ( 50.00000000000000711, -30.00000000000000711, 0.000000000000000000 ) ) ;
#405 = CIRCLE ( 'NONE', #44, 25.00000000000000000 ) ;
#406 = SURFACE_STYLE_FILL_AREA ( #22 ) ;
#407 = CARTESIAN_POINT ( 'NONE',  ( -53.40000000000000568, -30.00000000000001066, 0.000000000000000000 ) ) ;
#408 = ADVANCED_FACE ( 'NONE', ( #186 ), #310, .F. ) ;
#409 = PRESENTATION_STYLE_ASSIGNMENT (( #549 ) ) ;
#410 = FILL_AREA_STYLE_COLOUR ( '', #207 ) ;
#411 = ORIENTED_EDGE ( 'NONE', *, *, #419, .T. ) ;
#412 = DIRECTION ( 'NONE',  ( -0.000000000000000000, -0.000000000000000000, 1.000000000000000000 ) ) ;
#413 = AXIS2_PLACEMENT_3D ( 'NONE', #790, #6, #776 ) ;
#414 = CARTESIAN_POINT ( 'NONE',  ( -59.99999999999997158, 29.99999999999999289, 0.000000000000000000 ) ) ;
#415 = CYLINDRICAL_SURFACE ( 'NONE', #611, 3.399999999999993250 ) ;
#416 = DIRECTION ( 'NONE',  ( -0.000000000000000000, -0.000000000000000000, 1.000000000000000000 ) ) ;
#417 = ORIENTED_EDGE ( 'NONE', *, *, #598, .T. ) ;
#418 = DIRECTION ( 'NONE',  ( -0.000000000000000000, -0.000000000000000000, 1.000000000000000000 ) ) ;
#419 = EDGE_CURVE ( 'NONE', #786, #141, #689, .T. ) ;
#420 = SURFACE_STYLE_FILL_AREA ( #169 ) ;
#421 = CARTESIAN_POINT ( 'NONE',  ( -59.99999999999997158, -30.00000000000001776, 0.000000000000000000 ) ) ;
#422 = ORIENTED_EDGE ( 'NONE', *, *, #29, .F. ) ;
#423 = EDGE_LOOP ( 'NONE', ( #213, #306, #411, #302 ) ) ;
#424 = CARTESIAN_POINT ( 'NONE',  ( 49.99999999999999289, 29.99999999999999645, 0.000000000000000000 ) ) ;
#425 = MECHANICAL_DESIGN_GEOMETRIC_PRESENTATION_REPRESENTATION (  '', ( #787 ), #262 ) ;
#426 =( NAMED_UNIT ( * ) PLANE_ANGLE_UNIT ( ) SI_UNIT ( $, .RADIAN. ) );
#427 = SURFACE_STYLE_USAGE ( .BOTH. , #576 ) ;
#428 = AXIS2_PLACEMENT_3D ( 'NONE', #833, #256, #514 ) ;
#429 = EDGE_LOOP ( 'NONE', ( #38, #192 ) ) ;
#430 = EDGE_LOOP ( 'NONE', ( #9, #623, #113, #577 ) ) ;
#431 = ADVANCED_BREP_SHAPE_REPRESENTATION ( 'plate with a pocket', ( #690, #731 ), #797 ) ;
#432 = DIRECTION ( 'NONE',  ( -1.000000000000000000, 0.000000000000000000, 0.000000000000000000 ) ) ;
#433 = DIRECTION ( 'NONE',  ( -0.000000000000000000, -0.000000000000000000, 1.000000000000000000 ) ) ;
#434 = EDGE_CURVE ( 'NONE', #182, #386, #781, .T. ) ;
#435 = VERTEX_POINT ( 'NONE', #619 ) ;
#436 = ORIENTED_EDGE ( 'NONE', *, *, #524, .F. ) ;
#437 = ORIENTED_EDGE ( 'NONE', *, *, #290, .T. ) ;
#438 = CARTESIAN_POINT ( 'NONE',  ( 0.000000000000000000, 0.000000000000000000, 6.999999999999999112 ) ) ;
#439 = CARTESIAN_POINT ( 'NONE',  ( 60.00000000000001421, -40.00000000000000000, 15.00000000000000000 ) ) ;
#440 = CARTESIAN_POINT ( 'NONE',  ( -50.00000000000000711, 29.99999999999998934, 15.00000000000000178 ) ) ;
#441 = EDGE_CURVE ( 'NONE', #631, #141, #474, .T. ) ;
#442 = ORIENTED_EDGE ( 'NONE', *, *, #711, .F. ) ;
#443 = SURFACE_STYLE_USAGE ( .BOTH. , #513 ) ;
#444 = COLOUR_RGB ( '',0.7921568627450980005, 0.8196078431372548767, 0.9333333333333333481 ) ;
#445 = VERTEX_POINT ( 'NONE', #421 ) ;
#446 = LINE ( 'NONE', #311, #520 ) ;
#447 = CIRCLE ( 'NONE', #74, 10.00000000000000178 ) ;
#448 = VECTOR ( 'NONE', #768, 1000.000000000000000 ) ;
#449 = ORIENTED_EDGE ( 'NONE', *, *, #180, .F. ) ;
#450 = SURFACE_SIDE_STYLE ('',( #591 ) ) ;
#451 = CIRCLE ( 'NONE', #761, 10.00000000000000178 ) ;
#452 = LINE ( 'NONE', #769, #312 ) ;
#453 = ORIENTED_EDGE ( 'NONE', *, *, #1, .T. ) ;
#454 = CYLINDRICAL_SURFACE ( 'NONE', #234, 3.399999999999993250 ) ;
#455 = EDGE_CURVE ( 'NONE', #498, #750, #45, .T. ) ;
#456 = FACE_OUTER_BOUND ( 'NONE', #263, .T. ) ;
#457 = SURFACE_SIDE_STYLE ('',( #471 ) ) ;
#458 =( NAMED_UNIT ( * ) PLANE_ANGLE_UNIT ( ) SI_UNIT ( $, .RADIAN. ) );
#459 = CARTESIAN_POINT ( 'NONE',  ( -50.00000000000000711, -30.00000000000001066, 15.00000000000000000 ) ) ;
#460 = CARTESIAN_POINT ( 'NONE',  ( 50.00000000000001421, 40.00000000000000000, 15.00000000000000000 ) ) ;
#461 =( GEOMETRIC_REPRESENTATION_CONTEXT ( 3 ) GLOBAL_UNCERTAINTY_ASSIGNED_CONTEXT ( ( #344 ) ) GLOBAL_UNIT_ASSIGNED_CONTEXT ( ( #88, #214, #149 ) ) REPRESENTATION_CONTEXT ( 'NONE', 'WORKASPACE' ) );
#462 = DIRECTION ( 'NONE',  ( -0.000000000000000000, -0.000000000000000000, 1.000000000000000000 ) ) ;
#463 = AXIS2_PLACEMENT_3D ( 'NONE', #102, #43, #808 ) ;
#464 = DIRECTION ( 'NONE',  ( -1.000000000000000000, -1.156482317317871725E-16, 0.000000000000000000 ) ) ;
#465 = DIRECTION ( 'NONE',  ( 0.000000000000000000, 0.000000000000000000, 1.000000000000000000 ) ) ;
#466 = VECTOR ( 'NONE', #807, 1000.000000000000000 ) ;
#467 = CYLINDRICAL_SURFACE ( 'NONE', #676, 3.399999999999993250 ) ;
#468 = EDGE_CURVE ( 'NONE', #469, #612, #148, .T. ) ;
#469 = VERTEX_POINT ( 'NONE', #352 ) ;
#470 = CARTESIAN_POINT ( 'NONE',  ( -46.60000000000001563, -30.00000000000001066, 0.000000000000000000 ) ) ;
#471 = SURFACE_STYLE_FILL_AREA ( #729 ) ;
#472 = CARTESIAN_POINT ( 'NONE',  ( 49.99999999999999289, -29.99999999999999645, 15.00000000000000178 ) ) ;
#473 = STYLED_ITEM ( 'NONE', ( #800 ), #756 ) ;
#474 = CIRCLE ( 'NONE', #791, 3.399999999999986144 ) ;
#475 = DIRECTION ( 'NONE',  ( -0.000000000000000000, -0.000000000000000000, 1.000000000000000000 ) ) ;
#476 = CARTESIAN_POINT ( 'NONE',  ( 60.00000000000001421, 40.00000000000000000, 15.00000000000000000 ) ) ;
#477 = EDGE_CURVE ( 'NONE', #750, #173, #824, .T. ) ;
#478 = CARTESIAN_POINT ( 'NONE',  ( 49.99999999999999289, 29.99999999999999645, 15.00000000000000178 ) ) ;
#479 = FILL_AREA_STYLE_COLOUR ( '', #279 ) ;
#480 = UNCERTAINTY_MEASURE_WITH_UNIT (LENGTH_MEASURE( 1.000000000000000082E-05 ), #811, 'distance_accuracy_value', 'NONE');
#481 = EDGE_LOOP ( 'NONE', ( #436, #313 ) ) ;
#482 = DIRECTION ( 'NONE',  ( -0.000000000000000000, -0.000000000000000000, 1.000000000000000000 ) ) ;
#483 = ORIENTED_EDGE ( 'NONE', *, *, #642, .T. ) ;
#484 = ORIENTED_EDGE ( 'NONE', *, *, #358, .F. ) ;
#485 = DIRECTION ( 'NONE',  ( 1.000000000000000000, 1.156482317317871725E-16, 0.000000000000000000 ) ) ;
#486 =( GEOMETRIC_REPRESENTATION_CONTEXT ( 3 ) GLOBAL_UNCERTAINTY_ASSIGNED_CONTEXT ( ( #155 ) ) GLOBAL_UNIT_ASSIGNED_CONTEXT ( ( #36, #621, #287 ) ) REPRESENTATION_CONTEXT ( 'NONE', 'WORKASPACE' ) );
#487 = DIRECTION ( 'NONE',  ( 0.000000000000000000, -0.000000000000000000, 1.000000000000000000 ) ) ;
#488 = EDGE_CURVE ( 'NONE', #792, #99, #354, .T. ) ;
#489 = FACE_OUTER_BOUND ( 'NONE', #777, .T. ) ;
#490 = AXIS2_PLACEMENT_3D ( 'NONE', #613, #39, #146 ) ;
#491 = LINE ( 'NONE', #116, #330 ) ;
#492 = ORIENTED_EDGE ( 'NONE', *, *, #455, .T. ) ;
#493 = PLANE ( 'NONE',  #746 ) ;
#494 = SURFACE_STYLE_USAGE ( .BOTH. , #561 ) ;
#495 = ORIENTED_EDGE ( 'NONE', *, *, #42, .F. ) ;
#496 = DIRECTION ( 'NONE',  ( -0.000000000000000000, -0.000000000000000000, 1.000000000000000000 ) ) ;
#497 = VERTEX_POINT ( 'NONE', #414 ) ;
#498 = VERTEX_POINT ( 'NONE', #682 ) ;
#499 = ORIENTED_EDGE ( 'NONE', *, *, #642, .F. ) ;
#500 = CARTESIAN_POINT ( 'NONE',  ( 0.000000000000000000, 0.000000000000000000, 6.999999999999999112 ) ) ;
#501 = EDGE_CURVE ( 'NONE', #59, #786, #837, .T. ) ;
#502 =( NAMED_UNIT ( * ) PLANE_ANGLE_UNIT ( ) SI_UNIT ( $, .RADIAN. ) );
#503 = AXIS2_PLACEMENT_3D ( 'NONE', #153, #416, #152 ) ;
#504 = AXIS2_PLACEMENT_3D ( 'NONE', #572, #556, #838 ) ;
#505 = EDGE_LOOP ( 'NONE', ( #718, #581, #708, #70 ) ) ;
#506 = ORIENTED_EDGE ( 'NONE', *, *, #90, .F. ) ;
#507 = VECTOR ( 'NONE', #218, 1000.000000000000000 ) ;
#508 = CARTESIAN_POINT ( 'NONE',  ( -46.60000000000001563, 29.99999999999998934, 15.00000000000000000 ) ) ;
#509 = EDGE_CURVE ( 'NONE', #584, #107, #799, .T. ) ;
#510 = CARTESIAN_POINT ( 'NONE',  ( -53.39999999999999858, 29.99999999999998934, 15.00000000000000178 ) ) ;
#511 = ORIENTED_EDGE ( 'NONE', *, *, #728, .T. ) ;
#512 = ORIENTED_EDGE ( 'NONE', *, *, #678, .T. ) ;
#513 = SURFACE_SIDE_STYLE ('',( #255 ) ) ;
#514 = DIRECTION ( 'NONE',  ( -1.000000000000000000, 0.000000000000000000, 0.000000000000000000 ) ) ;
#515 = FILL_AREA_STYLE ('',( #637 ) ) ;
#516 = ORIENTED_EDGE ( 'NONE', *, *, #5, .T. ) ;
#517 = SURFACE_SIDE_STYLE ('',( #649 ) ) ;
#518 = ORIENTED_EDGE ( 'NONE', *, *, #258, .F. ) ;
#519 = MECHANICAL_DESIGN_GEOMETRIC_PRESENTATION_REPRESENTATION (  '', ( #553 ), #294 ) ;
#520 = VECTOR ( 'NONE', #305, 1000.000000000000000 ) ;
#521 = AXIS2_PLACEMENT_3D ( 'NONE', #500, #629, #706 ) ;
#522 = ORIENTED_EDGE ( 'NONE', *, *, #258, .T. ) ;
#523 = VERTEX_POINT ( 'NONE', #685 ) ;
#524 = EDGE_CURVE ( 'NONE', #612, #469, #734, .T. ) ;
#525 = FILL_AREA_STYLE_COLOUR ( '', #444 ) ;
#526 = CIRCLE ( 'NONE', #268, 3.399999999999993250 ) ;
#527 = EDGE_LOOP ( 'NONE', ( #167, #764 ) ) ;
#528 = FACE_OUTER_BOUND ( 'NONE', #703, .T. ) ;
#529 = PLANE ( 'NONE',  #14 ) ;
#530 = FILL_AREA_STYLE_COLOUR ( '', #658 ) ;
#531 = DIRECTION ( 'NONE',  ( -0.000000000000000000, 0.000000000000000000, -1.000000000000000000 ) ) ;
#532 = ADVANCED_FACE ( 'NONE', ( #813 ), #345, .F. ) ;
#533 = FACE_OUTER_BOUND ( 'NONE', #259, .T. ) ;
#534 = DIRECTION ( 'NONE',  ( 0.000000000000000000, 0.000000000000000000, 1.000000000000000000 ) ) ;
#535 = CIRCLE ( 'NONE', #158, 3.399999999999993250 ) ;
#536 = MECHANICAL_DESIGN_GEOMETRIC_PRESENTATION_REPRESENTATION (  '', ( #250 ), #382 ) ;
#537 = ADVANCED_FACE ( 'NONE', ( #157, #552, #295, #299, #763, #165 ), #359, .T. ) ;
#538 =( NAMED_UNIT ( * ) SI_UNIT ( $, .STERADIAN. ) SOLID_ANGLE_UNIT ( ) );
#539 = LINE ( 'NONE', #815, #466 ) ;
#540 = CARTESIAN_POINT ( 'NONE',  ( -46.60000000000002274, -30.00000000000001066, 15.00000000000000178 ) ) ;
#541 = PRESENTATION_STYLE_ASSIGNMENT (( #600 ) ) ;
#542 = EDGE_CURVE ( 'NONE', #99, #355, #447, .T. ) ;
#543 = AXIS2_PLACEMENT_3D ( 'NONE', #201, #203, #21 ) ;
#544 = UNCERTAINTY_MEASURE_WITH_UNIT (LENGTH_MEASURE( 1.000000000000000082E-05 ), #60, 'distance_accuracy_value', 'NONE');
#545 = AXIS2_PLACEMENT_3D ( 'NONE', #178, #371, #432 ) ;
#546 = CIRCLE ( 'NONE', #210, 10.00000000000000178 ) ;
#547 = CARTESIAN_POINT ( 'NONE',  ( -50.00000000000000711, 29.99999999999998934, 15.00000000000000178 ) ) ;
#548 = CARTESIAN_POINT ( 'NONE',  ( -59.99999999999997158, -30.00000000000001776, 15.00000000000000000 ) ) ;
#549 = SURFACE_STYLE_USAGE ( .BOTH. , #221 ) ;
#550 = CARTESIAN_POINT ( 'NONE',  ( 49.99999999999999289, -29.99999999999999645, 0.000000000000000000 ) ) ;
#551 = ADVANCED_FACE ( 'NONE', ( #630 ), #723, .T. ) ;
#552 = FACE_BOUND ( 'NONE', #242, .T. ) ;
#553 = STYLED_ITEM ( 'NONE', ( #541 ), #783 ) ;
#554 = CARTESIAN_POINT ( 'NONE',  ( -50.00000000000000711, -30.00000000000001066, 15.00000000000000178 ) ) ;
#555 = STYLED_ITEM ( 'NONE', ( #409 ), #532 ) ;
#556 = DIRECTION ( 'NONE',  ( -0.000000000000000000, -0.000000000000000000, 1.000000000000000000 ) ) ;
#557 = CIRCLE ( 'NONE', #521, 25.00000000000000000 ) ;
#558 = DIRECTION ( 'NONE',  ( 0.000000000000000000, 0.000000000000000000, -1.000000000000000000 ) ) ;
#559 = PRODUCT_DEFINITION_CONTEXT ( 'detailed design', #351, 'design' ) ;
#560 = DIRECTION ( 'NONE',  ( -0.000000000000000000, -0.000000000000000000, 1.000000000000000000 ) ) ;
#561 = SURFACE_SIDE_STYLE ('',( #420 ) ) ;
#562 = DIRECTION ( 'NONE',  ( 1.000000000000000000, 0.000000000000000000, 0.000000000000000000 ) ) ;
#563 = ORIENTED_EDGE ( 'NONE', *, *, #42, .T. ) ;
#564 = ORIENTED_EDGE ( 'NONE', *, *, #139, .F. ) ;
#565 =( NAMED_UNIT ( * ) SI_UNIT ( $, .STERADIAN. ) SOLID_ANGLE_UNIT ( ) );
#566 = ADVANCED_FACE ( 'NONE', ( #568, #252, #2, #57, #68 ), #647, .F. ) ;
#567 = CYLINDRICAL_SURFACE ( 'NONE', #428, 10.00000000000000178 ) ;
#568 = FACE_BOUND ( 'NONE', #78, .T. ) ;
#569 = ORIENTED_EDGE ( 'NONE', *, *, #25, .F. ) ;
#570 = ORIENTED_EDGE ( 'NONE', *, *, #151, .F. ) ;
#571 =( NAMED_UNIT ( * ) SI_UNIT ( $, .STERADIAN. ) SOLID_ANGLE_UNIT ( ) );
#572 = CARTESIAN_POINT ( 'NONE',  ( 0.000000000000000000, 0.000000000000000000, 6.999999999999999112 ) ) ;
#573 = DIRECTION ( 'NONE',  ( 0.000000000000000000, -0.000000000000000000, 1.000000000000000000 ) ) ;
#574 = AXIS2_PLACEMENT_3D ( 'NONE', #607, #32, #93 ) ;
#575 = ORIENTED_EDGE ( 'NONE', *, *, #132, .T. ) ;
#576 = SURFACE_SIDE_STYLE ('',( #61 ) ) ;
#577 = ORIENTED_EDGE ( 'NONE', *, *, #477, .F. ) ;
#578 = EDGE_LOOP ( 'NONE', ( #369, #814, #495, #241 ) ) ;
#579 =( LENGTH_UNIT ( ) NAMED_UNIT ( * ) SI_UNIT ( .MILLI., .METRE. ) );
#580 = CARTESIAN_POINT ( 'NONE',  ( 60.00000000000001421, -40.00000000000000000, 15.00000000000000000 ) ) ;
#581 = ORIENTED_EDGE ( 'NONE', *, *, #672, .F. ) ;
#582 = PRESENTATION_STYLE_ASSIGNMENT (( #427 ) ) ;
#583 = EDGE_CURVE ( 'NONE', #380, #247, #405, .T. ) ;
#584 = VERTEX_POINT ( 'NONE', #111 ) ;
#585 = ORIENTED_EDGE ( 'NONE', *, *, #542, .F. ) ;
#586 = SURFACE_STYLE_USAGE ( .BOTH. , #517 ) ;
#587 = CARTESIAN_POINT ( 'NONE',  ( -49.99999999999997158, -40.00000000000001421, 15.00000000000000000 ) ) ;
#588 = PRESENTATION_LAYER_ASSIGNMENT (  '', '', ( #555 ) ) ;
#589 = VECTOR ( 'NONE', #558, 1000.000000000000000 ) ;
#590 = CIRCLE ( 'NONE', #232, 3.399999999999993250 ) ;
#591 = SURFACE_STYLE_FILL_AREA ( #195 ) ;
#592 = FILL_AREA_STYLE_COLOUR ( '', #396 ) ;
#593 = FILL_AREA_STYLE_COLOUR ( '', #156 ) ;
#594 = EDGE_CURVE ( 'NONE', #174, #523, #695, .T. ) ;
#595 = CARTESIAN_POINT ( 'NONE',  ( 53.39999999999998437, -29.99999999999999645, 15.00000000000000178 ) ) ;
#596 = DIRECTION ( 'NONE',  ( -0.000000000000000000, -0.000000000000000000, 1.000000000000000000 ) ) ;
#597 = PLANE ( 'NONE',  #641 ) ;
#598 = EDGE_CURVE ( 'NONE', #40, #633, #702, .T. ) ;
#599 = PRESENTATION_LAYER_ASSIGNMENT (  '', '', ( #392 ) ) ;
#600 = SURFACE_STYLE_USAGE ( .BOTH. , #457 ) ;
#601 = PRESENTATION_LAYER_ASSIGNMENT (  '', '', ( #33 ) ) ;
#602 = DIRECTION ( 'NONE',  ( -0.000000000000000000, -0.000000000000000000, 1.000000000000000000 ) ) ;
#603 = DIRECTION ( 'NONE',  ( -0.000000000000000000, -0.000000000000000000, 1.000000000000000000 ) ) ;
#604 = DIRECTION ( 'NONE',  ( 0.000000000000000000, 0.000000000000000000, 1.000000000000000000 ) ) ;
#605 = EDGE_CURVE ( 'NONE', #96, #469, #452, .T. ) ;
#606 = DIRECTION ( 'NONE',  ( 1.156482317317871725E-16, -1.000000000000000000, 0.000000000000000000 ) ) ;
#607 = CARTESIAN_POINT ( 'NONE',  ( 0.000000000000000000, 0.000000000000000000, 15.00000000000000000 ) ) ;
#608 = FILL_AREA_STYLE ('',( #479 ) ) ;
#609 = UNCERTAINTY_MEASURE_WITH_UNIT (LENGTH_MEASURE( 1.000000000000000082E-05 ), #55, 'distance_accuracy_value', 'NONE');
#610 = DIRECTION ( 'NONE',  ( 0.000000000000000000, -0.000000000000000000, 1.000000000000000000 ) ) ;
#611 = AXIS2_PLACEMENT_3D ( 'NONE', #297, #560, #293 ) ;
#612 = VERTEX_POINT ( 'NONE', #828 ) ;
#613 = CARTESIAN_POINT ( 'NONE',  ( 0.000000000000000000, 0.000000000000000000, 6.999999999999999112 ) ) ;
#614 = EDGE_CURVE ( 'NONE', #786, #59, #535, .T. ) ;
#615 = DIRECTION ( 'NONE',  ( 1.000000000000000000, 0.000000000000000000, 0.000000000000000000 ) ) ;
#616 = LINE ( 'NONE', #100, #15 ) ;
#617 = CARTESIAN_POINT ( 'NONE',  ( 50.00000000000000711, 40.00000000000000000, 15.00000000000000000 ) ) ;
#618 = AXIS2_PLACEMENT_3D ( 'NONE', #798, #274, #732 ) ;
#619 = CARTESIAN_POINT ( 'NONE',  ( -25.00000000000000000, 3.061616997868383043E-15, 6.999999999999999112 ) ) ;
#620 = AXIS2_PLACEMENT_3D ( 'NONE', #635, #4, #366 ) ;
#621 =( NAMED_UNIT ( * ) PLANE_ANGLE_UNIT ( ) SI_UNIT ( $, .RADIAN. ) );
#622 = ORIENTED_EDGE ( 'NONE', *, *, #434, .T. ) ;
#623 = ORIENTED_EDGE ( 'NONE', *, *, #290, .F. ) ;
#624 = DIRECTION ( 'NONE',  ( 0.000000000000000000, 0.000000000000000000, -1.000000000000000000 ) ) ;
#625 = FACE_OUTER_BOUND ( 'NONE', #208, .T. ) ;
#626 = CARTESIAN_POINT ( 'NONE',  ( 60.00000000000001421, -40.00000000000000000, 0.000000000000000000 ) ) ;
#627 = ORIENTED_EDGE ( 'NONE', *, *, #25, .T. ) ;
#628 =( NAMED_UNIT ( * ) PLANE_ANGLE_UNIT ( ) SI_UNIT ( $, .RADIAN. ) );
#629 = DIRECTION ( 'NONE',  ( 0.000000000000000000, 0.000000000000000000, 1.000000000000000000 ) ) ;
#630 = FACE_OUTER_BOUND ( 'NONE', #260, .T. ) ;
#631 = VERTEX_POINT ( 'NONE', #510 ) ;
#632 = EDGE_LOOP ( 'NONE', ( #499, #442, #254, #704 ) ) ;
#633 = VERTEX_POINT ( 'NONE', #246 ) ;
#634 = DIRECTION ( 'NONE',  ( 1.000000000000000000, 0.000000000000000000, 0.000000000000000000 ) ) ;
#635 = CARTESIAN_POINT ( 'NONE',  ( 49.99999999999999289, -29.99999999999999645, 15.00000000000000000 ) ) ;
#636 = ORIENTED_EDGE ( 'NONE', *, *, #542, .T. ) ;
#637 = FILL_AREA_STYLE_COLOUR ( '', #126 ) ;
#638 = VECTOR ( 'NONE', #433, 1000.000000000000000 ) ;
#639 = VERTEX_POINT ( 'NONE', #133 ) ;
#640 = ORIENTED_EDGE ( 'NONE', *, *, #1, .F. ) ;
#641 = AXIS2_PLACEMENT_3D ( 'NONE', #580, #793, #200 ) ;
#642 = EDGE_CURVE ( 'NONE', #191, #584, #187, .T. ) ;
#643 = CARTESIAN_POINT ( 'NONE',  ( 0.000000000000000000, 0.000000000000000000, 15.00000000000000000 ) ) ;
#644 = ORIENTED_EDGE ( 'NONE', *, *, #614, .T. ) ;
#645 = CYLINDRICAL_SURFACE ( 'NONE', #326, 3.399999999999993250 ) ;
#646 = ORIENTED_EDGE ( 'NONE', *, *, #488, .T. ) ;
#647 = PLANE ( 'NONE',  #789 ) ;
#648 = VERTEX_POINT ( 'NONE', #316 ) ;
#649 = SURFACE_STYLE_FILL_AREA ( #720 ) ;
#650 = DIRECTION ( 'NONE',  ( -0.000000000000000000, 0.000000000000000000, -1.000000000000000000 ) ) ;
#651 = VECTOR ( 'NONE', #700, 1000.000000000000000 ) ;
#652 = FACE_OUTER_BOUND ( 'NONE', #375, .T. ) ;
#653 =( LENGTH_UNIT ( ) NAMED_UNIT ( * ) SI_UNIT ( .MILLI., .METRE. ) );
#654 = VECTOR ( 'NONE', #823, 1000.000000000000000 ) ;
#655 = EDGE_CURVE ( 'NONE', #355, #497, #446, .T. ) ;
#656 = APPLICATION_PROTOCOL_DEFINITION ( 'draft international standard', 'automotive_design', 1998, #351 ) ;
#657 = FACE_OUTER_BOUND ( 'NONE', #632, .T. ) ;
#658 = COLOUR_RGB ( '',0.7921568627450980005, 0.8196078431372548767, 0.9333333333333333481 ) ;
#659 = AXIS2_PLACEMENT_3D ( 'NONE', #292, #341, #150 ) ;
#660 = PLANE ( 'NONE',  #543 ) ;
#661 =( NAMED_UNIT ( * ) SI_UNIT ( $, .STERADIAN. ) SOLID_ANGLE_UNIT ( ) );
#662 = EDGE_CURVE ( 'NONE', #141, #631, #759, .T. ) ;
#663 = PRODUCT_CONTEXT ( 'NONE', #713, 'mechanical' ) ;
#664 = DIRECTION ( 'NONE',  ( 0.000000000000000000, -0.000000000000000000, 1.000000000000000000 ) ) ;
#665 = DIRECTION ( 'NONE',  ( 1.000000000000000000, 0.000000000000000000, 0.000000000000000000 ) ) ;
#666 = ORIENTED_EDGE ( 'NONE', *, *, #333, .F. ) ;
#667 = MECHANICAL_DESIGN_GEOMETRIC_PRESENTATION_REPRESENTATION (  '', ( #392 ), #461 ) ;
#668 = CARTESIAN_POINT ( 'NONE',  ( -50.00000000000000711, -30.00000000000001066, 15.00000000000000000 ) ) ;
#669 = CIRCLE ( 'NONE', #618, 3.399999999999993250 ) ;
#670 = VECTOR ( 'NONE', #694, 1000.000000000000000 ) ;
#671 = CARTESIAN_POINT ( 'NONE',  ( -49.99999999999995026, -40.00000000000001421, 15.00000000000000000 ) ) ;
#672 = EDGE_CURVE ( 'NONE', #817, #96, #137, .T. ) ;
#673 = DIRECTION ( 'NONE',  ( -0.000000000000000000, 0.000000000000000000, -1.000000000000000000 ) ) ;
#674 = UNCERTAINTY_MEASURE_WITH_UNIT (LENGTH_MEASURE( 1.000000000000000082E-05 ), #653, 'distance_accuracy_value', 'NONE');
#675 =( NAMED_UNIT ( * ) PLANE_ANGLE_UNIT ( ) SI_UNIT ( $, .RADIAN. ) );
#676 = AXIS2_PLACEMENT_3D ( 'NONE', #738, #284, #665 ) ;
#677 = ORIENTED_EDGE ( 'NONE', *, *, #29, .T. ) ;
#678 = EDGE_CURVE ( 'NONE', #750, #99, #384, .T. ) ;
#679 = ORIENTED_EDGE ( 'NONE', *, *, #204, .F. ) ;
#680 = DIRECTION ( 'NONE',  ( -0.000000000000000000, -0.000000000000000000, 1.000000000000000000 ) ) ;
#681 = CIRCLE ( 'NONE', #35, 10.00000000000000178 ) ;
#682 = CARTESIAN_POINT ( 'NONE',  ( 60.00000000000001421, 30.00000000000000711, 15.00000000000000000 ) ) ;
#683 = MECHANICAL_DESIGN_GEOMETRIC_PRESENTATION_REPRESENTATION (  '', ( #211 ), #251 ) ;
#684 = DIRECTION ( 'NONE',  ( 0.000000000000000000, 0.000000000000000000, -1.000000000000000000 ) ) ;
#685 = CARTESIAN_POINT ( 'NONE',  ( 53.39999999999999147, -29.99999999999999645, 0.000000000000000000 ) ) ;
#686 = ORIENTED_EDGE ( 'NONE', *, *, #90, .T. ) ;
#687 = CARTESIAN_POINT ( 'NONE',  ( 25.00000000000000000, 0.000000000000000000, 15.00000000000000000 ) ) ;
#688 = PRODUCT_DEFINITION_SHAPE ( 'NONE', 'NONE',  #159 ) ;
#689 = LINE ( 'NONE', #508, #654 ) ;
#690 = MANIFOLD_SOLID_BREP ( 'Fillet1', #76 ) ;
#691 = DIRECTION ( 'NONE',  ( -0.000000000000000000, -0.000000000000000000, 1.000000000000000000 ) ) ;
#692 = ORIENTED_EDGE ( 'NONE', *, *, #358, .T. ) ;
#693 = PRESENTATION_LAYER_ASSIGNMENT (  '', '', ( #787 ) ) ;
#694 = DIRECTION ( 'NONE',  ( 0.000000000000000000, 1.000000000000000000, 0.000000000000000000 ) ) ;
#695 = CIRCLE ( 'NONE', #285, 3.399999999999993250 ) ;
#696 =( NAMED_UNIT ( * ) SI_UNIT ( $, .STERADIAN. ) SOLID_ANGLE_UNIT ( ) );
#697 = EDGE_CURVE ( 'NONE', #40, #445, #85, .T. ) ;
#698 = ORIENTED_EDGE ( 'NONE', *, *, #598, .F. ) ;
#699 = ORIENTED_EDGE ( 'NONE', *, *, #170, .T. ) ;
#700 = DIRECTION ( 'NONE',  ( -0.000000000000000000, -0.000000000000000000, 1.000000000000000000 ) ) ;
#701 = DIRECTION ( 'NONE',  ( -0.000000000000000000, -0.000000000000000000, 1.000000000000000000 ) ) ;
#702 = LINE ( 'NONE', #626, #94 ) ;
#703 = EDGE_LOOP ( 'NONE', ( #417, #363, #757, #453 ) ) ;
#704 = ORIENTED_EDGE ( 'NONE', *, *, #231, .T. ) ;
#705 = ORIENTED_EDGE ( 'NONE', *, *, #605, .T. ) ;
#706 = DIRECTION ( 'NONE',  ( 1.000000000000000000, 0.000000000000000000, 0.000000000000000000 ) ) ;
#707 = CARTESIAN_POINT ( 'NONE',  ( -49.99999999999997158, -30.00000000000001776, 0.000000000000000000 ) ) ;
#708 = ORIENTED_EDGE ( 'NONE', *, *, #795, .T. ) ;
#709 = ORIENTED_EDGE ( 'NONE', *, *, #282, .F. ) ;
#710 = AXIS2_PLACEMENT_3D ( 'NONE', #668, #603, #27 ) ;
#711 = EDGE_CURVE ( 'NONE', #131, #191, #669, .T. ) ;
#712 = CARTESIAN_POINT ( 'NONE',  ( -49.99999999999995026, 39.99999999999998579, 0.000000000000000000 ) ) ;
#713 = APPLICATION_CONTEXT ( 'automotive_design' ) ;
#714 = CARTESIAN_POINT ( 'NONE',  ( 50.00000000000001421, -40.00000000000000000, 15.00000000000000000 ) ) ;
#715 = DIRECTION ( 'NONE',  ( 1.000000000000000000, 0.000000000000000000, 0.000000000000000000 ) ) ;
#716 = AXIS2_PLACEMENT_3D ( 'NONE', #760, #487, #162 ) ;
#717 = ORIENTED_EDGE ( 'NONE', *, *, #594, .T. ) ;
#718 = ORIENTED_EDGE ( 'NONE', *, *, #605, .F. ) ;
#719 = AXIS2_PLACEMENT_3D ( 'NONE', #550, #680, #87 ) ;
#720 = FILL_AREA_STYLE ('',( #525 ) ) ;
#721 = PRESENTATION_LAYER_ASSIGNMENT (  '', '', ( #211 ) ) ;
#722 = SURFACE_STYLE_USAGE ( .BOTH. , #450 ) ;
#723 = CYLINDRICAL_SURFACE ( 'NONE', #413, 10.00000000000000178 ) ;
#724 = ORIENTED_EDGE ( 'NONE', *, *, #594, .F. ) ;
#725 = LINE ( 'NONE', #328, #145 ) ;
#726 = CARTESIAN_POINT ( 'NONE',  ( -50.00000000000000711, -30.00000000000001066, 0.000000000000000000 ) ) ;
#727 = CARTESIAN_POINT ( 'NONE',  ( 0.000000000000000000, 0.000000000000000000, 6.999999999999999112 ) ) ;
#728 = EDGE_CURVE ( 'NONE', #386, #784, #265, .T. ) ;
#729 = FILL_AREA_STYLE ('',( #593 ) ) ;
#730 = DIRECTION ( 'NONE',  ( -0.000000000000000000, -0.000000000000000000, 1.000000000000000000 ) ) ;
#731 = AXIS2_PLACEMENT_3D ( 'NONE', #23, #534, #395 ) ;
#732 = DIRECTION ( 'NONE',  ( 1.000000000000000000, 0.000000000000000000, 0.000000000000000000 ) ) ;
#733 = ADVANCED_FACE ( 'NONE', ( #399 ), #660, .F. ) ;
#734 = CIRCLE ( 'NONE', #463, 3.399999999999986144 ) ;
#735 = ORIENTED_EDGE ( 'NONE', *, *, #742, .F. ) ;
#736 = PRESENTATION_LAYER_ASSIGNMENT (  '', '', ( #250 ) ) ;
#737 = AXIS2_PLACEMENT_3D ( 'NONE', #554, #418, #762 ) ;
#738 = CARTESIAN_POINT ( 'NONE',  ( -50.00000000000000711, 29.99999999999998934, 15.00000000000000000 ) ) ;
#739 = CIRCLE ( 'NONE', #176, 3.399999999999986144 ) ;
#740 = DIRECTION ( 'NONE',  ( 1.000000000000000000, 0.000000000000000000, 0.000000000000000000 ) ) ;
#741 =( NAMED_UNIT ( * ) PLANE_ANGLE_UNIT ( ) SI_UNIT ( $, .RADIAN. ) );
#742 = EDGE_CURVE ( 'NONE', #435, #380, #325, .T. ) ;
#743 = CARTESIAN_POINT ( 'NONE',  ( 60.00000000000001421, -30.00000000000000711, 0.000000000000000000 ) ) ;
#744 = SURFACE_STYLE_USAGE ( .BOTH. , #271 ) ;
#745 = AXIS2_PLACEMENT_3D ( 'NONE', #79, #794, #209 ) ;
#746 = AXIS2_PLACEMENT_3D ( 'NONE', #831, #356, #684 ) ;
#747 =( GEOMETRIC_REPRESENTATION_CONTEXT ( 3 ) GLOBAL_UNCERTAINTY_ASSIGNED_CONTEXT ( ( #544 ) ) GLOBAL_UNIT_ASSIGNED_CONTEXT ( ( #60, #426, #696 ) ) REPRESENTATION_CONTEXT ( 'NONE', 'WORKASPACE' ) );
#748 = SURFACE_STYLE_FILL_AREA ( #608 ) ;
#749 = DIRECTION ( 'NONE',  ( 1.000000000000000000, 0.000000000000000000, 0.000000000000000000 ) ) ;
#750 = VERTEX_POINT ( 'NONE', #460 ) ;
#751 = CARTESIAN_POINT ( 'NONE',  ( -59.99999999999997158, -30.00000000000001776, 15.00000000000000000 ) ) ;
#752 = ADVANCED_FACE ( 'NONE', ( #456 ), #529, .T. ) ;
#753 = DIRECTION ( 'NONE',  ( -0.000000000000000000, -0.000000000000000000, 1.000000000000000000 ) ) ;
#754 = PRODUCT ( 'plate with a pocket', 'plate with a pocket', '', ( #663 ) ) ;
#755 = SURFACE_STYLE_USAGE ( .BOTH. , #34 ) ;
#756 = ADVANCED_FACE ( 'NONE', ( #652 ), #332, .F. ) ;
#757 = ORIENTED_EDGE ( 'NONE', *, *, #434, .F. ) ;
#758 = CARTESIAN_POINT ( 'NONE',  ( 46.60000000000000853, -29.99999999999999645, 15.00000000000000178 ) ) ;
#759 = CIRCLE ( 'NONE', #277, 3.399999999999986144 ) ;
#760 = CARTESIAN_POINT ( 'NONE',  ( 50.00000000000000711, 30.00000000000000355, 15.00000000000000000 ) ) ;
#761 = AXIS2_PLACEMENT_3D ( 'NONE', #404, #673, #222 ) ;
#762 = DIRECTION ( 'NONE',  ( 1.000000000000000000, 0.000000000000000000, 0.000000000000000000 ) ) ;
#763 = FACE_BOUND ( 'NONE', #134, .T. ) ;
#764 = ORIENTED_EDGE ( 'NONE', *, *, #509, .F. ) ;
#765 = UNCERTAINTY_MEASURE_WITH_UNIT (LENGTH_MEASURE( 1.000000000000000082E-05 ), #579, 'distance_accuracy_value', 'NONE');
#766 = DIRECTION ( 'NONE',  ( -0.000000000000000000, -0.000000000000000000, 1.000000000000000000 ) ) ;
#767 = ADVANCED_FACE ( 'NONE', ( #80 ), #467, .F. ) ;
#768 = DIRECTION ( 'NONE',  ( -0.000000000000000000, -0.000000000000000000, 1.000000000000000000 ) ) ;
#769 = CARTESIAN_POINT ( 'NONE',  ( 46.60000000000000142, 29.99999999999999645, 15.00000000000000000 ) ) ;
#770 = EDGE_LOOP ( 'NONE', ( #264, #62 ) ) ;
#771 = ORIENTED_EDGE ( 'NONE', *, *, #501, .T. ) ;
#772 = PRESENTATION_STYLE_ASSIGNMENT (( #586 ) ) ;
#773 = VECTOR ( 'NONE', #596, 1000.000000000000000 ) ;
#774 = CARTESIAN_POINT ( 'NONE',  ( -25.00000000000000000, 3.061616997868383043E-15, 15.00000000000000000 ) ) ;
#775 = PRESENTATION_LAYER_ASSIGNMENT (  '', '', ( #266 ) ) ;
#776 = DIRECTION ( 'NONE',  ( -1.000000000000000000, 0.000000000000000000, 0.000000000000000000 ) ) ;
#777 = EDGE_LOOP ( 'NONE', ( #300, #52, #570, #119 ) ) ;
#778 = VECTOR ( 'NONE', #288, 1000.000000000000000 ) ;
#779 = EDGE_LOOP ( 'NONE', ( #136, #389, #308, #484 ) ) ;
#780 = ORIENTED_EDGE ( 'NONE', *, *, #441, .T. ) ;
#781 = LINE ( 'NONE', #439, #110 ) ;
#782 = DIRECTION ( 'NONE',  ( -0.000000000000000000, -0.000000000000000000, 1.000000000000000000 ) ) ;
#783 = ADVANCED_FACE ( 'NONE', ( #533 ), #804, .F. ) ;
#784 = VERTEX_POINT ( 'NONE', #216 ) ;
#785 = FILL_AREA_STYLE ('',( #314 ) ) ;
#786 = VERTEX_POINT ( 'NONE', #836 ) ;
#787 = STYLED_ITEM ( 'NONE', ( #772 ), #826 ) ;
#788 = ORIENTED_EDGE ( 'NONE', *, *, #468, .T. ) ;
#789 = AXIS2_PLACEMENT_3D ( 'NONE', #834, #573, #196 ) ;
#790 = CARTESIAN_POINT ( 'NONE',  ( -49.99999999999997158, -30.00000000000001776, 15.00000000000000000 ) ) ;
#791 = AXIS2_PLACEMENT_3D ( 'NONE', #547, #475, #615 ) ;
#792 = VERTEX_POINT ( 'NONE', #712 ) ;
#793 = DIRECTION ( 'NONE',  ( -1.156482317317871725E-16, 1.000000000000000000, 0.000000000000000000 ) ) ;
#794 = DIRECTION ( 'NONE',  ( 0.000000000000000000, -0.000000000000000000, 1.000000000000000000 ) ) ;
#795 = EDGE_CURVE ( 'NONE', #817, #612, #725, .T. ) ;
#796 = LINE ( 'NONE', #587, #365 ) ;
#797 =( GEOMETRIC_REPRESENTATION_CONTEXT ( 3 ) GLOBAL_UNCERTAINTY_ASSIGNED_CONTEXT ( ( #91 ) ) GLOBAL_UNIT_ASSIGNED_CONTEXT ( ( #309, #199, #571 ) ) REPRESENTATION_CONTEXT ( 'NONE', 'WORKASPACE' ) );
#798 = CARTESIAN_POINT ( 'NONE',  ( -50.00000000000000711, -30.00000000000001066, 0.000000000000000000 ) ) ;
#799 = CIRCLE ( 'NONE', #503, 3.399999999999986144 ) ;
#800 = PRESENTATION_STYLE_ASSIGNMENT (( #744 ) ) ;
#801 =( NAMED_UNIT ( * ) PLANE_ANGLE_UNIT ( ) SI_UNIT ( $, .RADIAN. ) );
#802 = VECTOR ( 'NONE', #464, 1000.000000000000000 ) ;
#803 = AXIS2_PLACEMENT_3D ( 'NONE', #215, #604, #84 ) ;
#804 = CYLINDRICAL_SURFACE ( 'NONE', #710, 3.399999999999993250 ) ;
#805 = ADVANCED_FACE ( 'NONE', ( #12 ), #243, .F. ) ;
#806 = FACE_OUTER_BOUND ( 'NONE', #318, .T. ) ;
#807 = DIRECTION ( 'NONE',  ( 0.000000000000000000, 0.000000000000000000, -1.000000000000000000 ) ) ;
#808 = DIRECTION ( 'NONE',  ( 1.000000000000000000, 0.000000000000000000, 0.000000000000000000 ) ) ;
#809 =( GEOMETRIC_REPRESENTATION_CONTEXT ( 3 ) GLOBAL_UNCERTAINTY_ASSIGNED_CONTEXT ( ( #289 ) ) GLOBAL_UNIT_ASSIGNED_CONTEXT ( ( #281, #741, #661 ) ) REPRESENTATION_CONTEXT ( 'NONE', 'WORKASPACE' ) );
#810 = COLOUR_RGB ( '',0.7921568627450980005, 0.8196078431372548767, 0.9333333333333333481 ) ;
#811 =( LENGTH_UNIT ( ) NAMED_UNIT ( * ) SI_UNIT ( .MILLI., .METRE. ) );
#812 = EDGE_CURVE ( 'NONE', #633, #386, #66, .T. ) ;
#813 = FACE_OUTER_BOUND ( 'NONE', #505, .T. ) ;
#814 = ORIENTED_EDGE ( 'NONE', *, *, #112, .T. ) ;
#815 = CARTESIAN_POINT ( 'NONE',  ( 60.00000000000001421, -30.00000000000000711, 15.00000000000000000 ) ) ;
#816 = UNCERTAINTY_MEASURE_WITH_UNIT (LENGTH_MEASURE( 1.000000000000000082E-05 ), #202, 'distance_accuracy_value', 'NONE');
#817 = VERTEX_POINT ( 'NONE', #323 ) ;
#818 = CARTESIAN_POINT ( 'NONE',  ( -46.60000000000002274, 29.99999999999998934, 15.00000000000000178 ) ) ;
#819 = DIRECTION ( 'NONE',  ( -0.000000000000000000, -0.000000000000000000, 1.000000000000000000 ) ) ;
#820 =( GEOMETRIC_REPRESENTATION_CONTEXT ( 3 ) GLOBAL_UNCERTAINTY_ASSIGNED_CONTEXT ( ( #31 ) ) GLOBAL_UNIT_ASSIGNED_CONTEXT ( ( #261, #502, #335 ) ) REPRESENTATION_CONTEXT ( 'NONE', 'WORKASPACE' ) );
#821 = CARTESIAN_POINT ( 'NONE',  ( 60.00000000000001421, -40.00000000000000000, 15.00000000000000000 ) ) ;
#822 = AXIS2_PLACEMENT_3D ( 'NONE', #364, #624, #381 ) ;
#823 = DIRECTION ( 'NONE',  ( -0.000000000000000000, -0.000000000000000000, 1.000000000000000000 ) ) ;
#824 = LINE ( 'NONE', #617, #589 ) ;
#825 = CIRCLE ( 'NONE', #803, 25.00000000000000000 ) ;
#826 = ADVANCED_FACE ( 'NONE', ( #115 ), #645, .F. ) ;
#827 = DIRECTION ( 'NONE',  ( -0.000000000000000000, -1.000000000000000000, -0.000000000000000000 ) ) ;
#828 = CARTESIAN_POINT ( 'NONE',  ( 53.39999999999998437, 29.99999999999999645, 15.00000000000000178 ) ) ;
#829 = ORIENTED_EDGE ( 'NONE', *, *, #151, .T. ) ;
#830 = ORIENTED_EDGE ( 'NONE', *, *, #315, .F. ) ;
#831 = CARTESIAN_POINT ( 'NONE',  ( -59.99999999999997158, -40.00000000000001421, 15.00000000000000000 ) ) ;
#832 = DIRECTION ( 'NONE',  ( -0.000000000000000000, -0.000000000000000000, 1.000000000000000000 ) ) ;
#833 = CARTESIAN_POINT ( 'NONE',  ( -49.99999999999997158, 29.99999999999999289, 15.00000000000000000 ) ) ;
#834 = CARTESIAN_POINT ( 'NONE',  ( 0.000000000000000000, 0.000000000000000000, 0.000000000000000000 ) ) ;
#835 = EDGE_LOOP ( 'NONE', ( #374, #492, #512, #636, #563, #677, #622, #511 ) ) ;
#836 = CARTESIAN_POINT ( 'NONE',  ( -46.60000000000001563, 29.99999999999998934, 0.000000000000000000 ) ) ;
#837 = CIRCLE ( 'NONE', #296, 3.399999999999993250 ) ;
#838 = DIRECTION ( 'NONE',  ( 1.000000000000000000, 0.000000000000000000, 0.000000000000000000 ) ) ;
ENDSEC;
END-ISO-10303-21;
