ISO-10303-21;
HEADER;
FILE_DESCRIPTION (( 'STEP AP214' ),
    '1' );
FILE_NAME ('Exercise 17.STEP',
    '2024-08-29T07:31:33',
    ( '' ),
    ( '' ),
    'SwSTEP 2.0',
    'SolidWorks 2024',
    '' );
FILE_SCHEMA (( 'AUTOMOTIVE_DESIGN' ));
ENDSEC;

DATA;
#1 = PLANE ( 'NONE',  #488 ) ;
#2 = PRODUCT_DEFINITION ( 'UNKNOWN', '', #328, #515 ) ;
#3 = VERTEX_POINT ( 'NONE', #123 ) ;
#4 = CARTESIAN_POINT ( 'NONE',  ( 33.00000000000000000, 19.00000000000000000, 0.000000000000000000 ) ) ;
#5 = ORIENTED_EDGE ( 'NONE', *, *, #713, .F. ) ;
#6 = FILL_AREA_STYLE_COLOUR ( '', #259 ) ;
#7 = STYLED_ITEM ( 'NONE', ( #742 ), #759 ) ;
#8 = DIRECTION ( 'NONE',  ( -0.000000000000000000, 1.000000000000000000, -0.000000000000000000 ) ) ;
#9 = VERTEX_POINT ( 'NONE', #245 ) ;
#10 = ORIENTED_EDGE ( 'NONE', *, *, #13, .F. ) ;
#11 = EDGE_CURVE ( 'NONE', #389, #745, #783, .T. ) ;
#12 = LINE ( 'NONE', #251, #611 ) ;
#13 = EDGE_CURVE ( 'NONE', #385, #767, #287, .T. ) ;
#14 = VERTEX_POINT ( 'NONE', #751 ) ;
#15 = EDGE_CURVE ( 'NONE', #719, #176, #12, .T. ) ;
#16 = AXIS2_PLACEMENT_3D ( 'NONE', #452, #137, #373 ) ;
#17 = CARTESIAN_POINT ( 'NONE',  ( 0.000000000000000000, 0.000000000000000000, 0.000000000000000000 ) ) ;
#18 = CIRCLE ( 'NONE', #460, 22.00000000000000000 ) ;
#19 = CIRCLE ( 'NONE', #771, 11.00000000000000000 ) ;
#20 = CYLINDRICAL_SURFACE ( 'NONE', #271, 8.000000000000000000 ) ;
#21 = DIRECTION ( 'NONE',  ( 0.000000000000000000, 0.000000000000000000, 1.000000000000000000 ) ) ;
#22 = DIRECTION ( 'NONE',  ( 0.000000000000000000, 0.000000000000000000, 1.000000000000000000 ) ) ;
#23 = ORIENTED_EDGE ( 'NONE', *, *, #619, .T. ) ;
#24 = CYLINDRICAL_SURFACE ( 'NONE', #30, 11.00000000000000000 ) ;
#25 = DIRECTION ( 'NONE',  ( -1.000000000000000000, -0.000000000000000000, -0.000000000000000000 ) ) ;
#26 = EDGE_LOOP ( 'NONE', ( #96, #582, #126, #58, #429 ) ) ;
#27 = CARTESIAN_POINT ( 'NONE',  ( 14.00000000000000000, 19.00000000000000355, 0.000000000000000000 ) ) ;
#28 = EDGE_CURVE ( 'NONE', #634, #14, #693, .T. ) ;
#29 = CIRCLE ( 'NONE', #625, 11.00000000000000000 ) ;
#30 = AXIS2_PLACEMENT_3D ( 'NONE', #17, #330, #510 ) ;
#31 = CARTESIAN_POINT ( 'NONE',  ( 0.000000000000000000, -10.00000000000000000, 0.000000000000000000 ) ) ;
#32 = AXIS2_PLACEMENT_3D ( 'NONE', #785, #41, #649 ) ;
#33 = ORIENTED_EDGE ( 'NONE', *, *, #303, .F. ) ;
#34 = FACE_OUTER_BOUND ( 'NONE', #698, .T. ) ;
#35 = DIRECTION ( 'NONE',  ( 0.000000000000000000, 0.000000000000000000, 1.000000000000000000 ) ) ;
#36 = VERTEX_POINT ( 'NONE', #506 ) ;
#37 = CYLINDRICAL_SURFACE ( 'NONE', #500, 8.000000000000000000 ) ;
#38 = DIRECTION ( 'NONE',  ( 0.000000000000000000, 0.000000000000000000, -1.000000000000000000 ) ) ;
#39 = EDGE_CURVE ( 'NONE', #237, #124, #573, .T. ) ;
#40 = ORIENTED_EDGE ( 'NONE', *, *, #230, .T. ) ;
#41 = DIRECTION ( 'NONE',  ( 1.000000000000000000, 0.000000000000000000, 0.000000000000000000 ) ) ;
#42 = CARTESIAN_POINT ( 'NONE',  ( 0.000000000000000000, -14.00000000000000000, 0.000000000000000000 ) ) ;
#43 = AXIS2_PLACEMENT_3D ( 'NONE', #721, #727, #548 ) ;
#44 = AXIS2_PLACEMENT_3D ( 'NONE', #670, #561, #125 ) ;
#45 = ORIENTED_EDGE ( 'NONE', *, *, #509, .F. ) ;
#46 = FACE_OUTER_BOUND ( 'NONE', #26, .T. ) ;
#47 = CARTESIAN_POINT ( 'NONE',  ( 0.000000000000000000, -10.00000000000000000, 0.000000000000000000 ) ) ;
#48 = ORIENTED_EDGE ( 'NONE', *, *, #15, .F. ) ;
#49 = LINE ( 'NONE', #605, #155 ) ;
#50 = CARTESIAN_POINT ( 'NONE',  ( 0.000000000000000000, 0.000000000000000000, 8.000000000000000000 ) ) ;
#51 = ORIENTED_EDGE ( 'NONE', *, *, #364, .F. ) ;
#52 = EDGE_CURVE ( 'NONE', #124, #237, #64, .T. ) ;
#53 = CARTESIAN_POINT ( 'NONE',  ( 14.00000000000000000, 19.00000000000000355, -8.000000000000000000 ) ) ;
#54 = ORIENTED_EDGE ( 'NONE', *, *, #134, .T. ) ;
#55 = CIRCLE ( 'NONE', #665, 11.00000000000000000 ) ;
#56 = AXIS2_PLACEMENT_3D ( 'NONE', #250, #203, #75 ) ;
#57 = SURFACE_SIDE_STYLE ('',( #233 ) ) ;
#58 = ORIENTED_EDGE ( 'NONE', *, *, #39, .T. ) ;
#59 = CARTESIAN_POINT ( 'NONE',  ( 14.00000000000000000, 19.00000000000000000, 0.000000000000000000 ) ) ;
#60 = CARTESIAN_POINT ( 'NONE',  ( 19.00000000000000000, 19.00000000000000000, 0.000000000000000000 ) ) ;
#61 = ORIENTED_EDGE ( 'NONE', *, *, #190, .T. ) ;
#62 = DIRECTION ( 'NONE',  ( 0.000000000000000000, 0.000000000000000000, 1.000000000000000000 ) ) ;
#63 = DIRECTION ( 'NONE',  ( 0.000000000000000000, 0.000000000000000000, -1.000000000000000000 ) ) ;
#64 = CIRCLE ( 'NONE', #716, 8.000000000000000000 ) ;
#65 = ORIENTED_EDGE ( 'NONE', *, *, #315, .T. ) ;
#66 = FACE_OUTER_BOUND ( 'NONE', #151, .T. ) ;
#67 = AXIS2_PLACEMENT_3D ( 'NONE', #208, #260, #204 ) ;
#68 = CARTESIAN_POINT ( 'NONE',  ( 28.99999999999999645, 19.00000000000000000, 11.00000000000000000 ) ) ;
#69 = ORIENTED_EDGE ( 'NONE', *, *, #73, .F. ) ;
#70 = EDGE_CURVE ( 'NONE', #317, #3, #29, .T. ) ;
#71 = FACE_OUTER_BOUND ( 'NONE', #241, .T. ) ;
#72 = DIRECTION ( 'NONE',  ( 1.000000000000000000, 0.000000000000000000, 0.000000000000000000 ) ) ;
#73 = EDGE_CURVE ( 'NONE', #366, #254, #180, .T. ) ;
#74 = EDGE_LOOP ( 'NONE', ( #170, #119, #728, #338, #197 ) ) ;
#75 = DIRECTION ( 'NONE',  ( 0.000000000000000000, 0.000000000000000000, 1.000000000000000000 ) ) ;
#76 = CARTESIAN_POINT ( 'NONE',  ( 1.347111479062088405E-15, 0.000000000000000000, -11.00000000000000000 ) ) ;
#77 = ORIENTED_EDGE ( 'NONE', *, *, #560, .T. ) ;
#78 = FACE_OUTER_BOUND ( 'NONE', #607, .T. ) ;
#79 = AXIS2_PLACEMENT_3D ( 'NONE', #489, #658, #351 ) ;
#80 = CARTESIAN_POINT ( 'NONE',  ( 33.00000000000000000, 19.00000000000000000, 11.00000000000000000 ) ) ;
#81 = VERTEX_POINT ( 'NONE', #324 ) ;
#82 = CARTESIAN_POINT ( 'NONE',  ( 0.000000000000000000, 5.000000000000000888, 0.000000000000000000 ) ) ;
#83 = CARTESIAN_POINT ( 'NONE',  ( 14.00000000000000000, 5.000000000000000000, 0.000000000000000000 ) ) ;
#84 = CYLINDRICAL_SURFACE ( 'NONE', #129, 8.000000000000000000 ) ;
#85 = EDGE_CURVE ( 'NONE', #767, #385, #221, .T. ) ;
#86 = ORIENTED_EDGE ( 'NONE', *, *, #252, .F. ) ;
#87 = DIRECTION ( 'NONE',  ( 0.000000000000000000, -0.000000000000000000, -1.000000000000000000 ) ) ;
#88 = CARTESIAN_POINT ( 'NONE',  ( 33.00000000000000000, 19.00000000000000355, 8.000000000000000000 ) ) ;
#89 = EDGE_LOOP ( 'NONE', ( #232, #418, #448, #258 ) ) ;
#90 = DIRECTION ( 'NONE',  ( -1.000000000000000000, 0.000000000000000000, 0.000000000000000000 ) ) ;
#91 = CIRCLE ( 'NONE', #550, 11.00000000000000000 ) ;
#92 = AXIS2_PLACEMENT_3D ( 'NONE', #387, #740, #397 ) ;
#93 = AXIS2_PLACEMENT_3D ( 'NONE', #319, #450, #138 ) ;
#94 = DIRECTION ( 'NONE',  ( 0.000000000000000000, -1.000000000000000000, 0.000000000000000000 ) ) ;
#95 = AXIS2_PLACEMENT_3D ( 'NONE', #467, #480, #715 ) ;
#96 = ORIENTED_EDGE ( 'NONE', *, *, #713, .T. ) ;
#97 = EDGE_CURVE ( 'NONE', #228, #772, #394, .T. ) ;
#98 = DIRECTION ( 'NONE',  ( -0.000000000000000000, 1.000000000000000000, -0.000000000000000000 ) ) ;
#99 = ADVANCED_FACE ( 'NONE', ( #631 ), #312, .T. ) ;
#100 = CARTESIAN_POINT ( 'NONE',  ( 14.00000000000000000, 19.00000000000000355, 0.000000000000000000 ) ) ;
#101 = ADVANCED_FACE ( 'NONE', ( #688 ), #679, .F. ) ;
#102 = ORIENTED_EDGE ( 'NONE', *, *, #263, .T. ) ;
#103 = CARTESIAN_POINT ( 'NONE',  ( 33.00000000000000000, 19.00000000000000000, -11.00000000000000000 ) ) ;
#104 = DIRECTION ( 'NONE',  ( 0.000000000000000000, -1.000000000000000000, 0.000000000000000000 ) ) ;
#105 = ORIENTED_EDGE ( 'NONE', *, *, #97, .T. ) ;
#106 = LINE ( 'NONE', #600, #539 ) ;
#107 = LINE ( 'NONE', #50, #474 ) ;
#108 = AXIS2_PLACEMENT_3D ( 'NONE', #353, #159, #412 ) ;
#109 = VERTEX_POINT ( 'NONE', #68 ) ;
#110 = DIRECTION ( 'NONE',  ( 0.000000000000000000, 0.000000000000000000, 1.000000000000000000 ) ) ;
#111 = FACE_OUTER_BOUND ( 'NONE', #653, .T. ) ;
#112 = ORIENTED_EDGE ( 'NONE', *, *, #641, .F. ) ;
#113 = EDGE_CURVE ( 'NONE', #254, #124, #345, .T. ) ;
#114 = DIRECTION ( 'NONE',  ( 0.000000000000000000, 0.000000000000000000, -1.000000000000000000 ) ) ;
#115 = DIRECTION ( 'NONE',  ( 0.000000000000000000, 0.000000000000000000, 1.000000000000000000 ) ) ;
#116 = EDGE_LOOP ( 'NONE', ( #193, #105 ) ) ;
#117 = DIRECTION ( 'NONE',  ( 0.000000000000000000, 0.000000000000000000, 1.000000000000000000 ) ) ;
#118 = FACE_OUTER_BOUND ( 'NONE', #158, .T. ) ;
#119 = ORIENTED_EDGE ( 'NONE', *, *, #343, .T. ) ;
#120 = VECTOR ( 'NONE', #478, 1000.000000000000000 ) ;
#121 = CIRCLE ( 'NONE', #640, 11.00000000000000000 ) ;
#122 = EDGE_CURVE ( 'NONE', #284, #9, #280, .T. ) ;
#123 = CARTESIAN_POINT ( 'NONE',  ( 19.00000000000000000, 19.00000000000000355, -11.00000000000000000 ) ) ;
#124 = VERTEX_POINT ( 'NONE', #337 ) ;
#125 = DIRECTION ( 'NONE',  ( 0.000000000000000000, 0.000000000000000000, -1.000000000000000000 ) ) ;
#126 = ORIENTED_EDGE ( 'NONE', *, *, #388, .T. ) ;
#127 = EDGE_CURVE ( 'NONE', #161, #3, #763, .T. ) ;
#128 = CARTESIAN_POINT ( 'NONE',  ( 33.00000000000000000, 19.00000000000000000, 0.000000000000000000 ) ) ;
#129 = AXIS2_PLACEMENT_3D ( 'NONE', #584, #398, #770 ) ;
#130 = ORIENTED_EDGE ( 'NONE', *, *, #122, .F. ) ;
#131 = CIRCLE ( 'NONE', #92, 25.00000000000000000 ) ;
#132 = AXIS2_PLACEMENT_3D ( 'NONE', #723, #162, #416 ) ;
#133 = CARTESIAN_POINT ( 'NONE',  ( 0.000000000000000000, 0.000000000000000000, 0.000000000000000000 ) ) ;
#134 = EDGE_CURVE ( 'NONE', #563, #81, #797, .T. ) ;
#135 = CARTESIAN_POINT ( 'NONE',  ( 14.00000000000000000, 19.00000000000000000, 0.000000000000000000 ) ) ;
#136 = CARTESIAN_POINT ( 'NONE',  ( 14.00000000000000000, 5.000000000000000000, 0.000000000000000000 ) ) ;
#137 = DIRECTION ( 'NONE',  ( -1.000000000000000000, -6.123233995736766036E-17, 0.000000000000000000 ) ) ;
#138 = DIRECTION ( 'NONE',  ( 0.000000000000000000, 0.000000000000000000, -1.000000000000000000 ) ) ;
#139 = DIRECTION ( 'NONE',  ( 0.000000000000000000, -1.000000000000000000, 0.000000000000000000 ) ) ;
#140 = ORIENTED_EDGE ( 'NONE', *, *, #614, .F. ) ;
#141 = CARTESIAN_POINT ( 'NONE',  ( 0.000000000000000000, 0.000000000000000000, 11.00000000000000000 ) ) ;
#142 = AXIS2_PLACEMENT_3D ( 'NONE', #269, #401, #521 ) ;
#143 = DIRECTION ( 'NONE',  ( -1.000000000000000000, 0.000000000000000000, 0.000000000000000000 ) ) ;
#144 = VERTEX_POINT ( 'NONE', #644 ) ;
#145 = DIRECTION ( 'NONE',  ( 0.000000000000000000, 0.000000000000000000, 1.000000000000000000 ) ) ;
#146 = FACE_OUTER_BOUND ( 'NONE', #306, .T. ) ;
#147 = VERTEX_POINT ( 'NONE', #157 ) ;
#148 = DIRECTION ( 'NONE',  ( 0.000000000000000000, 1.000000000000000000, 0.000000000000000000 ) ) ;
#149 = CARTESIAN_POINT ( 'NONE',  ( 14.00000000000000000, 19.00000000000000355, 0.000000000000000000 ) ) ;
#150 = EDGE_CURVE ( 'NONE', #690, #598, #487, .T. ) ;
#151 = EDGE_LOOP ( 'NONE', ( #48, #556, #722, #198 ) ) ;
#152 = CARTESIAN_POINT ( 'NONE',  ( 0.000000000000000000, 5.000000000000000888, 0.000000000000000000 ) ) ;
#153 = ADVANCED_FACE ( 'NONE', ( #468 ), #20, .F. ) ;
#154 = CIRCLE ( 'NONE', #298, 11.00000000000000000 ) ;
#155 = VECTOR ( 'NONE', #486, 1000.000000000000000 ) ;
#156 = ADVANCED_FACE ( 'NONE', ( #709 ), #84, .F. ) ;
#157 = CARTESIAN_POINT ( 'NONE',  ( 0.000000000000000000, -14.00000000000000000, 8.000000000000000000 ) ) ;
#158 = EDGE_LOOP ( 'NONE', ( #65, #567, #346, #579, #482, #485 ) ) ;
#159 = DIRECTION ( 'NONE',  ( -1.000000000000000000, -0.000000000000000000, -0.000000000000000000 ) ) ;
#160 = FACE_BOUND ( 'NONE', #116, .T. ) ;
#161 = VERTEX_POINT ( 'NONE', #334 ) ;
#162 = DIRECTION ( 'NONE',  ( 0.000000000000000000, 1.000000000000000000, 0.000000000000000000 ) ) ;
#163 = CARTESIAN_POINT ( 'NONE',  ( 19.00000000000000000, 19.00000000000000355, 0.000000000000000000 ) ) ;
#164 = ORIENTED_EDGE ( 'NONE', *, *, #614, .T. ) ;
#165 =( NAMED_UNIT ( * ) SI_UNIT ( $, .STERADIAN. ) SOLID_ANGLE_UNIT ( ) );
#166 = LINE ( 'NONE', #481, #247 ) ;
#167 = TOROIDAL_SURFACE ( 'NONE', #407, 14.00000000000000000, 11.00000000000000000 ) ;
#168 = EDGE_CURVE ( 'NONE', #411, #385, #531, .T. ) ;
#169 = AXIS2_PLACEMENT_3D ( 'NONE', #59, #730, #177 ) ;
#170 = ORIENTED_EDGE ( 'NONE', *, *, #230, .F. ) ;
#171 = CARTESIAN_POINT ( 'NONE',  ( 1.224646799147353256E-15, -10.00000000000000000, -10.00000000000000000 ) ) ;
#172 = PLANE ( 'NONE',  #446 ) ;
#173 = ORIENTED_EDGE ( 'NONE', *, *, #11, .F. ) ;
#174 = CARTESIAN_POINT ( 'NONE',  ( 28.99999999999999645, 19.00000000000000000, 10.00000000000000178 ) ) ;
#175 = DIRECTION ( 'NONE',  ( 0.000000000000000000, -1.000000000000000000, 0.000000000000000000 ) ) ;
#176 = VERTEX_POINT ( 'NONE', #471 ) ;
#177 = DIRECTION ( 'NONE',  ( 0.000000000000000000, -1.000000000000000000, 0.000000000000000000 ) ) ;
#178 = EDGE_CURVE ( 'NONE', #144, #719, #599, .T. ) ;
#179 = LINE ( 'NONE', #441, #552 ) ;
#180 = CIRCLE ( 'NONE', #473, 8.000000000000000000 ) ;
#181 = DIRECTION ( 'NONE',  ( 1.000000000000000000, 0.000000000000000000, 0.000000000000000000 ) ) ;
#182 = TOROIDAL_SURFACE ( 'NONE', #565, 14.00000000000000000, 11.00000000000000000 ) ;
#183 = AXIS2_PLACEMENT_3D ( 'NONE', #60, #320, #63 ) ;
#184 = CARTESIAN_POINT ( 'NONE',  ( 0.000000000000000000, 0.000000000000000000, 0.000000000000000000 ) ) ;
#185 = CARTESIAN_POINT ( 'NONE',  ( 0.000000000000000000, -10.00000000000000000, 0.000000000000000000 ) ) ;
#186 = ORIENTED_EDGE ( 'NONE', *, *, #748, .T. ) ;
#187 = CARTESIAN_POINT ( 'NONE',  ( 14.00000000000000000, 5.000000000000000000, 1.347111479062088405E-15 ) ) ;
#188 = DIRECTION ( 'NONE',  ( -0.000000000000000000, -1.000000000000000000, -0.000000000000000000 ) ) ;
#189 = DIRECTION ( 'NONE',  ( 1.000000000000000000, 0.000000000000000000, 0.000000000000000000 ) ) ;
#190 = EDGE_CURVE ( 'NONE', #436, #563, #339, .T. ) ;
#191 = CIRCLE ( 'NONE', #297, 8.000000000000000000 ) ;
#192 = AXIS2_PLACEMENT_3D ( 'NONE', #761, #457, #21 ) ;
#193 = ORIENTED_EDGE ( 'NONE', *, *, #329, .T. ) ;
#194 = AXIS2_PLACEMENT_3D ( 'NONE', #347, #660, #534 ) ;
#195 = CIRCLE ( 'NONE', #169, 8.000000000000000000 ) ;
#196 = CARTESIAN_POINT ( 'NONE',  ( 28.99999999999999645, 19.00000000000000000, 0.000000000000000000 ) ) ;
#197 = ORIENTED_EDGE ( 'NONE', *, *, #617, .F. ) ;
#198 = ORIENTED_EDGE ( 'NONE', *, *, #535, .T. ) ;
#199 =( NAMED_UNIT ( * ) SI_UNIT ( $, .STERADIAN. ) SOLID_ANGLE_UNIT ( ) );
#200 = DIRECTION ( 'NONE',  ( 0.000000000000000000, 0.000000000000000000, -1.000000000000000000 ) ) ;
#201 = DIRECTION ( 'NONE',  ( 0.000000000000000000, 0.000000000000000000, -1.000000000000000000 ) ) ;
#202 = ORIENTED_EDGE ( 'NONE', *, *, #799, .F. ) ;
#203 = DIRECTION ( 'NONE',  ( -0.000000000000000000, 1.000000000000000000, -0.000000000000000000 ) ) ;
#204 = DIRECTION ( 'NONE',  ( 0.000000000000000000, 0.000000000000000000, 1.000000000000000000 ) ) ;
#205 = FACE_OUTER_BOUND ( 'NONE', #267, .T. ) ;
#206 = ORIENTED_EDGE ( 'NONE', *, *, #11, .T. ) ;
#207 = AXIS2_PLACEMENT_3D ( 'NONE', #502, #749, #438 ) ;
#208 = CARTESIAN_POINT ( 'NONE',  ( 0.000000000000000000, -10.00000000000000000, 0.000000000000000000 ) ) ;
#209 = AXIS2_PLACEMENT_3D ( 'NONE', #288, #594, #38 ) ;
#210 = MECHANICAL_DESIGN_GEOMETRIC_PRESENTATION_REPRESENTATION (  '', ( #7 ), #576 ) ;
#211 = DIRECTION ( 'NONE',  ( 0.000000000000000000, 1.000000000000000000, 0.000000000000000000 ) ) ;
#212 = ORIENTED_EDGE ( 'NONE', *, *, #732, .F. ) ;
#213 = DIRECTION ( 'NONE',  ( 0.000000000000000000, -1.000000000000000000, 0.000000000000000000 ) ) ;
#214 = DIRECTION ( 'NONE',  ( -0.000000000000000000, -0.000000000000000000, -1.000000000000000000 ) ) ;
#215 = ORIENTED_EDGE ( 'NONE', *, *, #476, .T. ) ;
#216 = CARTESIAN_POINT ( 'NONE',  ( 0.000000000000000000, -10.00000000000000000, 10.00000000000000000 ) ) ;
#217 = EDGE_CURVE ( 'NONE', #686, #109, #639, .T. ) ;
#218 = DIRECTION ( 'NONE',  ( -1.000000000000000000, 0.000000000000000000, 0.000000000000000000 ) ) ;
#219 = ORIENTED_EDGE ( 'NONE', *, *, #535, .F. ) ;
#220 = CARTESIAN_POINT ( 'NONE',  ( 1.347111479062088405E-15, 5.000000000000000888, -11.00000000000000000 ) ) ;
#221 = CIRCLE ( 'NONE', #459, 11.00000000000000000 ) ;
#222 = CIRCLE ( 'NONE', #652, 10.00000000000000000 ) ;
#223 = CIRCLE ( 'NONE', #755, 8.000000000000000000 ) ;
#224 = CARTESIAN_POINT ( 'NONE',  ( 0.000000000000000000, 5.000000000000000888, 0.000000000000000000 ) ) ;
#225 = ORIENTED_EDGE ( 'NONE', *, *, #451, .T. ) ;
#226 = DIRECTION ( 'NONE',  ( 0.000000000000000000, 0.000000000000000000, 1.000000000000000000 ) ) ;
#227 = CARTESIAN_POINT ( 'NONE',  ( 0.000000000000000000, 0.000000000000000000, 0.000000000000000000 ) ) ;
#228 = VERTEX_POINT ( 'NONE', #331 ) ;
#229 = FACE_OUTER_BOUND ( 'NONE', #512, .T. ) ;
#230 = EDGE_CURVE ( 'NONE', #81, #406, #91, .T. ) ;
#231 = DIRECTION ( 'NONE',  ( 0.000000000000000000, 0.000000000000000000, 1.000000000000000000 ) ) ;
#232 = ORIENTED_EDGE ( 'NONE', *, *, #673, .F. ) ;
#233 = SURFACE_STYLE_FILL_AREA ( #612 ) ;
#234 = CARTESIAN_POINT ( 'NONE',  ( 19.00000000000000000, 19.00000000000000355, 11.00000000000000000 ) ) ;
#235 = AXIS2_PLACEMENT_3D ( 'NONE', #520, #255, #383 ) ;
#236 = CIRCLE ( 'NONE', #381, 11.00000000000000000 ) ;
#237 = VERTEX_POINT ( 'NONE', #88 ) ;
#238 = DIRECTION ( 'NONE',  ( -0.000000000000000000, -0.000000000000000000, -1.000000000000000000 ) ) ;
#239 = EDGE_CURVE ( 'NONE', #632, #36, #191, .T. ) ;
#240 = DIRECTION ( 'NONE',  ( -0.000000000000000000, -0.000000000000000000, -1.000000000000000000 ) ) ;
#241 = EDGE_LOOP ( 'NONE', ( #683, #710 ) ) ;
#242 = ADVANCED_FACE ( 'NONE', ( #205 ), #705, .T. ) ;
#243 = ADVANCED_FACE ( 'NONE', ( #146 ), #182, .T. ) ;
#244 = CARTESIAN_POINT ( 'NONE',  ( 0.000000000000000000, 0.000000000000000000, 10.00000000000000000 ) ) ;
#245 = CARTESIAN_POINT ( 'NONE',  ( 9.797174393178825657E-16, 5.000000000000000888, -8.000000000000000000 ) ) ;
#246 = DIRECTION ( 'NONE',  ( 0.000000000000000000, -1.000000000000000000, 0.000000000000000000 ) ) ;
#247 = VECTOR ( 'NONE', #794, 1000.000000000000000 ) ;
#248 = CIRCLE ( 'NONE', #731, 11.00000000000000000 ) ;
#249 = ORIENTED_EDGE ( 'NONE', *, *, #509, .T. ) ;
#250 = CARTESIAN_POINT ( 'NONE',  ( 0.000000000000000000, -10.00000000000000000, 0.000000000000000000 ) ) ;
#251 = CARTESIAN_POINT ( 'NONE',  ( 1.224646799147353256E-15, -10.00000000000000000, -10.00000000000000000 ) ) ;
#252 = EDGE_CURVE ( 'NONE', #659, #436, #154, .T. ) ;
#253 = DIRECTION ( 'NONE',  ( 0.000000000000000000, 0.000000000000000000, -1.000000000000000000 ) ) ;
#254 = VERTEX_POINT ( 'NONE', #53 ) ;
#255 = DIRECTION ( 'NONE',  ( 0.000000000000000000, -1.000000000000000000, 0.000000000000000000 ) ) ;
#256 = DIRECTION ( 'NONE',  ( 0.000000000000000000, 0.000000000000000000, 1.000000000000000000 ) ) ;
#257 = CIRCLE ( 'NONE', #638, 11.00000000000000000 ) ;
#258 = ORIENTED_EDGE ( 'NONE', *, *, #217, .F. ) ;
#259 = COLOUR_RGB ( '',0.7921568627450980005, 0.8196078431372548767, 0.9333333333333333481 ) ;
#260 = DIRECTION ( 'NONE',  ( -0.000000000000000000, 1.000000000000000000, -0.000000000000000000 ) ) ;
#261 = DIRECTION ( 'NONE',  ( 0.000000000000000000, 0.000000000000000000, -1.000000000000000000 ) ) ;
#262 = ORIENTED_EDGE ( 'NONE', *, *, #252, .T. ) ;
#263 = EDGE_CURVE ( 'NONE', #284, #147, #769, .T. ) ;
#264 = CARTESIAN_POINT ( 'NONE',  ( 0.000000000000000000, -14.00000000000000000, 11.00000000000000000 ) ) ;
#265 = UNCERTAINTY_MEASURE_WITH_UNIT (LENGTH_MEASURE( 1.000000000000000082E-05 ), #557, 'distance_accuracy_value', 'NONE');
#266 = DIRECTION ( 'NONE',  ( -1.000000000000000000, 0.000000000000000000, 0.000000000000000000 ) ) ;
#267 = EDGE_LOOP ( 'NONE', ( #758, #45, #687, #647 ) ) ;
#268 = CARTESIAN_POINT ( 'NONE',  ( 11.00000000000000000, 5.000000000000000888, 1.347111479062088405E-15 ) ) ;
#269 = CARTESIAN_POINT ( 'NONE',  ( 0.000000000000000000, -14.00000000000000000, 0.000000000000000000 ) ) ;
#270 = ORIENTED_EDGE ( 'NONE', *, *, #641, .T. ) ;
#271 = AXIS2_PLACEMENT_3D ( 'NONE', #149, #458, #261 ) ;
#272 = ADVANCED_FACE ( 'NONE', ( #802 ), #294, .T. ) ;
#273 = CARTESIAN_POINT ( 'NONE',  ( 14.00000000000000000, 8.000000000000003553, 1.347111479062088207E-15 ) ) ;
#274 = VECTOR ( 'NONE', #577, 1000.000000000000000 ) ;
#275 = VECTOR ( 'NONE', #148, 1000.000000000000000 ) ;
#276 = UNCERTAINTY_MEASURE_WITH_UNIT (LENGTH_MEASURE( 1.000000000000000082E-05 ), #750, 'distance_accuracy_value', 'NONE');
#277 = CARTESIAN_POINT ( 'NONE',  ( 0.000000000000000000, 5.000000000000000888, 0.000000000000000000 ) ) ;
#278 = ORIENTED_EDGE ( 'NONE', *, *, #604, .F. ) ;
#279 = DIRECTION ( 'NONE',  ( 0.000000000000000000, 0.000000000000000000, 1.000000000000000000 ) ) ;
#280 = LINE ( 'NONE', #655, #326 ) ;
#281 = ORIENTED_EDGE ( 'NONE', *, *, #560, .F. ) ;
#282 = CYLINDRICAL_SURFACE ( 'NONE', #32, 11.00000000000000000 ) ;
#283 = FACE_BOUND ( 'NONE', #559, .T. ) ;
#284 = VERTEX_POINT ( 'NONE', #676 ) ;
#285 = PLANE ( 'NONE',  #356 ) ;
#286 = AXIS2_PLACEMENT_3D ( 'NONE', #778, #139, #575 ) ;
#287 = CIRCLE ( 'NONE', #744, 11.00000000000000000 ) ;
#288 = CARTESIAN_POINT ( 'NONE',  ( 28.99999999999999645, 19.00000000000000000, 0.000000000000000000 ) ) ;
#289 = ORIENTED_EDGE ( 'NONE', *, *, #532, .F. ) ;
#290 = DIRECTION ( 'NONE',  ( 0.000000000000000000, -1.000000000000000000, 0.000000000000000000 ) ) ;
#291 = DIRECTION ( 'NONE',  ( 0.000000000000000000, -1.000000000000000000, 0.000000000000000000 ) ) ;
#292 = VERTEX_POINT ( 'NONE', #543 ) ;
#293 = CARTESIAN_POINT ( 'NONE',  ( 28.99999999999999645, 19.00000000000000000, 0.000000000000000000 ) ) ;
#294 = CYLINDRICAL_SURFACE ( 'NONE', #342, 11.00000000000000000 ) ;
#295 = ORIENTED_EDGE ( 'NONE', *, *, #73, .T. ) ;
#296 =( NAMED_UNIT ( * ) PLANE_ANGLE_UNIT ( ) SI_UNIT ( $, .RADIAN. ) );
#297 = AXIS2_PLACEMENT_3D ( 'NONE', #277, #766, #465 ) ;
#298 = AXIS2_PLACEMENT_3D ( 'NONE', #527, #94, #231 ) ;
#299 = DIRECTION ( 'NONE',  ( -0.000000000000000000, -1.000000000000000000, -0.000000000000000000 ) ) ;
#300 = AXIS2_PLACEMENT_3D ( 'NONE', #492, #238, #739 ) ;
#301 = EDGE_CURVE ( 'NONE', #725, #366, #18, .T. ) ;
#302 = EDGE_LOOP ( 'NONE', ( #695, #415, #332, #549, #678 ) ) ;
#303 = EDGE_CURVE ( 'NONE', #176, #528, #420, .T. ) ;
#304 = DIRECTION ( 'NONE',  ( 1.000000000000000000, 0.000000000000000000, 0.000000000000000000 ) ) ;
#305 = DIRECTION ( 'NONE',  ( -1.000000000000000000, 0.000000000000000000, 0.000000000000000000 ) ) ;
#306 = EDGE_LOOP ( 'NONE', ( #202, #537, #622, #270, #335, #86 ) ) ;
#307 = CYLINDRICAL_SURFACE ( 'NONE', #409, 10.00000000000000178 ) ;
#308 = DIRECTION ( 'NONE',  ( -1.000000000000000000, -6.123233995736766036E-17, 0.000000000000000000 ) ) ;
#309 = EDGE_LOOP ( 'NONE', ( #568, #426, #627, #669 ) ) ;
#310 = FACE_OUTER_BOUND ( 'NONE', #479, .T. ) ;
#311 = VECTOR ( 'NONE', #455, 1000.000000000000000 ) ;
#312 = CYLINDRICAL_SURFACE ( 'NONE', #207, 11.00000000000000000 ) ;
#313 = AXIS2_PLACEMENT_3D ( 'NONE', #643, #699, #616 ) ;
#314 = CYLINDRICAL_SURFACE ( 'NONE', #56, 10.00000000000000000 ) ;
#315 = EDGE_CURVE ( 'NONE', #36, #725, #499, .T. ) ;
#316 = VERTEX_POINT ( 'NONE', #348 ) ;
#317 = VERTEX_POINT ( 'NONE', #234 ) ;
#318 = CARTESIAN_POINT ( 'NONE',  ( 0.000000000000000000, 0.000000000000000000, 0.000000000000000000 ) ) ;
#319 = CARTESIAN_POINT ( 'NONE',  ( 0.000000000000000000, -14.00000000000000000, 0.000000000000000000 ) ) ;
#320 = DIRECTION ( 'NONE',  ( 1.000000000000000000, 0.000000000000000000, 0.000000000000000000 ) ) ;
#321 = EDGE_LOOP ( 'NONE', ( #507, #524, #624, #361 ) ) ;
#322 = DIRECTION ( 'NONE',  ( 0.000000000000000000, 0.000000000000000000, 1.000000000000000000 ) ) ;
#323 = FACE_OUTER_BOUND ( 'NONE', #321, .T. ) ;
#324 = CARTESIAN_POINT ( 'NONE',  ( 14.00000000000000000, 19.00000000000000355, 11.00000000000000000 ) ) ;
#325 = ADVANCED_FACE ( 'NONE', ( #111, #283 ), #363, .T. ) ;
#326 = VECTOR ( 'NONE', #211, 1000.000000000000000 ) ;
#327 = AXIS2_PLACEMENT_3D ( 'NONE', #152, #213, #279 ) ;
#328 = PRODUCT_DEFINITION_FORMATION_WITH_SPECIFIED_SOURCE ( 'ANY', '', #666, .NOT_KNOWN. ) ;
#329 = EDGE_CURVE ( 'NONE', #772, #228, #613, .T. ) ;
#330 = DIRECTION ( 'NONE',  ( 0.000000000000000000, 1.000000000000000000, 0.000000000000000000 ) ) ;
#331 = CARTESIAN_POINT ( 'NONE',  ( 28.99999999999999645, 19.00000000000000000, -10.00000000000000178 ) ) ;
#332 = ORIENTED_EDGE ( 'NONE', *, *, #604, .T. ) ;
#333 = CYLINDRICAL_SURFACE ( 'NONE', #67, 10.00000000000000000 ) ;
#334 = CARTESIAN_POINT ( 'NONE',  ( 14.00000000000000000, 19.00000000000000355, -11.00000000000000000 ) ) ;
#335 = ORIENTED_EDGE ( 'NONE', *, *, #190, .F. ) ;
#336 = DIRECTION ( 'NONE',  ( 0.000000000000000000, 1.000000000000000000, 0.000000000000000000 ) ) ;
#337 = CARTESIAN_POINT ( 'NONE',  ( 33.00000000000000000, 19.00000000000000000, -8.000000000000000000 ) ) ;
#338 = ORIENTED_EDGE ( 'NONE', *, *, #127, .F. ) ;
#339 = CIRCLE ( 'NONE', #795, 3.000000000000000888 ) ;
#340 = AXIS2_PLACEMENT_3D ( 'NONE', #501, #181, #435 ) ;
#341 = DIRECTION ( 'NONE',  ( 0.000000000000000000, 0.000000000000000000, 1.000000000000000000 ) ) ;
#342 = AXIS2_PLACEMENT_3D ( 'NONE', #484, #357, #540 ) ;
#343 = EDGE_CURVE ( 'NONE', #81, #317, #360, .T. ) ;
#344 = CIRCLE ( 'NONE', #300, 6.000000000000000000 ) ;
#345 = LINE ( 'NONE', #712, #311 ) ;
#346 = ORIENTED_EDGE ( 'NONE', *, *, #619, .F. ) ;
#347 = CARTESIAN_POINT ( 'NONE',  ( 33.00000000000000000, 19.00000000000000000, 0.000000000000000000 ) ) ;
#348 = CARTESIAN_POINT ( 'NONE',  ( 1.347111479062088405E-15, -14.00000000000000000, -11.00000000000000000 ) ) ;
#349 = ORIENTED_EDGE ( 'NONE', *, *, #113, .T. ) ;
#350 = CARTESIAN_POINT ( 'NONE',  ( 0.000000000000000000, -10.00000000000000000, 0.000000000000000000 ) ) ;
#351 = DIRECTION ( 'NONE',  ( 0.000000000000000000, 0.000000000000000000, -1.000000000000000000 ) ) ;
#352 = ORIENTED_EDGE ( 'NONE', *, *, #52, .F. ) ;
#353 = CARTESIAN_POINT ( 'NONE',  ( 33.00000000000000000, 19.00000000000000000, 0.000000000000000000 ) ) ;
#354 = AXIS2_PLACEMENT_3D ( 'NONE', #128, #72, #433 ) ;
#355 = CIRCLE ( 'NONE', #704, 10.00000000000000000 ) ;
#356 = AXIS2_PLACEMENT_3D ( 'NONE', #350, #290, #87 ) ;
#357 = DIRECTION ( 'NONE',  ( -1.000000000000000000, -0.000000000000000000, -0.000000000000000000 ) ) ;
#358 = ORIENTED_EDGE ( 'NONE', *, *, #760, .T. ) ;
#359 = FACE_BOUND ( 'NONE', #378, .T. ) ;
#360 = LINE ( 'NONE', #422, #120 ) ;
#361 = ORIENTED_EDGE ( 'NONE', *, *, #168, .F. ) ;
#362 = EDGE_CURVE ( 'NONE', #147, #36, #107, .T. ) ;
#363 = PLANE ( 'NONE',  #782 ) ;
#364 = EDGE_CURVE ( 'NONE', #9, #632, #754, .T. ) ;
#365 = ADVANCED_BREP_SHAPE_REPRESENTATION ( 'Exercise 17', ( #759, #682 ), #396 ) ;
#366 = VERTEX_POINT ( 'NONE', #671 ) ;
#367 = FACE_OUTER_BOUND ( 'NONE', #513, .T. ) ;
#368 = CIRCLE ( 'NONE', #327, 11.00000000000000000 ) ;
#369 = DIRECTION ( 'NONE',  ( -0.000000000000000000, -0.000000000000000000, -1.000000000000000000 ) ) ;
#370 = AXIS2_PLACEMENT_3D ( 'NONE', #427, #667, #110 ) ;
#371 = ORIENTED_EDGE ( 'NONE', *, *, #786, .F. ) ;
#372 = DIRECTION ( 'NONE',  ( -1.000000000000000000, -0.000000000000000000, -0.000000000000000000 ) ) ;
#373 = DIRECTION ( 'NONE',  ( 0.000000000000000000, -1.000000000000000000, 0.000000000000000000 ) ) ;
#374 = ORIENTED_EDGE ( 'NONE', *, *, #329, .F. ) ;
#375 = SURFACE_STYLE_USAGE ( .BOTH. , #57 ) ;
#376 = DIRECTION ( 'NONE',  ( 0.000000000000000000, -1.000000000000000000, 0.000000000000000000 ) ) ;
#377 = ADVANCED_FACE ( 'NONE', ( #160, #787 ), #414, .F. ) ;
#378 = EDGE_LOOP ( 'NONE', ( #219, #33 ) ) ;
#379 = AXIS2_PLACEMENT_3D ( 'NONE', #100, #266, #35 ) ;
#380 = CIRCLE ( 'NONE', #523, 11.00000000000000000 ) ;
#381 = AXIS2_PLACEMENT_3D ( 'NONE', #596, #90, #145 ) ;
#382 = EDGE_LOOP ( 'NONE', ( #776, #466, #206, #289 ) ) ;
#383 = DIRECTION ( 'NONE',  ( 0.000000000000000000, 0.000000000000000000, -1.000000000000000000 ) ) ;
#384 = DIRECTION ( 'NONE',  ( 0.000000000000000000, 0.000000000000000000, -1.000000000000000000 ) ) ;
#385 = VERTEX_POINT ( 'NONE', #417 ) ;
#386 = EDGE_CURVE ( 'NONE', #403, #519, #55, .T. ) ;
#387 = CARTESIAN_POINT ( 'NONE',  ( 14.00000000000000000, 5.000000000000000000, 0.000000000000000000 ) ) ;
#388 = EDGE_CURVE ( 'NONE', #14, #237, #166, .T. ) ;
#389 = VERTEX_POINT ( 'NONE', #790 ) ;
#390 = ADVANCED_FACE ( 'NONE', ( #733, #724 ), #172, .F. ) ;
#391 = DIRECTION ( 'NONE',  ( 1.000000000000000000, 0.000000000000000000, 0.000000000000000000 ) ) ;
#392 = DIRECTION ( 'NONE',  ( -0.000000000000000000, -0.000000000000000000, -1.000000000000000000 ) ) ;
#393 = DIRECTION ( 'NONE',  ( -1.000000000000000000, 0.000000000000000000, 0.000000000000000000 ) ) ;
#394 = CIRCLE ( 'NONE', #340, 10.00000000000000178 ) ;
#395 = ORIENTED_EDGE ( 'NONE', *, *, #315, .F. ) ;
#396 =( GEOMETRIC_REPRESENTATION_CONTEXT ( 3 ) GLOBAL_UNCERTAINTY_ASSIGNED_CONTEXT ( ( #276 ) ) GLOBAL_UNIT_ASSIGNED_CONTEXT ( ( #750, #635, #199 ) ) REPRESENTATION_CONTEXT ( 'NONE', 'WORKASPACE' ) );
#397 = DIRECTION ( 'NONE',  ( -1.000000000000000000, 0.000000000000000000, 0.000000000000000000 ) ) ;
#398 = DIRECTION ( 'NONE',  ( 0.000000000000000000, 1.000000000000000000, 0.000000000000000000 ) ) ;
#399 = ORIENTED_EDGE ( 'NONE', *, *, #364, .T. ) ;
#400 = DIRECTION ( 'NONE',  ( 0.000000000000000000, 0.000000000000000000, -1.000000000000000000 ) ) ;
#401 = DIRECTION ( 'NONE',  ( -0.000000000000000000, 1.000000000000000000, -0.000000000000000000 ) ) ;
#402 = EDGE_CURVE ( 'NONE', #719, #144, #355, .T. ) ;
#403 = VERTEX_POINT ( 'NONE', #76 ) ;
#404 = FACE_OUTER_BOUND ( 'NONE', #566, .T. ) ;
#405 = DIRECTION ( 'NONE',  ( -1.000000000000000000, 0.000000000000000000, 0.000000000000000000 ) ) ;
#406 = VERTEX_POINT ( 'NONE', #697 ) ;
#407 = AXIS2_PLACEMENT_3D ( 'NONE', #83, #369, #514 ) ;
#408 = CARTESIAN_POINT ( 'NONE',  ( 14.00000000000000000, 19.00000000000000355, 0.000000000000000000 ) ) ;
#409 = AXIS2_PLACEMENT_3D ( 'NONE', #680, #434, #62 ) ;
#410 = DIRECTION ( 'NONE',  ( -0.000000000000000000, -0.000000000000000000, -1.000000000000000000 ) ) ;
#411 = VERTEX_POINT ( 'NONE', #264 ) ;
#412 = DIRECTION ( 'NONE',  ( 0.000000000000000000, 0.000000000000000000, 1.000000000000000000 ) ) ;
#413 = EDGE_CURVE ( 'NONE', #147, #284, #511, .T. ) ;
#414 = PLANE ( 'NONE',  #79 ) ;
#415 = ORIENTED_EDGE ( 'NONE', *, *, #421, .F. ) ;
#416 = DIRECTION ( 'NONE',  ( 0.000000000000000000, 0.000000000000000000, 1.000000000000000000 ) ) ;
#417 = CARTESIAN_POINT ( 'NONE',  ( 0.000000000000000000, -10.00000000000000000, 11.00000000000000000 ) ) ;
#418 = ORIENTED_EDGE ( 'NONE', *, *, #677, .T. ) ;
#419 = CYLINDRICAL_SURFACE ( 'NONE', #370, 10.00000000000000178 ) ;
#420 = CIRCLE ( 'NONE', #432, 10.00000000000000000 ) ;
#421 = EDGE_CURVE ( 'NONE', #519, #403, #443, .T. ) ;
#422 = CARTESIAN_POINT ( 'NONE',  ( 14.00000000000000000, 19.00000000000000355, 11.00000000000000000 ) ) ;
#423 = ORIENTED_EDGE ( 'NONE', *, *, #362, .F. ) ;
#424 = CARTESIAN_POINT ( 'NONE',  ( -8.000000000000000000, 5.000000000000000888, 0.000000000000000000 ) ) ;
#425 = DIRECTION ( 'NONE',  ( -1.000000000000000000, 0.000000000000000000, 0.000000000000000000 ) ) ;
#426 = ORIENTED_EDGE ( 'NONE', *, *, #15, .T. ) ;
#427 = CARTESIAN_POINT ( 'NONE',  ( 28.99999999999999645, 19.00000000000000000, 0.000000000000000000 ) ) ;
#428 = DIRECTION ( 'NONE',  ( 0.000000000000000000, 0.000000000000000000, -1.000000000000000000 ) ) ;
#429 = ORIENTED_EDGE ( 'NONE', *, *, #113, .F. ) ;
#430 = ADVANCED_FACE ( 'NONE', ( #630 ), #333, .T. ) ;
#431 = CARTESIAN_POINT ( 'NONE',  ( 33.00000000000000000, 19.00000000000000000, 11.00000000000000000 ) ) ;
#432 = AXIS2_PLACEMENT_3D ( 'NONE', #227, #737, #428 ) ;
#433 = DIRECTION ( 'NONE',  ( 0.000000000000000000, 0.000000000000000000, -1.000000000000000000 ) ) ;
#434 = DIRECTION ( 'NONE',  ( -1.000000000000000000, -0.000000000000000000, -0.000000000000000000 ) ) ;
#435 = DIRECTION ( 'NONE',  ( 0.000000000000000000, 0.000000000000000000, -1.000000000000000000 ) ) ;
#436 = VERTEX_POINT ( 'NONE', #268 ) ;
#437 = APPLICATION_PROTOCOL_DEFINITION ( 'draft international standard', 'automotive_design', 1998, #691 ) ;
#438 = DIRECTION ( 'NONE',  ( 0.000000000000000000, 0.000000000000000000, -1.000000000000000000 ) ) ;
#439 = ORIENTED_EDGE ( 'NONE', *, *, #756, .F. ) ;
#440 = SHAPE_DEFINITION_REPRESENTATION ( #544, #365 ) ;
#441 = CARTESIAN_POINT ( 'NONE',  ( 28.99999999999999645, 19.00000000000000000, 10.00000000000000178 ) ) ;
#442 = VECTOR ( 'NONE', #25, 1000.000000000000000 ) ;
#443 = CIRCLE ( 'NONE', #313, 11.00000000000000000 ) ;
#444 = EDGE_CURVE ( 'NONE', #316, #767, #636, .T. ) ;
#445 = DIRECTION ( 'NONE',  ( -1.000000000000000000, 0.000000000000000000, 0.000000000000000000 ) ) ;
#446 = AXIS2_PLACEMENT_3D ( 'NONE', #163, #661, #602 ) ;
#447 = AXIS2_PLACEMENT_3D ( 'NONE', #470, #720, #711 ) ;
#448 = ORIENTED_EDGE ( 'NONE', *, *, #756, .T. ) ;
#449 = DIRECTION ( 'NONE',  ( 0.000000000000000000, 0.000000000000000000, 1.000000000000000000 ) ) ;
#450 = DIRECTION ( 'NONE',  ( 0.000000000000000000, -1.000000000000000000, 0.000000000000000000 ) ) ;
#451 = EDGE_CURVE ( 'NONE', #109, #292, #380, .T. ) ;
#452 = CARTESIAN_POINT ( 'NONE',  ( 14.00000000000000000, 19.00000000000000000, 0.000000000000000000 ) ) ;
#453 = EDGE_LOOP ( 'NONE', ( #784, #618, #399, #796, #5, #69 ) ) ;
#454 = DIRECTION ( 'NONE',  ( 0.000000000000000000, 0.000000000000000000, -1.000000000000000000 ) ) ;
#455 = DIRECTION ( 'NONE',  ( 1.000000000000000000, 0.000000000000000000, 0.000000000000000000 ) ) ;
#456 = ORIENTED_EDGE ( 'NONE', *, *, #127, .T. ) ;
#457 = DIRECTION ( 'NONE',  ( -0.000000000000000000, 1.000000000000000000, -0.000000000000000000 ) ) ;
#458 = DIRECTION ( 'NONE',  ( 1.000000000000000000, 0.000000000000000000, 0.000000000000000000 ) ) ;
#459 = AXIS2_PLACEMENT_3D ( 'NONE', #185, #496, #741 ) ;
#460 = AXIS2_PLACEMENT_3D ( 'NONE', #536, #240, #425 ) ;
#461 = ORIENTED_EDGE ( 'NONE', *, *, #532, .T. ) ;
#462 = CIRCLE ( 'NONE', #447, 8.000000000000000000 ) ;
#463 = DIRECTION ( 'NONE',  ( 1.000000000000000000, 0.000000000000000000, 0.000000000000000000 ) ) ;
#464 = ADVANCED_FACE ( 'NONE', ( #78 ), #167, .T. ) ;
#465 = DIRECTION ( 'NONE',  ( 0.000000000000000000, 0.000000000000000000, 1.000000000000000000 ) ) ;
#466 = ORIENTED_EDGE ( 'NONE', *, *, #689, .T. ) ;
#467 = CARTESIAN_POINT ( 'NONE',  ( 19.00000000000000000, 19.00000000000000000, 0.000000000000000000 ) ) ;
#468 = FACE_OUTER_BOUND ( 'NONE', #663, .T. ) ;
#469 = EDGE_LOOP ( 'NONE', ( #645, #541 ) ) ;
#470 = CARTESIAN_POINT ( 'NONE',  ( 14.00000000000000000, 19.00000000000000000, 0.000000000000000000 ) ) ;
#471 = CARTESIAN_POINT ( 'NONE',  ( 1.224646799147353256E-15, 0.000000000000000000, -10.00000000000000000 ) ) ;
#472 = ORIENTED_EDGE ( 'NONE', *, *, #70, .F. ) ;
#473 = AXIS2_PLACEMENT_3D ( 'NONE', #135, #308, #246 ) ;
#474 = VECTOR ( 'NONE', #606, 1000.000000000000000 ) ;
#475 = CYLINDRICAL_SURFACE ( 'NONE', #681, 8.000000000000000000 ) ;
#476 = EDGE_CURVE ( 'NONE', #3, #317, #257, .T. ) ;
#477 = ADVANCED_FACE ( 'NONE', ( #118 ), #586, .F. ) ;
#478 = DIRECTION ( 'NONE',  ( 1.000000000000000000, 0.000000000000000000, 0.000000000000000000 ) ) ;
#479 = EDGE_LOOP ( 'NONE', ( #603, #374, #461, #164 ) ) ;
#480 = DIRECTION ( 'NONE',  ( 1.000000000000000000, 0.000000000000000000, 0.000000000000000000 ) ) ;
#481 = CARTESIAN_POINT ( 'NONE',  ( 14.00000000000000000, 19.00000000000000355, 8.000000000000000000 ) ) ;
#482 = ORIENTED_EDGE ( 'NONE', *, *, #762, .F. ) ;
#483 = CARTESIAN_POINT ( 'NONE',  ( 1.347111479062088405E-15, -10.00000000000000000, -11.00000000000000000 ) ) ;
#484 = CARTESIAN_POINT ( 'NONE',  ( 33.00000000000000000, 19.00000000000000000, 0.000000000000000000 ) ) ;
#485 = ORIENTED_EDGE ( 'NONE', *, *, #239, .T. ) ;
#486 = DIRECTION ( 'NONE',  ( -1.000000000000000000, -0.000000000000000000, -0.000000000000000000 ) ) ;
#487 = CIRCLE ( 'NONE', #286, 11.00000000000000000 ) ;
#488 = AXIS2_PLACEMENT_3D ( 'NONE', #569, #765, #200 ) ;
#489 = CARTESIAN_POINT ( 'NONE',  ( 28.99999999999999645, 19.00000000000000000, 0.000000000000000000 ) ) ;
#490 = ADVANCED_FACE ( 'NONE', ( #753 ), #24, .T. ) ;
#491 = EDGE_LOOP ( 'NONE', ( #803, #439 ) ) ;
#492 = CARTESIAN_POINT ( 'NONE',  ( 14.00000000000000000, 5.000000000000000000, 9.797174393178825657E-16 ) ) ;
#493 = DIRECTION ( 'NONE',  ( 0.000000000000000000, -0.000000000000000000, -1.000000000000000000 ) ) ;
#494 = ORIENTED_EDGE ( 'NONE', *, *, #150, .F. ) ;
#495 = CARTESIAN_POINT ( 'NONE',  ( 1.347111479062088405E-15, -14.00000000000000000, -11.00000000000000000 ) ) ;
#496 = DIRECTION ( 'NONE',  ( 0.000000000000000000, -1.000000000000000000, 0.000000000000000000 ) ) ;
#497 = DIRECTION ( 'NONE',  ( 0.000000000000000000, 0.000000000000000000, -1.000000000000000000 ) ) ;
#498 = ADVANCED_FACE ( 'NONE', ( #323 ), #558, .T. ) ;
#499 = CIRCLE ( 'NONE', #798, 8.000000000000000000 ) ;
#500 = AXIS2_PLACEMENT_3D ( 'NONE', #777, #336, #341 ) ;
#501 = CARTESIAN_POINT ( 'NONE',  ( 28.99999999999999645, 19.00000000000000000, 0.000000000000000000 ) ) ;
#502 = CARTESIAN_POINT ( 'NONE',  ( 14.00000000000000000, 19.00000000000000355, 0.000000000000000000 ) ) ;
#503 = ORIENTED_EDGE ( 'NONE', *, *, #52, .T. ) ;
#504 = APPLICATION_PROTOCOL_DEFINITION ( 'draft international standard', 'automotive_design', 1998, #648 ) ;
#505 = ADVANCED_FACE ( 'NONE', ( #71, #517 ), #1, .T. ) ;
#506 = CARTESIAN_POINT ( 'NONE',  ( 0.000000000000000000, 5.000000000000000888, 8.000000000000000000 ) ) ;
#507 = ORIENTED_EDGE ( 'NONE', *, *, #748, .F. ) ;
#508 = DIRECTION ( 'NONE',  ( 0.000000000000000000, -1.000000000000000000, 0.000000000000000000 ) ) ;
#509 = EDGE_CURVE ( 'NONE', #411, #316, #574, .T. ) ;
#510 = DIRECTION ( 'NONE',  ( 0.000000000000000000, 0.000000000000000000, 1.000000000000000000 ) ) ;
#511 = CIRCLE ( 'NONE', #235, 8.000000000000000000 ) ;
#512 = EDGE_LOOP ( 'NONE', ( #10, #764 ) ) ;
#513 = EDGE_LOOP ( 'NONE', ( #738, #621 ) ) ;
#514 = DIRECTION ( 'NONE',  ( -1.000000000000000000, 0.000000000000000000, 0.000000000000000000 ) ) ;
#515 = PRODUCT_DEFINITION_CONTEXT ( 'detailed design', #691, 'design' ) ;
#516 = CARTESIAN_POINT ( 'NONE',  ( 0.000000000000000000, -14.00000000000000000, 11.00000000000000000 ) ) ;
#517 = FACE_BOUND ( 'NONE', #707, .T. ) ;
#518 = CARTESIAN_POINT ( 'NONE',  ( 14.00000000000000000, 5.000000000000000000, 0.000000000000000000 ) ) ;
#519 = VERTEX_POINT ( 'NONE', #141 ) ;
#520 = CARTESIAN_POINT ( 'NONE',  ( 0.000000000000000000, -14.00000000000000000, 0.000000000000000000 ) ) ;
#521 = DIRECTION ( 'NONE',  ( 0.000000000000000000, 0.000000000000000000, 1.000000000000000000 ) ) ;
#522 = VECTOR ( 'NONE', #581, 1000.000000000000000 ) ;
#523 = AXIS2_PLACEMENT_3D ( 'NONE', #196, #463, #454 ) ;
#524 = ORIENTED_EDGE ( 'NONE', *, *, #444, .T. ) ;
#525 = VECTOR ( 'NONE', #98, 1000.000000000000000 ) ;
#526 = DIRECTION ( 'NONE',  ( 1.000000000000000000, 0.000000000000000000, 0.000000000000000000 ) ) ;
#527 = CARTESIAN_POINT ( 'NONE',  ( 0.000000000000000000, 5.000000000000000888, 0.000000000000000000 ) ) ;
#528 = VERTEX_POINT ( 'NONE', #244 ) ;
#529 = LINE ( 'NONE', #216, #525 ) ;
#530 = EDGE_CURVE ( 'NONE', #598, #406, #131, .T. ) ;
#531 = LINE ( 'NONE', #516, #522 ) ;
#532 = EDGE_CURVE ( 'NONE', #772, #745, #179, .T. ) ;
#533 = EDGE_LOOP ( 'NONE', ( #779, #472 ) ) ;
#534 = DIRECTION ( 'NONE',  ( 0.000000000000000000, 0.000000000000000000, -1.000000000000000000 ) ) ;
#535 = EDGE_CURVE ( 'NONE', #528, #176, #222, .T. ) ;
#536 = CARTESIAN_POINT ( 'NONE',  ( 14.00000000000000000, 5.000000000000000000, 0.000000000000000000 ) ) ;
#537 = ORIENTED_EDGE ( 'NONE', *, *, #530, .T. ) ;
#538 = FACE_OUTER_BOUND ( 'NONE', #734, .T. ) ;
#539 = VECTOR ( 'NONE', #372, 1000.000000000000000 ) ;
#540 = DIRECTION ( 'NONE',  ( 0.000000000000000000, 0.000000000000000000, 1.000000000000000000 ) ) ;
#541 = ORIENTED_EDGE ( 'NONE', *, *, #402, .T. ) ;
#542 = FACE_OUTER_BOUND ( 'NONE', #89, .T. ) ;
#543 = CARTESIAN_POINT ( 'NONE',  ( 28.99999999999999645, 19.00000000000000000, -11.00000000000000000 ) ) ;
#544 = PRODUCT_DEFINITION_SHAPE ( 'NONE', 'NONE',  #2 ) ;
#545 = EDGE_LOOP ( 'NONE', ( #140, #173 ) ) ;
#546 = DIRECTION ( 'NONE',  ( 1.000000000000000000, 0.000000000000000000, 0.000000000000000000 ) ) ;
#547 = ADVANCED_FACE ( 'NONE', ( #46 ), #475, .F. ) ;
#548 = DIRECTION ( 'NONE',  ( 0.000000000000000000, 0.000000000000000000, 1.000000000000000000 ) ) ;
#549 = ORIENTED_EDGE ( 'NONE', *, *, #150, .T. ) ;
#550 = AXIS2_PLACEMENT_3D ( 'NONE', #578, #143, #22 ) ;
#551 = CARTESIAN_POINT ( 'NONE',  ( 1.347111479062088405E-15, 0.000000000000000000, -11.00000000000000000 ) ) ;
#552 = VECTOR ( 'NONE', #692, 1000.000000000000000 ) ;
#553 = PRESENTATION_LAYER_ASSIGNMENT (  '', '', ( #7 ) ) ;
#554 = AXIS2_PLACEMENT_3D ( 'NONE', #184, #620, #117 ) ;
#555 = DIRECTION ( 'NONE',  ( 0.000000000000000000, 0.000000000000000000, -1.000000000000000000 ) ) ;
#556 = ORIENTED_EDGE ( 'NONE', *, *, #178, .F. ) ;
#557 =( LENGTH_UNIT ( ) NAMED_UNIT ( * ) SI_UNIT ( .MILLI., .METRE. ) );
#558 = CYLINDRICAL_SURFACE ( 'NONE', #192, 11.00000000000000000 ) ;
#559 = EDGE_LOOP ( 'NONE', ( #656, #642 ) ) ;
#560 = EDGE_CURVE ( 'NONE', #436, #690, #368, .T. ) ;
#561 = DIRECTION ( 'NONE',  ( 0.000000000000000000, -1.000000000000000000, 0.000000000000000000 ) ) ;
#562 = ORIENTED_EDGE ( 'NONE', *, *, #343, .F. ) ;
#563 = VERTEX_POINT ( 'NONE', #273 ) ;
#564 = LINE ( 'NONE', #551, #801 ) ;
#565 = AXIS2_PLACEMENT_3D ( 'NONE', #775, #214, #405 ) ;
#566 = EDGE_LOOP ( 'NONE', ( #562, #746, #112, #456, #215 ) ) ;
#567 = ORIENTED_EDGE ( 'NONE', *, *, #301, .T. ) ;
#568 = ORIENTED_EDGE ( 'NONE', *, *, #402, .F. ) ;
#569 = CARTESIAN_POINT ( 'NONE',  ( 33.00000000000000000, 19.00000000000000000, 0.000000000000000000 ) ) ;
#570 = ADVANCED_FACE ( 'NONE', ( #34 ), #37, .F. ) ;
#571 = CARTESIAN_POINT ( 'NONE',  ( 0.000000000000000000, -10.00000000000000000, 0.000000000000000000 ) ) ;
#572 = DIRECTION ( 'NONE',  ( 0.000000000000000000, 0.000000000000000000, 1.000000000000000000 ) ) ;
#573 = CIRCLE ( 'NONE', #354, 8.000000000000000000 ) ;
#574 = CIRCLE ( 'NONE', #93, 11.00000000000000000 ) ;
#575 = DIRECTION ( 'NONE',  ( 0.000000000000000000, 0.000000000000000000, 1.000000000000000000 ) ) ;
#576 =( GEOMETRIC_REPRESENTATION_CONTEXT ( 3 ) GLOBAL_UNCERTAINTY_ASSIGNED_CONTEXT ( ( #265 ) ) GLOBAL_UNIT_ASSIGNED_CONTEXT ( ( #557, #296, #165 ) ) REPRESENTATION_CONTEXT ( 'NONE', 'WORKASPACE' ) );
#577 = DIRECTION ( 'NONE',  ( -0.000000000000000000, 1.000000000000000000, -0.000000000000000000 ) ) ;
#578 = CARTESIAN_POINT ( 'NONE',  ( 14.00000000000000000, 19.00000000000000355, 0.000000000000000000 ) ) ;
#579 = ORIENTED_EDGE ( 'NONE', *, *, #28, .F. ) ;
#580 = CARTESIAN_POINT ( 'NONE',  ( 19.00000000000000000, 19.00000000000000355, 0.000000000000000000 ) ) ;
#581 = DIRECTION ( 'NONE',  ( -0.000000000000000000, 1.000000000000000000, -0.000000000000000000 ) ) ;
#582 = ORIENTED_EDGE ( 'NONE', *, *, #28, .T. ) ;
#583 = CARTESIAN_POINT ( 'NONE',  ( -11.00000000000000000, 5.000000000000000888, 0.000000000000000000 ) ) ;
#584 = CARTESIAN_POINT ( 'NONE',  ( 0.000000000000000000, 0.000000000000000000, 0.000000000000000000 ) ) ;
#585 = AXIS2_PLACEMENT_3D ( 'NONE', #31, #717, #201 ) ;
#586 = TOROIDAL_SURFACE ( 'NONE', #694, 14.00000000000000000, 8.000000000000000000 ) ;
#587 = ORIENTED_EDGE ( 'NONE', *, *, #239, .F. ) ;
#588 = ADVANCED_FACE ( 'NONE', ( #646, #229 ), #285, .F. ) ;
#589 = DIRECTION ( 'NONE',  ( -1.000000000000000000, 0.000000000000000000, 0.000000000000000000 ) ) ;
#590 = CARTESIAN_POINT ( 'NONE',  ( 14.00000000000000000, 19.00000000000000355, -11.00000000000000000 ) ) ;
#591 = ADVANCED_FACE ( 'NONE', ( #542 ), #789, .T. ) ;
#592 = ORIENTED_EDGE ( 'NONE', *, *, #386, .F. ) ;
#593 = CARTESIAN_POINT ( 'NONE',  ( 14.00000000000000000, 11.00000000000000000, 9.797174393178825657E-16 ) ) ;
#594 = DIRECTION ( 'NONE',  ( 1.000000000000000000, 0.000000000000000000, 0.000000000000000000 ) ) ;
#595 = ORIENTED_EDGE ( 'NONE', *, *, #413, .T. ) ;
#596 = CARTESIAN_POINT ( 'NONE',  ( 14.00000000000000000, 19.00000000000000355, 0.000000000000000000 ) ) ;
#597 = DIRECTION ( 'NONE',  ( 0.000000000000000000, 0.000000000000000000, 1.000000000000000000 ) ) ;
#598 = VERTEX_POINT ( 'NONE', #583 ) ;
#599 = CIRCLE ( 'NONE', #585, 10.00000000000000000 ) ;
#600 = CARTESIAN_POINT ( 'NONE',  ( 33.00000000000000000, 19.00000000000000000, -11.00000000000000000 ) ) ;
#601 = CIRCLE ( 'NONE', #95, 10.00000000000000178 ) ;
#602 = DIRECTION ( 'NONE',  ( 0.000000000000000000, 0.000000000000000000, 1.000000000000000000 ) ) ;
#603 = ORIENTED_EDGE ( 'NONE', *, *, #689, .F. ) ;
#604 = EDGE_CURVE ( 'NONE', #519, #690, #657, .T. ) ;
#605 = CARTESIAN_POINT ( 'NONE',  ( 28.99999999999999645, 19.00000000000000000, -10.00000000000000178 ) ) ;
#606 = DIRECTION ( 'NONE',  ( 0.000000000000000000, 1.000000000000000000, 0.000000000000000000 ) ) ;
#607 = EDGE_LOOP ( 'NONE', ( #684, #494, #281, #61, #54, #40 ) ) ;
#608 = CARTESIAN_POINT ( 'NONE',  ( 33.00000000000000000, 19.00000000000000000, 0.000000000000000000 ) ) ;
#609 = CARTESIAN_POINT ( 'NONE',  ( 0.000000000000000000, 0.000000000000000000, 0.000000000000000000 ) ) ;
#610 = VERTEX_POINT ( 'NONE', #103 ) ;
#611 = VECTOR ( 'NONE', #8, 1000.000000000000000 ) ;
#612 = FILL_AREA_STYLE ('',( #6 ) ) ;
#613 = CIRCLE ( 'NONE', #209, 10.00000000000000178 ) ;
#614 = EDGE_CURVE ( 'NONE', #745, #389, #601, .T. ) ;
#615 = CIRCLE ( 'NONE', #194, 11.00000000000000000 ) ;
#616 = DIRECTION ( 'NONE',  ( 0.000000000000000000, 0.000000000000000000, 1.000000000000000000 ) ) ;
#617 = EDGE_CURVE ( 'NONE', #406, #161, #236, .T. ) ;
#618 = ORIENTED_EDGE ( 'NONE', *, *, #786, .T. ) ;
#619 = EDGE_CURVE ( 'NONE', #14, #366, #462, .T. ) ;
#620 = DIRECTION ( 'NONE',  ( 0.000000000000000000, -1.000000000000000000, 0.000000000000000000 ) ) ;
#621 = ORIENTED_EDGE ( 'NONE', *, *, #386, .T. ) ;
#622 = ORIENTED_EDGE ( 'NONE', *, *, #617, .T. ) ;
#623 = CARTESIAN_POINT ( 'NONE',  ( 19.00000000000000000, 19.00000000000000355, 0.000000000000000000 ) ) ;
#624 = ORIENTED_EDGE ( 'NONE', *, *, #85, .T. ) ;
#625 = AXIS2_PLACEMENT_3D ( 'NONE', #623, #445, #256 ) ;
#626 = AXIS2_PLACEMENT_3D ( 'NONE', #293, #304, #114 ) ;
#627 = ORIENTED_EDGE ( 'NONE', *, *, #303, .T. ) ;
#628 = EDGE_LOOP ( 'NONE', ( #130, #102, #757, #587, #51 ) ) ;
#629 = ADVANCED_FACE ( 'NONE', ( #404 ), #282, .T. ) ;
#630 = FACE_OUTER_BOUND ( 'NONE', #309, .T. ) ;
#631 = FACE_OUTER_BOUND ( 'NONE', #74, .T. ) ;
#632 = VERTEX_POINT ( 'NONE', #654 ) ;
#633 = DIRECTION ( 'NONE',  ( 0.000000000000000000, -1.000000000000000000, 0.000000000000000000 ) ) ;
#634 = VERTEX_POINT ( 'NONE', #593 ) ;
#635 =( NAMED_UNIT ( * ) PLANE_ANGLE_UNIT ( ) SI_UNIT ( $, .RADIAN. ) );
#636 = LINE ( 'NONE', #495, #274 ) ;
#637 = VECTOR ( 'NONE', #651, 1000.000000000000000 ) ;
#638 = AXIS2_PLACEMENT_3D ( 'NONE', #580, #703, #572 ) ;
#639 = LINE ( 'NONE', #80, #442 ) ;
#640 = AXIS2_PLACEMENT_3D ( 'NONE', #608, #546, #497 ) ;
#641 = EDGE_CURVE ( 'NONE', #161, #563, #248, .T. ) ;
#642 = ORIENTED_EDGE ( 'NONE', *, *, #263, .F. ) ;
#643 = CARTESIAN_POINT ( 'NONE',  ( 0.000000000000000000, 0.000000000000000000, 0.000000000000000000 ) ) ;
#644 = CARTESIAN_POINT ( 'NONE',  ( 0.000000000000000000, -10.00000000000000000, 10.00000000000000000 ) ) ;
#645 = ORIENTED_EDGE ( 'NONE', *, *, #178, .T. ) ;
#646 = FACE_BOUND ( 'NONE', #469, .T. ) ;
#647 = ORIENTED_EDGE ( 'NONE', *, *, #13, .T. ) ;
#648 = APPLICATION_CONTEXT ( 'automotive_design' ) ;
#649 = DIRECTION ( 'NONE',  ( 0.000000000000000000, 0.000000000000000000, -1.000000000000000000 ) ) ;
#650 = EDGE_CURVE ( 'NONE', #144, #528, #529, .T. ) ;
#651 = DIRECTION ( 'NONE',  ( 1.000000000000000000, 0.000000000000000000, 0.000000000000000000 ) ) ;
#652 = AXIS2_PLACEMENT_3D ( 'NONE', #133, #633, #400 ) ;
#653 = EDGE_LOOP ( 'NONE', ( #249, #186 ) ) ;
#654 = CARTESIAN_POINT ( 'NONE',  ( 8.000000000000000000, 5.000000000000000888, 9.797174393178825657E-16 ) ) ;
#655 = CARTESIAN_POINT ( 'NONE',  ( 9.797174393178825657E-16, 0.000000000000000000, -8.000000000000000000 ) ) ;
#656 = ORIENTED_EDGE ( 'NONE', *, *, #413, .F. ) ;
#657 = LINE ( 'NONE', #773, #275 ) ;
#658 = DIRECTION ( 'NONE',  ( 1.000000000000000000, 0.000000000000000000, 0.000000000000000000 ) ) ;
#659 = VERTEX_POINT ( 'NONE', #220 ) ;
#660 = DIRECTION ( 'NONE',  ( 1.000000000000000000, 0.000000000000000000, 0.000000000000000000 ) ) ;
#661 = DIRECTION ( 'NONE',  ( -1.000000000000000000, 0.000000000000000000, 0.000000000000000000 ) ) ;
#662 = CLOSED_SHELL ( 'NONE', ( #477, #243, #498, #430, #591, #774, #547, #570, #99, #675, #629, #464, #490, #390, #700, #153, #101, #156, #736, #505, #377, #272, #793, #325, #588, #242 ) ) ;
#663 = EDGE_LOOP ( 'NONE', ( #702, #23, #295, #349, #503 ) ) ;
#664 = AXIS2_PLACEMENT_3D ( 'NONE', #518, #410, #218 ) ;
#665 = AXIS2_PLACEMENT_3D ( 'NONE', #609, #104, #597 ) ;
#666 = PRODUCT ( 'Exercise 17', 'Exercise 17', '', ( #696 ) ) ;
#667 = DIRECTION ( 'NONE',  ( -1.000000000000000000, -0.000000000000000000, -0.000000000000000000 ) ) ;
#668 = CARTESIAN_POINT ( 'NONE',  ( 0.000000000000000000, -14.00000000000000000, 0.000000000000000000 ) ) ;
#669 = ORIENTED_EDGE ( 'NONE', *, *, #650, .F. ) ;
#670 = CARTESIAN_POINT ( 'NONE',  ( 0.000000000000000000, -14.00000000000000000, 0.000000000000000000 ) ) ;
#671 = CARTESIAN_POINT ( 'NONE',  ( 14.00000000000000000, 27.00000000000000000, 0.000000000000000000 ) ) ;
#672 = ORIENTED_EDGE ( 'NONE', *, *, #677, .F. ) ;
#673 = EDGE_CURVE ( 'NONE', #610, #686, #615, .T. ) ;
#674 = CARTESIAN_POINT ( 'NONE',  ( 0.000000000000000000, 5.000000000000000888, 0.000000000000000000 ) ) ;
#675 = ADVANCED_FACE ( 'NONE', ( #538 ), #780, .T. ) ;
#676 = CARTESIAN_POINT ( 'NONE',  ( 9.797174393178825657E-16, -14.00000000000000000, -8.000000000000000000 ) ) ;
#677 = EDGE_CURVE ( 'NONE', #610, #292, #106, .T. ) ;
#678 = ORIENTED_EDGE ( 'NONE', *, *, #799, .T. ) ;
#679 = TOROIDAL_SURFACE ( 'NONE', #664, 14.00000000000000000, 8.000000000000000000 ) ;
#680 = CARTESIAN_POINT ( 'NONE',  ( 28.99999999999999645, 19.00000000000000000, 0.000000000000000000 ) ) ;
#681 = AXIS2_PLACEMENT_3D ( 'NONE', #27, #526, #708 ) ;
#682 = AXIS2_PLACEMENT_3D ( 'NONE', #318, #449, #391 ) ;
#683 = ORIENTED_EDGE ( 'NONE', *, *, #732, .T. ) ;
#684 = ORIENTED_EDGE ( 'NONE', *, *, #530, .F. ) ;
#685 = CARTESIAN_POINT ( 'NONE',  ( 19.00000000000000000, 19.00000000000000000, 10.00000000000000178 ) ) ;
#686 = VERTEX_POINT ( 'NONE', #431 ) ;
#687 = ORIENTED_EDGE ( 'NONE', *, *, #168, .T. ) ;
#688 = FACE_OUTER_BOUND ( 'NONE', #453, .T. ) ;
#689 = EDGE_CURVE ( 'NONE', #228, #389, #49, .T. ) ;
#690 = VERTEX_POINT ( 'NONE', #735 ) ;
#691 = APPLICATION_CONTEXT ( 'automotive_design' ) ;
#692 = DIRECTION ( 'NONE',  ( -1.000000000000000000, -0.000000000000000000, -0.000000000000000000 ) ) ;
#693 = CIRCLE ( 'NONE', #16, 8.000000000000000000 ) ;
#694 = AXIS2_PLACEMENT_3D ( 'NONE', #136, #392, #305 ) ;
#695 = ORIENTED_EDGE ( 'NONE', *, *, #760, .F. ) ;
#696 = PRODUCT_CONTEXT ( 'NONE', #648, 'mechanical' ) ;
#697 = CARTESIAN_POINT ( 'NONE',  ( 14.00000000000000000, 30.00000000000000355, 0.000000000000000000 ) ) ;
#698 = EDGE_LOOP ( 'NONE', ( #595, #791, #371, #395, #423 ) ) ;
#699 = DIRECTION ( 'NONE',  ( 0.000000000000000000, -1.000000000000000000, 0.000000000000000000 ) ) ;
#700 = ADVANCED_FACE ( 'NONE', ( #359, #367 ), #792, .T. ) ;
#701 = DIRECTION ( 'NONE',  ( -0.000000000000000000, -0.000000000000000000, -1.000000000000000000 ) ) ;
#702 = ORIENTED_EDGE ( 'NONE', *, *, #388, .F. ) ;
#703 = DIRECTION ( 'NONE',  ( -1.000000000000000000, 0.000000000000000000, 0.000000000000000000 ) ) ;
#704 = AXIS2_PLACEMENT_3D ( 'NONE', #47, #291, #768 ) ;
#705 = CYLINDRICAL_SURFACE ( 'NONE', #142, 11.00000000000000000 ) ;
#706 = CIRCLE ( 'NONE', #44, 11.00000000000000000 ) ;
#707 = EDGE_LOOP ( 'NONE', ( #352, #714 ) ) ;
#708 = DIRECTION ( 'NONE',  ( 0.000000000000000000, 0.000000000000000000, -1.000000000000000000 ) ) ;
#709 = FACE_OUTER_BOUND ( 'NONE', #628, .T. ) ;
#710 = ORIENTED_EDGE ( 'NONE', *, *, #673, .T. ) ;
#711 = DIRECTION ( 'NONE',  ( 0.000000000000000000, -1.000000000000000000, 0.000000000000000000 ) ) ;
#712 = CARTESIAN_POINT ( 'NONE',  ( 14.00000000000000000, 19.00000000000000355, -8.000000000000000000 ) ) ;
#713 = EDGE_CURVE ( 'NONE', #254, #634, #195, .T. ) ;
#714 = ORIENTED_EDGE ( 'NONE', *, *, #39, .F. ) ;
#715 = DIRECTION ( 'NONE',  ( 0.000000000000000000, 0.000000000000000000, -1.000000000000000000 ) ) ;
#716 = AXIS2_PLACEMENT_3D ( 'NONE', #4, #189, #384 ) ;
#717 = DIRECTION ( 'NONE',  ( 0.000000000000000000, -1.000000000000000000, 0.000000000000000000 ) ) ;
#718 = PRODUCT_RELATED_PRODUCT_CATEGORY ( 'part', '', ( #666 ) ) ;
#719 = VERTEX_POINT ( 'NONE', #171 ) ;
#720 = DIRECTION ( 'NONE',  ( -1.000000000000000000, -6.123233995736766036E-17, 0.000000000000000000 ) ) ;
#721 = CARTESIAN_POINT ( 'NONE',  ( 0.000000000000000000, 5.000000000000000888, 0.000000000000000000 ) ) ;
#722 = ORIENTED_EDGE ( 'NONE', *, *, #650, .T. ) ;
#723 = CARTESIAN_POINT ( 'NONE',  ( 0.000000000000000000, 0.000000000000000000, 0.000000000000000000 ) ) ;
#724 = FACE_OUTER_BOUND ( 'NONE', #533, .T. ) ;
#725 = VERTEX_POINT ( 'NONE', #424 ) ;
#726 = FACE_OUTER_BOUND ( 'NONE', #382, .T. ) ;
#727 = DIRECTION ( 'NONE',  ( -0.000000000000000000, -1.000000000000000000, -0.000000000000000000 ) ) ;
#728 = ORIENTED_EDGE ( 'NONE', *, *, #70, .T. ) ;
#729 = AXIS2_PLACEMENT_3D ( 'NONE', #668, #175, #555 ) ;
#730 = DIRECTION ( 'NONE',  ( -1.000000000000000000, -6.123233995736766036E-17, 0.000000000000000000 ) ) ;
#731 = AXIS2_PLACEMENT_3D ( 'NONE', #408, #589, #226 ) ;
#732 = EDGE_CURVE ( 'NONE', #686, #610, #121, .T. ) ;
#733 = FACE_BOUND ( 'NONE', #545, .T. ) ;
#734 = EDGE_LOOP ( 'NONE', ( #592, #358, #262, #77, #278 ) ) ;
#735 = CARTESIAN_POINT ( 'NONE',  ( 0.000000000000000000, 5.000000000000000888, 11.00000000000000000 ) ) ;
#736 = ADVANCED_FACE ( 'NONE', ( #310 ), #307, .T. ) ;
#737 = DIRECTION ( 'NONE',  ( 0.000000000000000000, -1.000000000000000000, 0.000000000000000000 ) ) ;
#738 = ORIENTED_EDGE ( 'NONE', *, *, #421, .T. ) ;
#739 = DIRECTION ( 'NONE',  ( -1.000000000000000000, 0.000000000000000000, 0.000000000000000000 ) ) ;
#740 = DIRECTION ( 'NONE',  ( -0.000000000000000000, -0.000000000000000000, -1.000000000000000000 ) ) ;
#741 = DIRECTION ( 'NONE',  ( 0.000000000000000000, 0.000000000000000000, -1.000000000000000000 ) ) ;
#742 = PRESENTATION_STYLE_ASSIGNMENT (( #375 ) ) ;
#743 = CIRCLE ( 'NONE', #626, 11.00000000000000000 ) ;
#744 = AXIS2_PLACEMENT_3D ( 'NONE', #571, #376, #253 ) ;
#745 = VERTEX_POINT ( 'NONE', #685 ) ;
#746 = ORIENTED_EDGE ( 'NONE', *, *, #134, .F. ) ;
#747 = DIRECTION ( 'NONE',  ( 0.000000000000000000, 0.000000000000000000, 1.000000000000000000 ) ) ;
#748 = EDGE_CURVE ( 'NONE', #316, #411, #706, .T. ) ;
#749 = DIRECTION ( 'NONE',  ( 1.000000000000000000, 0.000000000000000000, 0.000000000000000000 ) ) ;
#750 =( LENGTH_UNIT ( ) NAMED_UNIT ( * ) SI_UNIT ( .MILLI., .METRE. ) );
#751 = CARTESIAN_POINT ( 'NONE',  ( 14.00000000000000000, 19.00000000000000355, 8.000000000000000000 ) ) ;
#752 = EDGE_LOOP ( 'NONE', ( #672, #212, #788, #225 ) ) ;
#753 = FACE_OUTER_BOUND ( 'NONE', #302, .T. ) ;
#754 = CIRCLE ( 'NONE', #43, 8.000000000000000000 ) ;
#755 = AXIS2_PLACEMENT_3D ( 'NONE', #674, #188, #322 ) ;
#756 = EDGE_CURVE ( 'NONE', #292, #109, #743, .T. ) ;
#757 = ORIENTED_EDGE ( 'NONE', *, *, #362, .T. ) ;
#758 = ORIENTED_EDGE ( 'NONE', *, *, #444, .F. ) ;
#759 = MANIFOLD_SOLID_BREP ( 'Boss-Extrude4', #662 ) ;
#760 = EDGE_CURVE ( 'NONE', #403, #659, #564, .T. ) ;
#761 = CARTESIAN_POINT ( 'NONE',  ( 0.000000000000000000, -14.00000000000000000, 0.000000000000000000 ) ) ;
#762 = EDGE_CURVE ( 'NONE', #632, #634, #344, .T. ) ;
#763 = LINE ( 'NONE', #590, #637 ) ;
#764 = ORIENTED_EDGE ( 'NONE', *, *, #85, .F. ) ;
#765 = DIRECTION ( 'NONE',  ( 1.000000000000000000, 0.000000000000000000, 0.000000000000000000 ) ) ;
#766 = DIRECTION ( 'NONE',  ( -0.000000000000000000, -1.000000000000000000, -0.000000000000000000 ) ) ;
#767 = VERTEX_POINT ( 'NONE', #483 ) ;
#768 = DIRECTION ( 'NONE',  ( 0.000000000000000000, 0.000000000000000000, -1.000000000000000000 ) ) ;
#769 = CIRCLE ( 'NONE', #729, 8.000000000000000000 ) ;
#770 = DIRECTION ( 'NONE',  ( 0.000000000000000000, 0.000000000000000000, 1.000000000000000000 ) ) ;
#771 = AXIS2_PLACEMENT_3D ( 'NONE', #82, #508, #747 ) ;
#772 = VERTEX_POINT ( 'NONE', #174 ) ;
#773 = CARTESIAN_POINT ( 'NONE',  ( 0.000000000000000000, 0.000000000000000000, 11.00000000000000000 ) ) ;
#774 = ADVANCED_FACE ( 'NONE', ( #726 ), #419, .T. ) ;
#775 = CARTESIAN_POINT ( 'NONE',  ( 14.00000000000000000, 5.000000000000000000, 0.000000000000000000 ) ) ;
#776 = ORIENTED_EDGE ( 'NONE', *, *, #97, .F. ) ;
#777 = CARTESIAN_POINT ( 'NONE',  ( 0.000000000000000000, 0.000000000000000000, 0.000000000000000000 ) ) ;
#778 = CARTESIAN_POINT ( 'NONE',  ( 0.000000000000000000, 5.000000000000000888, 0.000000000000000000 ) ) ;
#779 = ORIENTED_EDGE ( 'NONE', *, *, #476, .F. ) ;
#780 = CYLINDRICAL_SURFACE ( 'NONE', #132, 11.00000000000000000 ) ;
#781 = DIRECTION ( 'NONE',  ( 0.000000000000000000, -1.000000000000000000, 0.000000000000000000 ) ) ;
#782 = AXIS2_PLACEMENT_3D ( 'NONE', #42, #781, #493 ) ;
#783 = CIRCLE ( 'NONE', #183, 10.00000000000000178 ) ;
#784 = ORIENTED_EDGE ( 'NONE', *, *, #301, .F. ) ;
#785 = CARTESIAN_POINT ( 'NONE',  ( 14.00000000000000000, 19.00000000000000355, 0.000000000000000000 ) ) ;
#786 = EDGE_CURVE ( 'NONE', #725, #9, #223, .T. ) ;
#787 = FACE_OUTER_BOUND ( 'NONE', #491, .T. ) ;
#788 = ORIENTED_EDGE ( 'NONE', *, *, #217, .T. ) ;
#789 = CYLINDRICAL_SURFACE ( 'NONE', #108, 11.00000000000000000 ) ;
#790 = CARTESIAN_POINT ( 'NONE',  ( 19.00000000000000000, 19.00000000000000000, -10.00000000000000178 ) ) ;
#791 = ORIENTED_EDGE ( 'NONE', *, *, #122, .T. ) ;
#792 = PLANE ( 'NONE',  #554 ) ;
#793 = ADVANCED_FACE ( 'NONE', ( #66 ), #314, .T. ) ;
#794 = DIRECTION ( 'NONE',  ( 1.000000000000000000, 0.000000000000000000, 0.000000000000000000 ) ) ;
#795 = AXIS2_PLACEMENT_3D ( 'NONE', #187, #701, #393 ) ;
#796 = ORIENTED_EDGE ( 'NONE', *, *, #762, .T. ) ;
#797 = CIRCLE ( 'NONE', #379, 11.00000000000000000 ) ;
#798 = AXIS2_PLACEMENT_3D ( 'NONE', #224, #299, #115 ) ;
#799 = EDGE_CURVE ( 'NONE', #598, #659, #19, .T. ) ;
#800 = DIRECTION ( 'NONE',  ( 0.000000000000000000, 1.000000000000000000, 0.000000000000000000 ) ) ;
#801 = VECTOR ( 'NONE', #800, 1000.000000000000000 ) ;
#802 = FACE_OUTER_BOUND ( 'NONE', #752, .T. ) ;
#803 = ORIENTED_EDGE ( 'NONE', *, *, #451, .F. ) ;
ENDSEC;
END-ISO-10303-21;
